M48
; DRILL file {KiCad 8.0.8-8.0.8-0~ubuntu24.04.1} date 2026-02-24T22:45:10+0100
; FORMAT={-:-/ absolute / metric / decimal}
; #@! TF.CreationDate,2026-02-24T22:45:10+01:00
; #@! TF.GenerationSoftware,Kicad,Pcbnew,8.0.8-8.0.8-0~ubuntu24.04.1
; #@! TF.FileFunction,Plated,1,2,PTH
FMAT,2
METRIC
; #@! TA.AperFunction,Plated,PTH,ViaDrill
T1C0.300
; #@! TA.AperFunction,Plated,PTH,ComponentDrill
T2C0.762
; #@! TA.AperFunction,Plated,PTH,ComponentDrill
T3C0.800
; #@! TA.AperFunction,Plated,PTH,ComponentDrill
T4C1.000
; #@! TA.AperFunction,Plated,PTH,ComponentDrill
T5C1.010
%
G90
G05
T1
X112.055Y-50.35
X113.875Y-54.995
X115.875Y-64.995
X118.44Y-60.055
X120.08Y-66.06
X125.05Y-75.32
X125.95Y-83.3
X126.86Y-85.5
X126.92Y-65.9
X127.1Y-107.2
X127.375Y-90.725
X128.375Y-88.975
X128.425Y-80.45
X129.65Y-106.55
X130.4Y-70.35
X131.8Y-99.3
X131.8Y-101.4
X131.9Y-110.1
X132.525Y-76.225
X133.02Y-83.33
X134.0Y-93.0
X134.0Y-101.5
X135.2Y-79.4
X137.175Y-79.4
X137.76Y-91.11
X139.39Y-75.587
X139.625Y-84.043
X139.86Y-88.5
X140.957Y-66.82
X141.6Y-75.638
X142.012Y-83.388
X143.106Y-88.456
X144.61Y-88.52
X144.8Y-50.3
X145.77Y-84.16
X147.71Y-77.2
X149.23Y-86.97
X151.362Y-68.2
X151.4Y-80.6
X151.4Y-82.5
X151.5Y-78.56
X153.3Y-50.3
X154.05Y-81.55
T2
X133.625Y-67.975
X136.165Y-67.975
T3
X143.0Y-72.2
X147.88Y-72.2
T4
X130.4Y-41.1
X140.4Y-41.1
X144.8Y-56.2
X144.8Y-61.6
X153.2Y-56.2
X153.2Y-61.6
X157.3Y-95.09
X157.3Y-97.63
X157.3Y-100.17
X157.3Y-102.71
X157.375Y-83.41
X157.375Y-85.95
X157.375Y-88.49
X157.375Y-91.03
T5
X113.75Y-81.6
X113.75Y-89.6
M30
