G04 #@! TF.GenerationSoftware,KiCad,Pcbnew,8.0.8-8.0.8-0~ubuntu24.04.1*
G04 #@! TF.CreationDate,2026-02-24T22:46:37+01:00*
G04 #@! TF.ProjectId,AnalogPeripherial,416e616c-6f67-4506-9572-697068657269,rev?*
G04 #@! TF.SameCoordinates,Original*
G04 #@! TF.FileFunction,Legend,Top*
G04 #@! TF.FilePolarity,Positive*
%FSLAX46Y46*%
G04 Gerber Fmt 4.6, Leading zero omitted, Abs format (unit mm)*
G04 Created by KiCad (PCBNEW 8.0.8-8.0.8-0~ubuntu24.04.1) date 2026-02-24 22:46:37*
%MOMM*%
%LPD*%
G01*
G04 APERTURE LIST*
G04 Aperture macros list*
%AMRoundRect*
0 Rectangle with rounded corners*
0 $1 Rounding radius*
0 $2 $3 $4 $5 $6 $7 $8 $9 X,Y pos of 4 corners*
0 Add a 4 corners polygon primitive as box body*
4,1,4,$2,$3,$4,$5,$6,$7,$8,$9,$2,$3,0*
0 Add four circle primitives for the rounded corners*
1,1,$1+$1,$2,$3*
1,1,$1+$1,$4,$5*
1,1,$1+$1,$6,$7*
1,1,$1+$1,$8,$9*
0 Add four rect primitives between the rounded corners*
20,1,$1+$1,$2,$3,$4,$5,0*
20,1,$1+$1,$4,$5,$6,$7,0*
20,1,$1+$1,$6,$7,$8,$9,0*
20,1,$1+$1,$8,$9,$2,$3,0*%
%AMOutline4P*
0 Free polygon, 4 corners , with rotation*
0 The origin of the aperture is its center*
0 number of corners: always 4*
0 $1 to $8 corner X, Y*
0 $9 Rotation angle, in degrees counterclockwise*
0 create outline with 4 corners*
4,1,4,$1,$2,$3,$4,$5,$6,$7,$8,$1,$2,$9*%
G04 Aperture macros list end*
%ADD10C,0.200000*%
%ADD11C,0.150000*%
%ADD12C,0.100000*%
%ADD13C,0.152400*%
%ADD14C,0.120000*%
%ADD15R,1.600200X0.762000*%
%ADD16C,2.000000*%
%ADD17R,1.400000X1.200000*%
%ADD18R,1.400000X1.600000*%
%ADD19R,2.200000X1.200000*%
%ADD20RoundRect,0.250000X0.450000X-0.350000X0.450000X0.350000X-0.450000X0.350000X-0.450000X-0.350000X0*%
%ADD21RoundRect,0.250000X0.475000X-0.337500X0.475000X0.337500X-0.475000X0.337500X-0.475000X-0.337500X0*%
%ADD22R,2.000000X0.600000*%
%ADD23RoundRect,0.250000X0.450000X-0.325000X0.450000X0.325000X-0.450000X0.325000X-0.450000X-0.325000X0*%
%ADD24RoundRect,0.250000X-0.475000X0.337500X-0.475000X-0.337500X0.475000X-0.337500X0.475000X0.337500X0*%
%ADD25C,2.200000*%
%ADD26C,1.500000*%
%ADD27C,1.524000*%
%ADD28RoundRect,0.375000X0.625000X0.375000X-0.625000X0.375000X-0.625000X-0.375000X0.625000X-0.375000X0*%
%ADD29RoundRect,0.500000X0.500000X1.400000X-0.500000X1.400000X-0.500000X-1.400000X0.500000X-1.400000X0*%
%ADD30RoundRect,0.250000X0.325000X0.450000X-0.325000X0.450000X-0.325000X-0.450000X0.325000X-0.450000X0*%
%ADD31RoundRect,0.250000X-0.337500X-0.475000X0.337500X-0.475000X0.337500X0.475000X-0.337500X0.475000X0*%
%ADD32RoundRect,0.250000X-0.450000X0.350000X-0.450000X-0.350000X0.450000X-0.350000X0.450000X0.350000X0*%
%ADD33Outline4P,-0.800000X-0.750000X0.800000X-0.750000X0.800000X0.750000X-0.800000X0.750000X180.000000*%
%ADD34R,1.200000X1.200000*%
%ADD35Outline4P,-0.600000X-0.600000X0.600000X-0.600000X0.600000X0.600000X-0.600000X0.600000X180.000000*%
%ADD36RoundRect,0.150000X-0.150000X0.512500X-0.150000X-0.512500X0.150000X-0.512500X0.150000X0.512500X0*%
%ADD37RoundRect,0.250000X-0.250000X-0.550000X0.250000X-0.550000X0.250000X0.550000X-0.250000X0.550000X0*%
%ADD38R,1.700000X1.700000*%
%ADD39O,1.700000X1.700000*%
%ADD40RoundRect,0.250000X0.337500X0.475000X-0.337500X0.475000X-0.337500X-0.475000X0.337500X-0.475000X0*%
%ADD41RoundRect,0.075000X-0.075000X0.662500X-0.075000X-0.662500X0.075000X-0.662500X0.075000X0.662500X0*%
%ADD42RoundRect,0.075000X-0.662500X0.075000X-0.662500X-0.075000X0.662500X-0.075000X0.662500X0.075000X0*%
%ADD43R,1.500000X1.500000*%
%ADD44RoundRect,0.250000X-0.350000X0.275000X-0.350000X-0.275000X0.350000X-0.275000X0.350000X0.275000X0*%
%ADD45RoundRect,0.250000X0.350000X0.450000X-0.350000X0.450000X-0.350000X-0.450000X0.350000X-0.450000X0*%
%ADD46C,1.000000*%
%ADD47R,0.500000X2.000000*%
%ADD48R,2.000000X1.700000*%
G04 APERTURE END LIST*
D10*
X150945863Y-64406028D02*
X150445863Y-63691742D01*
X150088720Y-64406028D02*
X150088720Y-62906028D01*
X150088720Y-62906028D02*
X150660149Y-62906028D01*
X150660149Y-62906028D02*
X150803006Y-62977457D01*
X150803006Y-62977457D02*
X150874435Y-63048885D01*
X150874435Y-63048885D02*
X150945863Y-63191742D01*
X150945863Y-63191742D02*
X150945863Y-63406028D01*
X150945863Y-63406028D02*
X150874435Y-63548885D01*
X150874435Y-63548885D02*
X150803006Y-63620314D01*
X150803006Y-63620314D02*
X150660149Y-63691742D01*
X150660149Y-63691742D02*
X150088720Y-63691742D01*
X151588720Y-63620314D02*
X152088720Y-63620314D01*
X152303006Y-64406028D02*
X151588720Y-64406028D01*
X151588720Y-64406028D02*
X151588720Y-62906028D01*
X151588720Y-62906028D02*
X152303006Y-62906028D01*
X152945863Y-64406028D02*
X152945863Y-62906028D01*
X152945863Y-62906028D02*
X153517292Y-62906028D01*
X153517292Y-62906028D02*
X153660149Y-62977457D01*
X153660149Y-62977457D02*
X153731578Y-63048885D01*
X153731578Y-63048885D02*
X153803006Y-63191742D01*
X153803006Y-63191742D02*
X153803006Y-63406028D01*
X153803006Y-63406028D02*
X153731578Y-63548885D01*
X153731578Y-63548885D02*
X153660149Y-63620314D01*
X153660149Y-63620314D02*
X153517292Y-63691742D01*
X153517292Y-63691742D02*
X152945863Y-63691742D01*
X155160149Y-64406028D02*
X154445863Y-64406028D01*
X154445863Y-64406028D02*
X154445863Y-62906028D01*
X155588721Y-63977457D02*
X156303007Y-63977457D01*
X155445864Y-64406028D02*
X155945864Y-62906028D01*
X155945864Y-62906028D02*
X156445864Y-64406028D01*
X157231578Y-63691742D02*
X157231578Y-64406028D01*
X156731578Y-62906028D02*
X157231578Y-63691742D01*
X157231578Y-63691742D02*
X157731578Y-62906028D01*
X142245863Y-64506028D02*
X141745863Y-63791742D01*
X141388720Y-64506028D02*
X141388720Y-63006028D01*
X141388720Y-63006028D02*
X141960149Y-63006028D01*
X141960149Y-63006028D02*
X142103006Y-63077457D01*
X142103006Y-63077457D02*
X142174435Y-63148885D01*
X142174435Y-63148885D02*
X142245863Y-63291742D01*
X142245863Y-63291742D02*
X142245863Y-63506028D01*
X142245863Y-63506028D02*
X142174435Y-63648885D01*
X142174435Y-63648885D02*
X142103006Y-63720314D01*
X142103006Y-63720314D02*
X141960149Y-63791742D01*
X141960149Y-63791742D02*
X141388720Y-63791742D01*
X142888720Y-63720314D02*
X143388720Y-63720314D01*
X143603006Y-64506028D02*
X142888720Y-64506028D01*
X142888720Y-64506028D02*
X142888720Y-63006028D01*
X142888720Y-63006028D02*
X143603006Y-63006028D01*
X145103006Y-64363171D02*
X145031578Y-64434600D01*
X145031578Y-64434600D02*
X144817292Y-64506028D01*
X144817292Y-64506028D02*
X144674435Y-64506028D01*
X144674435Y-64506028D02*
X144460149Y-64434600D01*
X144460149Y-64434600D02*
X144317292Y-64291742D01*
X144317292Y-64291742D02*
X144245863Y-64148885D01*
X144245863Y-64148885D02*
X144174435Y-63863171D01*
X144174435Y-63863171D02*
X144174435Y-63648885D01*
X144174435Y-63648885D02*
X144245863Y-63363171D01*
X144245863Y-63363171D02*
X144317292Y-63220314D01*
X144317292Y-63220314D02*
X144460149Y-63077457D01*
X144460149Y-63077457D02*
X144674435Y-63006028D01*
X144674435Y-63006028D02*
X144817292Y-63006028D01*
X144817292Y-63006028D02*
X145031578Y-63077457D01*
X145031578Y-63077457D02*
X145103006Y-63148885D01*
X153496028Y-100851279D02*
X154710314Y-100851279D01*
X154710314Y-100851279D02*
X154853171Y-100779850D01*
X154853171Y-100779850D02*
X154924600Y-100708422D01*
X154924600Y-100708422D02*
X154996028Y-100565564D01*
X154996028Y-100565564D02*
X154996028Y-100279850D01*
X154996028Y-100279850D02*
X154924600Y-100136993D01*
X154924600Y-100136993D02*
X154853171Y-100065564D01*
X154853171Y-100065564D02*
X154710314Y-99994136D01*
X154710314Y-99994136D02*
X153496028Y-99994136D01*
X154567457Y-99351278D02*
X154567457Y-98636993D01*
X154996028Y-99494135D02*
X153496028Y-98994135D01*
X153496028Y-98994135D02*
X154996028Y-98494135D01*
X154996028Y-97136993D02*
X154281742Y-97636993D01*
X154996028Y-97994136D02*
X153496028Y-97994136D01*
X153496028Y-97994136D02*
X153496028Y-97422707D01*
X153496028Y-97422707D02*
X153567457Y-97279850D01*
X153567457Y-97279850D02*
X153638885Y-97208421D01*
X153638885Y-97208421D02*
X153781742Y-97136993D01*
X153781742Y-97136993D02*
X153996028Y-97136993D01*
X153996028Y-97136993D02*
X154138885Y-97208421D01*
X154138885Y-97208421D02*
X154210314Y-97279850D01*
X154210314Y-97279850D02*
X154281742Y-97422707D01*
X154281742Y-97422707D02*
X154281742Y-97994136D01*
X153496028Y-96708421D02*
X153496028Y-95851279D01*
X154996028Y-96279850D02*
X153496028Y-96279850D01*
X154964600Y-89052707D02*
X155036028Y-88838422D01*
X155036028Y-88838422D02*
X155036028Y-88481279D01*
X155036028Y-88481279D02*
X154964600Y-88338422D01*
X154964600Y-88338422D02*
X154893171Y-88266993D01*
X154893171Y-88266993D02*
X154750314Y-88195564D01*
X154750314Y-88195564D02*
X154607457Y-88195564D01*
X154607457Y-88195564D02*
X154464600Y-88266993D01*
X154464600Y-88266993D02*
X154393171Y-88338422D01*
X154393171Y-88338422D02*
X154321742Y-88481279D01*
X154321742Y-88481279D02*
X154250314Y-88766993D01*
X154250314Y-88766993D02*
X154178885Y-88909850D01*
X154178885Y-88909850D02*
X154107457Y-88981279D01*
X154107457Y-88981279D02*
X153964600Y-89052707D01*
X153964600Y-89052707D02*
X153821742Y-89052707D01*
X153821742Y-89052707D02*
X153678885Y-88981279D01*
X153678885Y-88981279D02*
X153607457Y-88909850D01*
X153607457Y-88909850D02*
X153536028Y-88766993D01*
X153536028Y-88766993D02*
X153536028Y-88409850D01*
X153536028Y-88409850D02*
X153607457Y-88195564D01*
X153536028Y-87695565D02*
X155036028Y-87338422D01*
X155036028Y-87338422D02*
X153964600Y-87052708D01*
X153964600Y-87052708D02*
X155036028Y-86766993D01*
X155036028Y-86766993D02*
X153536028Y-86409851D01*
X155036028Y-85838422D02*
X153536028Y-85838422D01*
X153536028Y-85838422D02*
X153536028Y-85481279D01*
X153536028Y-85481279D02*
X153607457Y-85266993D01*
X153607457Y-85266993D02*
X153750314Y-85124136D01*
X153750314Y-85124136D02*
X153893171Y-85052707D01*
X153893171Y-85052707D02*
X154178885Y-84981279D01*
X154178885Y-84981279D02*
X154393171Y-84981279D01*
X154393171Y-84981279D02*
X154678885Y-85052707D01*
X154678885Y-85052707D02*
X154821742Y-85124136D01*
X154821742Y-85124136D02*
X154964600Y-85266993D01*
X154964600Y-85266993D02*
X155036028Y-85481279D01*
X155036028Y-85481279D02*
X155036028Y-85838422D01*
D11*
X124795179Y-85363091D02*
X123985656Y-85363091D01*
X123985656Y-85363091D02*
X123890418Y-85410710D01*
X123890418Y-85410710D02*
X123842799Y-85458329D01*
X123842799Y-85458329D02*
X123795179Y-85553567D01*
X123795179Y-85553567D02*
X123795179Y-85744043D01*
X123795179Y-85744043D02*
X123842799Y-85839281D01*
X123842799Y-85839281D02*
X123890418Y-85886900D01*
X123890418Y-85886900D02*
X123985656Y-85934519D01*
X123985656Y-85934519D02*
X124795179Y-85934519D01*
X124461846Y-86839281D02*
X123795179Y-86839281D01*
X124842799Y-86601186D02*
X124128513Y-86363091D01*
X124128513Y-86363091D02*
X124128513Y-86982138D01*
X118958333Y-71654819D02*
X118625000Y-71178628D01*
X118386905Y-71654819D02*
X118386905Y-70654819D01*
X118386905Y-70654819D02*
X118767857Y-70654819D01*
X118767857Y-70654819D02*
X118863095Y-70702438D01*
X118863095Y-70702438D02*
X118910714Y-70750057D01*
X118910714Y-70750057D02*
X118958333Y-70845295D01*
X118958333Y-70845295D02*
X118958333Y-70988152D01*
X118958333Y-70988152D02*
X118910714Y-71083390D01*
X118910714Y-71083390D02*
X118863095Y-71131009D01*
X118863095Y-71131009D02*
X118767857Y-71178628D01*
X118767857Y-71178628D02*
X118386905Y-71178628D01*
X119291667Y-70654819D02*
X119958333Y-70654819D01*
X119958333Y-70654819D02*
X119529762Y-71654819D01*
X147333333Y-77359580D02*
X147285714Y-77407200D01*
X147285714Y-77407200D02*
X147142857Y-77454819D01*
X147142857Y-77454819D02*
X147047619Y-77454819D01*
X147047619Y-77454819D02*
X146904762Y-77407200D01*
X146904762Y-77407200D02*
X146809524Y-77311961D01*
X146809524Y-77311961D02*
X146761905Y-77216723D01*
X146761905Y-77216723D02*
X146714286Y-77026247D01*
X146714286Y-77026247D02*
X146714286Y-76883390D01*
X146714286Y-76883390D02*
X146761905Y-76692914D01*
X146761905Y-76692914D02*
X146809524Y-76597676D01*
X146809524Y-76597676D02*
X146904762Y-76502438D01*
X146904762Y-76502438D02*
X147047619Y-76454819D01*
X147047619Y-76454819D02*
X147142857Y-76454819D01*
X147142857Y-76454819D02*
X147285714Y-76502438D01*
X147285714Y-76502438D02*
X147333333Y-76550057D01*
X147904762Y-76883390D02*
X147809524Y-76835771D01*
X147809524Y-76835771D02*
X147761905Y-76788152D01*
X147761905Y-76788152D02*
X147714286Y-76692914D01*
X147714286Y-76692914D02*
X147714286Y-76645295D01*
X147714286Y-76645295D02*
X147761905Y-76550057D01*
X147761905Y-76550057D02*
X147809524Y-76502438D01*
X147809524Y-76502438D02*
X147904762Y-76454819D01*
X147904762Y-76454819D02*
X148095238Y-76454819D01*
X148095238Y-76454819D02*
X148190476Y-76502438D01*
X148190476Y-76502438D02*
X148238095Y-76550057D01*
X148238095Y-76550057D02*
X148285714Y-76645295D01*
X148285714Y-76645295D02*
X148285714Y-76692914D01*
X148285714Y-76692914D02*
X148238095Y-76788152D01*
X148238095Y-76788152D02*
X148190476Y-76835771D01*
X148190476Y-76835771D02*
X148095238Y-76883390D01*
X148095238Y-76883390D02*
X147904762Y-76883390D01*
X147904762Y-76883390D02*
X147809524Y-76931009D01*
X147809524Y-76931009D02*
X147761905Y-76978628D01*
X147761905Y-76978628D02*
X147714286Y-77073866D01*
X147714286Y-77073866D02*
X147714286Y-77264342D01*
X147714286Y-77264342D02*
X147761905Y-77359580D01*
X147761905Y-77359580D02*
X147809524Y-77407200D01*
X147809524Y-77407200D02*
X147904762Y-77454819D01*
X147904762Y-77454819D02*
X148095238Y-77454819D01*
X148095238Y-77454819D02*
X148190476Y-77407200D01*
X148190476Y-77407200D02*
X148238095Y-77359580D01*
X148238095Y-77359580D02*
X148285714Y-77264342D01*
X148285714Y-77264342D02*
X148285714Y-77073866D01*
X148285714Y-77073866D02*
X148238095Y-76978628D01*
X148238095Y-76978628D02*
X148190476Y-76931009D01*
X148190476Y-76931009D02*
X148095238Y-76883390D01*
X125312670Y-49849819D02*
X125312670Y-50659342D01*
X125312670Y-50659342D02*
X125360289Y-50754580D01*
X125360289Y-50754580D02*
X125407908Y-50802200D01*
X125407908Y-50802200D02*
X125503146Y-50849819D01*
X125503146Y-50849819D02*
X125693622Y-50849819D01*
X125693622Y-50849819D02*
X125788860Y-50802200D01*
X125788860Y-50802200D02*
X125836479Y-50754580D01*
X125836479Y-50754580D02*
X125884098Y-50659342D01*
X125884098Y-50659342D02*
X125884098Y-49849819D01*
X126265051Y-49849819D02*
X126884098Y-49849819D01*
X126884098Y-49849819D02*
X126550765Y-50230771D01*
X126550765Y-50230771D02*
X126693622Y-50230771D01*
X126693622Y-50230771D02*
X126788860Y-50278390D01*
X126788860Y-50278390D02*
X126836479Y-50326009D01*
X126836479Y-50326009D02*
X126884098Y-50421247D01*
X126884098Y-50421247D02*
X126884098Y-50659342D01*
X126884098Y-50659342D02*
X126836479Y-50754580D01*
X126836479Y-50754580D02*
X126788860Y-50802200D01*
X126788860Y-50802200D02*
X126693622Y-50849819D01*
X126693622Y-50849819D02*
X126407908Y-50849819D01*
X126407908Y-50849819D02*
X126312670Y-50802200D01*
X126312670Y-50802200D02*
X126265051Y-50754580D01*
X133161905Y-105454819D02*
X133161905Y-104454819D01*
X133161905Y-104454819D02*
X133400000Y-104454819D01*
X133400000Y-104454819D02*
X133542857Y-104502438D01*
X133542857Y-104502438D02*
X133638095Y-104597676D01*
X133638095Y-104597676D02*
X133685714Y-104692914D01*
X133685714Y-104692914D02*
X133733333Y-104883390D01*
X133733333Y-104883390D02*
X133733333Y-105026247D01*
X133733333Y-105026247D02*
X133685714Y-105216723D01*
X133685714Y-105216723D02*
X133638095Y-105311961D01*
X133638095Y-105311961D02*
X133542857Y-105407200D01*
X133542857Y-105407200D02*
X133400000Y-105454819D01*
X133400000Y-105454819D02*
X133161905Y-105454819D01*
X134685714Y-105454819D02*
X134114286Y-105454819D01*
X134400000Y-105454819D02*
X134400000Y-104454819D01*
X134400000Y-104454819D02*
X134304762Y-104597676D01*
X134304762Y-104597676D02*
X134209524Y-104692914D01*
X134209524Y-104692914D02*
X134114286Y-104740533D01*
X149733333Y-77359580D02*
X149685714Y-77407200D01*
X149685714Y-77407200D02*
X149542857Y-77454819D01*
X149542857Y-77454819D02*
X149447619Y-77454819D01*
X149447619Y-77454819D02*
X149304762Y-77407200D01*
X149304762Y-77407200D02*
X149209524Y-77311961D01*
X149209524Y-77311961D02*
X149161905Y-77216723D01*
X149161905Y-77216723D02*
X149114286Y-77026247D01*
X149114286Y-77026247D02*
X149114286Y-76883390D01*
X149114286Y-76883390D02*
X149161905Y-76692914D01*
X149161905Y-76692914D02*
X149209524Y-76597676D01*
X149209524Y-76597676D02*
X149304762Y-76502438D01*
X149304762Y-76502438D02*
X149447619Y-76454819D01*
X149447619Y-76454819D02*
X149542857Y-76454819D01*
X149542857Y-76454819D02*
X149685714Y-76502438D01*
X149685714Y-76502438D02*
X149733333Y-76550057D01*
X150114286Y-76550057D02*
X150161905Y-76502438D01*
X150161905Y-76502438D02*
X150257143Y-76454819D01*
X150257143Y-76454819D02*
X150495238Y-76454819D01*
X150495238Y-76454819D02*
X150590476Y-76502438D01*
X150590476Y-76502438D02*
X150638095Y-76550057D01*
X150638095Y-76550057D02*
X150685714Y-76645295D01*
X150685714Y-76645295D02*
X150685714Y-76740533D01*
X150685714Y-76740533D02*
X150638095Y-76883390D01*
X150638095Y-76883390D02*
X150066667Y-77454819D01*
X150066667Y-77454819D02*
X150685714Y-77454819D01*
X127307142Y-64609580D02*
X127259523Y-64657200D01*
X127259523Y-64657200D02*
X127116666Y-64704819D01*
X127116666Y-64704819D02*
X127021428Y-64704819D01*
X127021428Y-64704819D02*
X126878571Y-64657200D01*
X126878571Y-64657200D02*
X126783333Y-64561961D01*
X126783333Y-64561961D02*
X126735714Y-64466723D01*
X126735714Y-64466723D02*
X126688095Y-64276247D01*
X126688095Y-64276247D02*
X126688095Y-64133390D01*
X126688095Y-64133390D02*
X126735714Y-63942914D01*
X126735714Y-63942914D02*
X126783333Y-63847676D01*
X126783333Y-63847676D02*
X126878571Y-63752438D01*
X126878571Y-63752438D02*
X127021428Y-63704819D01*
X127021428Y-63704819D02*
X127116666Y-63704819D01*
X127116666Y-63704819D02*
X127259523Y-63752438D01*
X127259523Y-63752438D02*
X127307142Y-63800057D01*
X127688095Y-63800057D02*
X127735714Y-63752438D01*
X127735714Y-63752438D02*
X127830952Y-63704819D01*
X127830952Y-63704819D02*
X128069047Y-63704819D01*
X128069047Y-63704819D02*
X128164285Y-63752438D01*
X128164285Y-63752438D02*
X128211904Y-63800057D01*
X128211904Y-63800057D02*
X128259523Y-63895295D01*
X128259523Y-63895295D02*
X128259523Y-63990533D01*
X128259523Y-63990533D02*
X128211904Y-64133390D01*
X128211904Y-64133390D02*
X127640476Y-64704819D01*
X127640476Y-64704819D02*
X128259523Y-64704819D01*
X128592857Y-63704819D02*
X129211904Y-63704819D01*
X129211904Y-63704819D02*
X128878571Y-64085771D01*
X128878571Y-64085771D02*
X129021428Y-64085771D01*
X129021428Y-64085771D02*
X129116666Y-64133390D01*
X129116666Y-64133390D02*
X129164285Y-64181009D01*
X129164285Y-64181009D02*
X129211904Y-64276247D01*
X129211904Y-64276247D02*
X129211904Y-64514342D01*
X129211904Y-64514342D02*
X129164285Y-64609580D01*
X129164285Y-64609580D02*
X129116666Y-64657200D01*
X129116666Y-64657200D02*
X129021428Y-64704819D01*
X129021428Y-64704819D02*
X128735714Y-64704819D01*
X128735714Y-64704819D02*
X128640476Y-64657200D01*
X128640476Y-64657200D02*
X128592857Y-64609580D01*
X152023809Y-69778628D02*
X152023809Y-70254819D01*
X151690476Y-69254819D02*
X152023809Y-69778628D01*
X152023809Y-69778628D02*
X152357142Y-69254819D01*
X153214285Y-70254819D02*
X152642857Y-70254819D01*
X152928571Y-70254819D02*
X152928571Y-69254819D01*
X152928571Y-69254819D02*
X152833333Y-69397676D01*
X152833333Y-69397676D02*
X152738095Y-69492914D01*
X152738095Y-69492914D02*
X152642857Y-69540533D01*
X138233333Y-71254819D02*
X137900000Y-70778628D01*
X137661905Y-71254819D02*
X137661905Y-70254819D01*
X137661905Y-70254819D02*
X138042857Y-70254819D01*
X138042857Y-70254819D02*
X138138095Y-70302438D01*
X138138095Y-70302438D02*
X138185714Y-70350057D01*
X138185714Y-70350057D02*
X138233333Y-70445295D01*
X138233333Y-70445295D02*
X138233333Y-70588152D01*
X138233333Y-70588152D02*
X138185714Y-70683390D01*
X138185714Y-70683390D02*
X138138095Y-70731009D01*
X138138095Y-70731009D02*
X138042857Y-70778628D01*
X138042857Y-70778628D02*
X137661905Y-70778628D01*
X139090476Y-70254819D02*
X138900000Y-70254819D01*
X138900000Y-70254819D02*
X138804762Y-70302438D01*
X138804762Y-70302438D02*
X138757143Y-70350057D01*
X138757143Y-70350057D02*
X138661905Y-70492914D01*
X138661905Y-70492914D02*
X138614286Y-70683390D01*
X138614286Y-70683390D02*
X138614286Y-71064342D01*
X138614286Y-71064342D02*
X138661905Y-71159580D01*
X138661905Y-71159580D02*
X138709524Y-71207200D01*
X138709524Y-71207200D02*
X138804762Y-71254819D01*
X138804762Y-71254819D02*
X138995238Y-71254819D01*
X138995238Y-71254819D02*
X139090476Y-71207200D01*
X139090476Y-71207200D02*
X139138095Y-71159580D01*
X139138095Y-71159580D02*
X139185714Y-71064342D01*
X139185714Y-71064342D02*
X139185714Y-70826247D01*
X139185714Y-70826247D02*
X139138095Y-70731009D01*
X139138095Y-70731009D02*
X139090476Y-70683390D01*
X139090476Y-70683390D02*
X138995238Y-70635771D01*
X138995238Y-70635771D02*
X138804762Y-70635771D01*
X138804762Y-70635771D02*
X138709524Y-70683390D01*
X138709524Y-70683390D02*
X138661905Y-70731009D01*
X138661905Y-70731009D02*
X138614286Y-70826247D01*
X135134580Y-94167857D02*
X135182200Y-94215476D01*
X135182200Y-94215476D02*
X135229819Y-94358333D01*
X135229819Y-94358333D02*
X135229819Y-94453571D01*
X135229819Y-94453571D02*
X135182200Y-94596428D01*
X135182200Y-94596428D02*
X135086961Y-94691666D01*
X135086961Y-94691666D02*
X134991723Y-94739285D01*
X134991723Y-94739285D02*
X134801247Y-94786904D01*
X134801247Y-94786904D02*
X134658390Y-94786904D01*
X134658390Y-94786904D02*
X134467914Y-94739285D01*
X134467914Y-94739285D02*
X134372676Y-94691666D01*
X134372676Y-94691666D02*
X134277438Y-94596428D01*
X134277438Y-94596428D02*
X134229819Y-94453571D01*
X134229819Y-94453571D02*
X134229819Y-94358333D01*
X134229819Y-94358333D02*
X134277438Y-94215476D01*
X134277438Y-94215476D02*
X134325057Y-94167857D01*
X135229819Y-93215476D02*
X135229819Y-93786904D01*
X135229819Y-93501190D02*
X134229819Y-93501190D01*
X134229819Y-93501190D02*
X134372676Y-93596428D01*
X134372676Y-93596428D02*
X134467914Y-93691666D01*
X134467914Y-93691666D02*
X134515533Y-93786904D01*
X134325057Y-92834523D02*
X134277438Y-92786904D01*
X134277438Y-92786904D02*
X134229819Y-92691666D01*
X134229819Y-92691666D02*
X134229819Y-92453571D01*
X134229819Y-92453571D02*
X134277438Y-92358333D01*
X134277438Y-92358333D02*
X134325057Y-92310714D01*
X134325057Y-92310714D02*
X134420295Y-92263095D01*
X134420295Y-92263095D02*
X134515533Y-92263095D01*
X134515533Y-92263095D02*
X134658390Y-92310714D01*
X134658390Y-92310714D02*
X135229819Y-92882142D01*
X135229819Y-92882142D02*
X135229819Y-92263095D01*
D12*
X128590476Y-62157419D02*
X128590476Y-61157419D01*
X128590476Y-61157419D02*
X128923809Y-61871704D01*
X128923809Y-61871704D02*
X129257142Y-61157419D01*
X129257142Y-61157419D02*
X129257142Y-62157419D01*
X129733333Y-62157419D02*
X129733333Y-61157419D01*
X130304761Y-62157419D02*
X129876190Y-61585990D01*
X130304761Y-61157419D02*
X129733333Y-61728847D01*
X131257142Y-62157419D02*
X130685714Y-62157419D01*
X130971428Y-62157419D02*
X130971428Y-61157419D01*
X130971428Y-61157419D02*
X130876190Y-61300276D01*
X130876190Y-61300276D02*
X130780952Y-61395514D01*
X130780952Y-61395514D02*
X130685714Y-61443133D01*
D11*
X126159580Y-77442857D02*
X126207200Y-77490476D01*
X126207200Y-77490476D02*
X126254819Y-77633333D01*
X126254819Y-77633333D02*
X126254819Y-77728571D01*
X126254819Y-77728571D02*
X126207200Y-77871428D01*
X126207200Y-77871428D02*
X126111961Y-77966666D01*
X126111961Y-77966666D02*
X126016723Y-78014285D01*
X126016723Y-78014285D02*
X125826247Y-78061904D01*
X125826247Y-78061904D02*
X125683390Y-78061904D01*
X125683390Y-78061904D02*
X125492914Y-78014285D01*
X125492914Y-78014285D02*
X125397676Y-77966666D01*
X125397676Y-77966666D02*
X125302438Y-77871428D01*
X125302438Y-77871428D02*
X125254819Y-77728571D01*
X125254819Y-77728571D02*
X125254819Y-77633333D01*
X125254819Y-77633333D02*
X125302438Y-77490476D01*
X125302438Y-77490476D02*
X125350057Y-77442857D01*
X125350057Y-77061904D02*
X125302438Y-77014285D01*
X125302438Y-77014285D02*
X125254819Y-76919047D01*
X125254819Y-76919047D02*
X125254819Y-76680952D01*
X125254819Y-76680952D02*
X125302438Y-76585714D01*
X125302438Y-76585714D02*
X125350057Y-76538095D01*
X125350057Y-76538095D02*
X125445295Y-76490476D01*
X125445295Y-76490476D02*
X125540533Y-76490476D01*
X125540533Y-76490476D02*
X125683390Y-76538095D01*
X125683390Y-76538095D02*
X126254819Y-77109523D01*
X126254819Y-77109523D02*
X126254819Y-76490476D01*
X126254819Y-75538095D02*
X126254819Y-76109523D01*
X126254819Y-75823809D02*
X125254819Y-75823809D01*
X125254819Y-75823809D02*
X125397676Y-75919047D01*
X125397676Y-75919047D02*
X125492914Y-76014285D01*
X125492914Y-76014285D02*
X125540533Y-76109523D01*
X118104819Y-105961904D02*
X118914342Y-105961904D01*
X118914342Y-105961904D02*
X119009580Y-105914285D01*
X119009580Y-105914285D02*
X119057200Y-105866666D01*
X119057200Y-105866666D02*
X119104819Y-105771428D01*
X119104819Y-105771428D02*
X119104819Y-105580952D01*
X119104819Y-105580952D02*
X119057200Y-105485714D01*
X119057200Y-105485714D02*
X119009580Y-105438095D01*
X119009580Y-105438095D02*
X118914342Y-105390476D01*
X118914342Y-105390476D02*
X118104819Y-105390476D01*
X119104819Y-104390476D02*
X119104819Y-104961904D01*
X119104819Y-104676190D02*
X118104819Y-104676190D01*
X118104819Y-104676190D02*
X118247676Y-104771428D01*
X118247676Y-104771428D02*
X118342914Y-104866666D01*
X118342914Y-104866666D02*
X118390533Y-104961904D01*
X150596905Y-54489819D02*
X150596905Y-53489819D01*
X150596905Y-53489819D02*
X150835000Y-53489819D01*
X150835000Y-53489819D02*
X150977857Y-53537438D01*
X150977857Y-53537438D02*
X151073095Y-53632676D01*
X151073095Y-53632676D02*
X151120714Y-53727914D01*
X151120714Y-53727914D02*
X151168333Y-53918390D01*
X151168333Y-53918390D02*
X151168333Y-54061247D01*
X151168333Y-54061247D02*
X151120714Y-54251723D01*
X151120714Y-54251723D02*
X151073095Y-54346961D01*
X151073095Y-54346961D02*
X150977857Y-54442200D01*
X150977857Y-54442200D02*
X150835000Y-54489819D01*
X150835000Y-54489819D02*
X150596905Y-54489819D01*
X151501667Y-53489819D02*
X152120714Y-53489819D01*
X152120714Y-53489819D02*
X151787381Y-53870771D01*
X151787381Y-53870771D02*
X151930238Y-53870771D01*
X151930238Y-53870771D02*
X152025476Y-53918390D01*
X152025476Y-53918390D02*
X152073095Y-53966009D01*
X152073095Y-53966009D02*
X152120714Y-54061247D01*
X152120714Y-54061247D02*
X152120714Y-54299342D01*
X152120714Y-54299342D02*
X152073095Y-54394580D01*
X152073095Y-54394580D02*
X152025476Y-54442200D01*
X152025476Y-54442200D02*
X151930238Y-54489819D01*
X151930238Y-54489819D02*
X151644524Y-54489819D01*
X151644524Y-54489819D02*
X151549286Y-54442200D01*
X151549286Y-54442200D02*
X151501667Y-54394580D01*
X142206905Y-54519819D02*
X142206905Y-53519819D01*
X142206905Y-53519819D02*
X142445000Y-53519819D01*
X142445000Y-53519819D02*
X142587857Y-53567438D01*
X142587857Y-53567438D02*
X142683095Y-53662676D01*
X142683095Y-53662676D02*
X142730714Y-53757914D01*
X142730714Y-53757914D02*
X142778333Y-53948390D01*
X142778333Y-53948390D02*
X142778333Y-54091247D01*
X142778333Y-54091247D02*
X142730714Y-54281723D01*
X142730714Y-54281723D02*
X142683095Y-54376961D01*
X142683095Y-54376961D02*
X142587857Y-54472200D01*
X142587857Y-54472200D02*
X142445000Y-54519819D01*
X142445000Y-54519819D02*
X142206905Y-54519819D01*
X143159286Y-53615057D02*
X143206905Y-53567438D01*
X143206905Y-53567438D02*
X143302143Y-53519819D01*
X143302143Y-53519819D02*
X143540238Y-53519819D01*
X143540238Y-53519819D02*
X143635476Y-53567438D01*
X143635476Y-53567438D02*
X143683095Y-53615057D01*
X143683095Y-53615057D02*
X143730714Y-53710295D01*
X143730714Y-53710295D02*
X143730714Y-53805533D01*
X143730714Y-53805533D02*
X143683095Y-53948390D01*
X143683095Y-53948390D02*
X143111667Y-54519819D01*
X143111667Y-54519819D02*
X143730714Y-54519819D01*
X129957142Y-95259580D02*
X129909523Y-95307200D01*
X129909523Y-95307200D02*
X129766666Y-95354819D01*
X129766666Y-95354819D02*
X129671428Y-95354819D01*
X129671428Y-95354819D02*
X129528571Y-95307200D01*
X129528571Y-95307200D02*
X129433333Y-95211961D01*
X129433333Y-95211961D02*
X129385714Y-95116723D01*
X129385714Y-95116723D02*
X129338095Y-94926247D01*
X129338095Y-94926247D02*
X129338095Y-94783390D01*
X129338095Y-94783390D02*
X129385714Y-94592914D01*
X129385714Y-94592914D02*
X129433333Y-94497676D01*
X129433333Y-94497676D02*
X129528571Y-94402438D01*
X129528571Y-94402438D02*
X129671428Y-94354819D01*
X129671428Y-94354819D02*
X129766666Y-94354819D01*
X129766666Y-94354819D02*
X129909523Y-94402438D01*
X129909523Y-94402438D02*
X129957142Y-94450057D01*
X130909523Y-95354819D02*
X130338095Y-95354819D01*
X130623809Y-95354819D02*
X130623809Y-94354819D01*
X130623809Y-94354819D02*
X130528571Y-94497676D01*
X130528571Y-94497676D02*
X130433333Y-94592914D01*
X130433333Y-94592914D02*
X130338095Y-94640533D01*
X131766666Y-94688152D02*
X131766666Y-95354819D01*
X131528571Y-94307200D02*
X131290476Y-95021485D01*
X131290476Y-95021485D02*
X131909523Y-95021485D01*
D12*
X134757142Y-42057419D02*
X134280952Y-42057419D01*
X134280952Y-42057419D02*
X134280952Y-41057419D01*
X135042857Y-42009800D02*
X135185714Y-42057419D01*
X135185714Y-42057419D02*
X135423809Y-42057419D01*
X135423809Y-42057419D02*
X135519047Y-42009800D01*
X135519047Y-42009800D02*
X135566666Y-41962180D01*
X135566666Y-41962180D02*
X135614285Y-41866942D01*
X135614285Y-41866942D02*
X135614285Y-41771704D01*
X135614285Y-41771704D02*
X135566666Y-41676466D01*
X135566666Y-41676466D02*
X135519047Y-41628847D01*
X135519047Y-41628847D02*
X135423809Y-41581228D01*
X135423809Y-41581228D02*
X135233333Y-41533609D01*
X135233333Y-41533609D02*
X135138095Y-41485990D01*
X135138095Y-41485990D02*
X135090476Y-41438371D01*
X135090476Y-41438371D02*
X135042857Y-41343133D01*
X135042857Y-41343133D02*
X135042857Y-41247895D01*
X135042857Y-41247895D02*
X135090476Y-41152657D01*
X135090476Y-41152657D02*
X135138095Y-41105038D01*
X135138095Y-41105038D02*
X135233333Y-41057419D01*
X135233333Y-41057419D02*
X135471428Y-41057419D01*
X135471428Y-41057419D02*
X135614285Y-41105038D01*
X136566666Y-42057419D02*
X135995238Y-42057419D01*
X136280952Y-42057419D02*
X136280952Y-41057419D01*
X136280952Y-41057419D02*
X136185714Y-41200276D01*
X136185714Y-41200276D02*
X136090476Y-41295514D01*
X136090476Y-41295514D02*
X135995238Y-41343133D01*
D11*
X126983333Y-70817319D02*
X126650000Y-70341128D01*
X126411905Y-70817319D02*
X126411905Y-69817319D01*
X126411905Y-69817319D02*
X126792857Y-69817319D01*
X126792857Y-69817319D02*
X126888095Y-69864938D01*
X126888095Y-69864938D02*
X126935714Y-69912557D01*
X126935714Y-69912557D02*
X126983333Y-70007795D01*
X126983333Y-70007795D02*
X126983333Y-70150652D01*
X126983333Y-70150652D02*
X126935714Y-70245890D01*
X126935714Y-70245890D02*
X126888095Y-70293509D01*
X126888095Y-70293509D02*
X126792857Y-70341128D01*
X126792857Y-70341128D02*
X126411905Y-70341128D01*
X127459524Y-70817319D02*
X127650000Y-70817319D01*
X127650000Y-70817319D02*
X127745238Y-70769700D01*
X127745238Y-70769700D02*
X127792857Y-70722080D01*
X127792857Y-70722080D02*
X127888095Y-70579223D01*
X127888095Y-70579223D02*
X127935714Y-70388747D01*
X127935714Y-70388747D02*
X127935714Y-70007795D01*
X127935714Y-70007795D02*
X127888095Y-69912557D01*
X127888095Y-69912557D02*
X127840476Y-69864938D01*
X127840476Y-69864938D02*
X127745238Y-69817319D01*
X127745238Y-69817319D02*
X127554762Y-69817319D01*
X127554762Y-69817319D02*
X127459524Y-69864938D01*
X127459524Y-69864938D02*
X127411905Y-69912557D01*
X127411905Y-69912557D02*
X127364286Y-70007795D01*
X127364286Y-70007795D02*
X127364286Y-70245890D01*
X127364286Y-70245890D02*
X127411905Y-70341128D01*
X127411905Y-70341128D02*
X127459524Y-70388747D01*
X127459524Y-70388747D02*
X127554762Y-70436366D01*
X127554762Y-70436366D02*
X127745238Y-70436366D01*
X127745238Y-70436366D02*
X127840476Y-70388747D01*
X127840476Y-70388747D02*
X127888095Y-70341128D01*
X127888095Y-70341128D02*
X127935714Y-70245890D01*
X116231717Y-61429580D02*
X116184098Y-61477200D01*
X116184098Y-61477200D02*
X116041241Y-61524819D01*
X116041241Y-61524819D02*
X115946003Y-61524819D01*
X115946003Y-61524819D02*
X115803146Y-61477200D01*
X115803146Y-61477200D02*
X115707908Y-61381961D01*
X115707908Y-61381961D02*
X115660289Y-61286723D01*
X115660289Y-61286723D02*
X115612670Y-61096247D01*
X115612670Y-61096247D02*
X115612670Y-60953390D01*
X115612670Y-60953390D02*
X115660289Y-60762914D01*
X115660289Y-60762914D02*
X115707908Y-60667676D01*
X115707908Y-60667676D02*
X115803146Y-60572438D01*
X115803146Y-60572438D02*
X115946003Y-60524819D01*
X115946003Y-60524819D02*
X116041241Y-60524819D01*
X116041241Y-60524819D02*
X116184098Y-60572438D01*
X116184098Y-60572438D02*
X116231717Y-60620057D01*
X116612670Y-60620057D02*
X116660289Y-60572438D01*
X116660289Y-60572438D02*
X116755527Y-60524819D01*
X116755527Y-60524819D02*
X116993622Y-60524819D01*
X116993622Y-60524819D02*
X117088860Y-60572438D01*
X117088860Y-60572438D02*
X117136479Y-60620057D01*
X117136479Y-60620057D02*
X117184098Y-60715295D01*
X117184098Y-60715295D02*
X117184098Y-60810533D01*
X117184098Y-60810533D02*
X117136479Y-60953390D01*
X117136479Y-60953390D02*
X116565051Y-61524819D01*
X116565051Y-61524819D02*
X117184098Y-61524819D01*
X118041241Y-60858152D02*
X118041241Y-61524819D01*
X117803146Y-60477200D02*
X117565051Y-61191485D01*
X117565051Y-61191485D02*
X118184098Y-61191485D01*
X133733333Y-109154819D02*
X133400000Y-108678628D01*
X133161905Y-109154819D02*
X133161905Y-108154819D01*
X133161905Y-108154819D02*
X133542857Y-108154819D01*
X133542857Y-108154819D02*
X133638095Y-108202438D01*
X133638095Y-108202438D02*
X133685714Y-108250057D01*
X133685714Y-108250057D02*
X133733333Y-108345295D01*
X133733333Y-108345295D02*
X133733333Y-108488152D01*
X133733333Y-108488152D02*
X133685714Y-108583390D01*
X133685714Y-108583390D02*
X133638095Y-108631009D01*
X133638095Y-108631009D02*
X133542857Y-108678628D01*
X133542857Y-108678628D02*
X133161905Y-108678628D01*
X134685714Y-109154819D02*
X134114286Y-109154819D01*
X134400000Y-109154819D02*
X134400000Y-108154819D01*
X134400000Y-108154819D02*
X134304762Y-108297676D01*
X134304762Y-108297676D02*
X134209524Y-108392914D01*
X134209524Y-108392914D02*
X134114286Y-108440533D01*
D12*
X123755186Y-62457419D02*
X123421853Y-61981228D01*
X123183758Y-62457419D02*
X123183758Y-61457419D01*
X123183758Y-61457419D02*
X123564710Y-61457419D01*
X123564710Y-61457419D02*
X123659948Y-61505038D01*
X123659948Y-61505038D02*
X123707567Y-61552657D01*
X123707567Y-61552657D02*
X123755186Y-61647895D01*
X123755186Y-61647895D02*
X123755186Y-61790752D01*
X123755186Y-61790752D02*
X123707567Y-61885990D01*
X123707567Y-61885990D02*
X123659948Y-61933609D01*
X123659948Y-61933609D02*
X123564710Y-61981228D01*
X123564710Y-61981228D02*
X123183758Y-61981228D01*
X124040901Y-61457419D02*
X124374234Y-62457419D01*
X124374234Y-62457419D02*
X124707567Y-61457419D01*
X125564710Y-62457419D02*
X124993282Y-62457419D01*
X125278996Y-62457419D02*
X125278996Y-61457419D01*
X125278996Y-61457419D02*
X125183758Y-61600276D01*
X125183758Y-61600276D02*
X125088520Y-61695514D01*
X125088520Y-61695514D02*
X124993282Y-61743133D01*
D11*
X129233333Y-97059580D02*
X129185714Y-97107200D01*
X129185714Y-97107200D02*
X129042857Y-97154819D01*
X129042857Y-97154819D02*
X128947619Y-97154819D01*
X128947619Y-97154819D02*
X128804762Y-97107200D01*
X128804762Y-97107200D02*
X128709524Y-97011961D01*
X128709524Y-97011961D02*
X128661905Y-96916723D01*
X128661905Y-96916723D02*
X128614286Y-96726247D01*
X128614286Y-96726247D02*
X128614286Y-96583390D01*
X128614286Y-96583390D02*
X128661905Y-96392914D01*
X128661905Y-96392914D02*
X128709524Y-96297676D01*
X128709524Y-96297676D02*
X128804762Y-96202438D01*
X128804762Y-96202438D02*
X128947619Y-96154819D01*
X128947619Y-96154819D02*
X129042857Y-96154819D01*
X129042857Y-96154819D02*
X129185714Y-96202438D01*
X129185714Y-96202438D02*
X129233333Y-96250057D01*
X130090476Y-96488152D02*
X130090476Y-97154819D01*
X129852381Y-96107200D02*
X129614286Y-96821485D01*
X129614286Y-96821485D02*
X130233333Y-96821485D01*
X132984580Y-84391666D02*
X133032200Y-84439285D01*
X133032200Y-84439285D02*
X133079819Y-84582142D01*
X133079819Y-84582142D02*
X133079819Y-84677380D01*
X133079819Y-84677380D02*
X133032200Y-84820237D01*
X133032200Y-84820237D02*
X132936961Y-84915475D01*
X132936961Y-84915475D02*
X132841723Y-84963094D01*
X132841723Y-84963094D02*
X132651247Y-85010713D01*
X132651247Y-85010713D02*
X132508390Y-85010713D01*
X132508390Y-85010713D02*
X132317914Y-84963094D01*
X132317914Y-84963094D02*
X132222676Y-84915475D01*
X132222676Y-84915475D02*
X132127438Y-84820237D01*
X132127438Y-84820237D02*
X132079819Y-84677380D01*
X132079819Y-84677380D02*
X132079819Y-84582142D01*
X132079819Y-84582142D02*
X132127438Y-84439285D01*
X132127438Y-84439285D02*
X132175057Y-84391666D01*
X132079819Y-83486904D02*
X132079819Y-83963094D01*
X132079819Y-83963094D02*
X132556009Y-84010713D01*
X132556009Y-84010713D02*
X132508390Y-83963094D01*
X132508390Y-83963094D02*
X132460771Y-83867856D01*
X132460771Y-83867856D02*
X132460771Y-83629761D01*
X132460771Y-83629761D02*
X132508390Y-83534523D01*
X132508390Y-83534523D02*
X132556009Y-83486904D01*
X132556009Y-83486904D02*
X132651247Y-83439285D01*
X132651247Y-83439285D02*
X132889342Y-83439285D01*
X132889342Y-83439285D02*
X132984580Y-83486904D01*
X132984580Y-83486904D02*
X133032200Y-83534523D01*
X133032200Y-83534523D02*
X133079819Y-83629761D01*
X133079819Y-83629761D02*
X133079819Y-83867856D01*
X133079819Y-83867856D02*
X133032200Y-83963094D01*
X133032200Y-83963094D02*
X132984580Y-84010713D01*
X129148095Y-68954819D02*
X129148095Y-69764342D01*
X129148095Y-69764342D02*
X129195714Y-69859580D01*
X129195714Y-69859580D02*
X129243333Y-69907200D01*
X129243333Y-69907200D02*
X129338571Y-69954819D01*
X129338571Y-69954819D02*
X129529047Y-69954819D01*
X129529047Y-69954819D02*
X129624285Y-69907200D01*
X129624285Y-69907200D02*
X129671904Y-69859580D01*
X129671904Y-69859580D02*
X129719523Y-69764342D01*
X129719523Y-69764342D02*
X129719523Y-68954819D01*
X130671904Y-68954819D02*
X130195714Y-68954819D01*
X130195714Y-68954819D02*
X130148095Y-69431009D01*
X130148095Y-69431009D02*
X130195714Y-69383390D01*
X130195714Y-69383390D02*
X130290952Y-69335771D01*
X130290952Y-69335771D02*
X130529047Y-69335771D01*
X130529047Y-69335771D02*
X130624285Y-69383390D01*
X130624285Y-69383390D02*
X130671904Y-69431009D01*
X130671904Y-69431009D02*
X130719523Y-69526247D01*
X130719523Y-69526247D02*
X130719523Y-69764342D01*
X130719523Y-69764342D02*
X130671904Y-69859580D01*
X130671904Y-69859580D02*
X130624285Y-69907200D01*
X130624285Y-69907200D02*
X130529047Y-69954819D01*
X130529047Y-69954819D02*
X130290952Y-69954819D01*
X130290952Y-69954819D02*
X130195714Y-69907200D01*
X130195714Y-69907200D02*
X130148095Y-69859580D01*
X156166667Y-76507200D02*
X156309524Y-76554819D01*
X156309524Y-76554819D02*
X156547619Y-76554819D01*
X156547619Y-76554819D02*
X156642857Y-76507200D01*
X156642857Y-76507200D02*
X156690476Y-76459580D01*
X156690476Y-76459580D02*
X156738095Y-76364342D01*
X156738095Y-76364342D02*
X156738095Y-76269104D01*
X156738095Y-76269104D02*
X156690476Y-76173866D01*
X156690476Y-76173866D02*
X156642857Y-76126247D01*
X156642857Y-76126247D02*
X156547619Y-76078628D01*
X156547619Y-76078628D02*
X156357143Y-76031009D01*
X156357143Y-76031009D02*
X156261905Y-75983390D01*
X156261905Y-75983390D02*
X156214286Y-75935771D01*
X156214286Y-75935771D02*
X156166667Y-75840533D01*
X156166667Y-75840533D02*
X156166667Y-75745295D01*
X156166667Y-75745295D02*
X156214286Y-75650057D01*
X156214286Y-75650057D02*
X156261905Y-75602438D01*
X156261905Y-75602438D02*
X156357143Y-75554819D01*
X156357143Y-75554819D02*
X156595238Y-75554819D01*
X156595238Y-75554819D02*
X156738095Y-75602438D01*
X157071429Y-75554819D02*
X157309524Y-76554819D01*
X157309524Y-76554819D02*
X157500000Y-75840533D01*
X157500000Y-75840533D02*
X157690476Y-76554819D01*
X157690476Y-76554819D02*
X157928572Y-75554819D01*
X158214286Y-75554819D02*
X158833333Y-75554819D01*
X158833333Y-75554819D02*
X158500000Y-75935771D01*
X158500000Y-75935771D02*
X158642857Y-75935771D01*
X158642857Y-75935771D02*
X158738095Y-75983390D01*
X158738095Y-75983390D02*
X158785714Y-76031009D01*
X158785714Y-76031009D02*
X158833333Y-76126247D01*
X158833333Y-76126247D02*
X158833333Y-76364342D01*
X158833333Y-76364342D02*
X158785714Y-76459580D01*
X158785714Y-76459580D02*
X158738095Y-76507200D01*
X158738095Y-76507200D02*
X158642857Y-76554819D01*
X158642857Y-76554819D02*
X158357143Y-76554819D01*
X158357143Y-76554819D02*
X158261905Y-76507200D01*
X158261905Y-76507200D02*
X158214286Y-76459580D01*
X151534580Y-84691666D02*
X151582200Y-84739285D01*
X151582200Y-84739285D02*
X151629819Y-84882142D01*
X151629819Y-84882142D02*
X151629819Y-84977380D01*
X151629819Y-84977380D02*
X151582200Y-85120237D01*
X151582200Y-85120237D02*
X151486961Y-85215475D01*
X151486961Y-85215475D02*
X151391723Y-85263094D01*
X151391723Y-85263094D02*
X151201247Y-85310713D01*
X151201247Y-85310713D02*
X151058390Y-85310713D01*
X151058390Y-85310713D02*
X150867914Y-85263094D01*
X150867914Y-85263094D02*
X150772676Y-85215475D01*
X150772676Y-85215475D02*
X150677438Y-85120237D01*
X150677438Y-85120237D02*
X150629819Y-84977380D01*
X150629819Y-84977380D02*
X150629819Y-84882142D01*
X150629819Y-84882142D02*
X150677438Y-84739285D01*
X150677438Y-84739285D02*
X150725057Y-84691666D01*
X150629819Y-84358332D02*
X150629819Y-83691666D01*
X150629819Y-83691666D02*
X151629819Y-84120237D01*
X115156717Y-57109580D02*
X115109098Y-57157200D01*
X115109098Y-57157200D02*
X114966241Y-57204819D01*
X114966241Y-57204819D02*
X114871003Y-57204819D01*
X114871003Y-57204819D02*
X114728146Y-57157200D01*
X114728146Y-57157200D02*
X114632908Y-57061961D01*
X114632908Y-57061961D02*
X114585289Y-56966723D01*
X114585289Y-56966723D02*
X114537670Y-56776247D01*
X114537670Y-56776247D02*
X114537670Y-56633390D01*
X114537670Y-56633390D02*
X114585289Y-56442914D01*
X114585289Y-56442914D02*
X114632908Y-56347676D01*
X114632908Y-56347676D02*
X114728146Y-56252438D01*
X114728146Y-56252438D02*
X114871003Y-56204819D01*
X114871003Y-56204819D02*
X114966241Y-56204819D01*
X114966241Y-56204819D02*
X115109098Y-56252438D01*
X115109098Y-56252438D02*
X115156717Y-56300057D01*
X116109098Y-57204819D02*
X115537670Y-57204819D01*
X115823384Y-57204819D02*
X115823384Y-56204819D01*
X115823384Y-56204819D02*
X115728146Y-56347676D01*
X115728146Y-56347676D02*
X115632908Y-56442914D01*
X115632908Y-56442914D02*
X115537670Y-56490533D01*
X116966241Y-56204819D02*
X116775765Y-56204819D01*
X116775765Y-56204819D02*
X116680527Y-56252438D01*
X116680527Y-56252438D02*
X116632908Y-56300057D01*
X116632908Y-56300057D02*
X116537670Y-56442914D01*
X116537670Y-56442914D02*
X116490051Y-56633390D01*
X116490051Y-56633390D02*
X116490051Y-57014342D01*
X116490051Y-57014342D02*
X116537670Y-57109580D01*
X116537670Y-57109580D02*
X116585289Y-57157200D01*
X116585289Y-57157200D02*
X116680527Y-57204819D01*
X116680527Y-57204819D02*
X116871003Y-57204819D01*
X116871003Y-57204819D02*
X116966241Y-57157200D01*
X116966241Y-57157200D02*
X117013860Y-57109580D01*
X117013860Y-57109580D02*
X117061479Y-57014342D01*
X117061479Y-57014342D02*
X117061479Y-56776247D01*
X117061479Y-56776247D02*
X117013860Y-56681009D01*
X117013860Y-56681009D02*
X116966241Y-56633390D01*
X116966241Y-56633390D02*
X116871003Y-56585771D01*
X116871003Y-56585771D02*
X116680527Y-56585771D01*
X116680527Y-56585771D02*
X116585289Y-56633390D01*
X116585289Y-56633390D02*
X116537670Y-56681009D01*
X116537670Y-56681009D02*
X116490051Y-56776247D01*
X111413758Y-48154819D02*
X111080425Y-47678628D01*
X110842330Y-48154819D02*
X110842330Y-47154819D01*
X110842330Y-47154819D02*
X111223282Y-47154819D01*
X111223282Y-47154819D02*
X111318520Y-47202438D01*
X111318520Y-47202438D02*
X111366139Y-47250057D01*
X111366139Y-47250057D02*
X111413758Y-47345295D01*
X111413758Y-47345295D02*
X111413758Y-47488152D01*
X111413758Y-47488152D02*
X111366139Y-47583390D01*
X111366139Y-47583390D02*
X111318520Y-47631009D01*
X111318520Y-47631009D02*
X111223282Y-47678628D01*
X111223282Y-47678628D02*
X110842330Y-47678628D01*
X112318520Y-47154819D02*
X111842330Y-47154819D01*
X111842330Y-47154819D02*
X111794711Y-47631009D01*
X111794711Y-47631009D02*
X111842330Y-47583390D01*
X111842330Y-47583390D02*
X111937568Y-47535771D01*
X111937568Y-47535771D02*
X112175663Y-47535771D01*
X112175663Y-47535771D02*
X112270901Y-47583390D01*
X112270901Y-47583390D02*
X112318520Y-47631009D01*
X112318520Y-47631009D02*
X112366139Y-47726247D01*
X112366139Y-47726247D02*
X112366139Y-47964342D01*
X112366139Y-47964342D02*
X112318520Y-48059580D01*
X112318520Y-48059580D02*
X112270901Y-48107200D01*
X112270901Y-48107200D02*
X112175663Y-48154819D01*
X112175663Y-48154819D02*
X111937568Y-48154819D01*
X111937568Y-48154819D02*
X111842330Y-48107200D01*
X111842330Y-48107200D02*
X111794711Y-48059580D01*
X133882142Y-78384580D02*
X133834523Y-78432200D01*
X133834523Y-78432200D02*
X133691666Y-78479819D01*
X133691666Y-78479819D02*
X133596428Y-78479819D01*
X133596428Y-78479819D02*
X133453571Y-78432200D01*
X133453571Y-78432200D02*
X133358333Y-78336961D01*
X133358333Y-78336961D02*
X133310714Y-78241723D01*
X133310714Y-78241723D02*
X133263095Y-78051247D01*
X133263095Y-78051247D02*
X133263095Y-77908390D01*
X133263095Y-77908390D02*
X133310714Y-77717914D01*
X133310714Y-77717914D02*
X133358333Y-77622676D01*
X133358333Y-77622676D02*
X133453571Y-77527438D01*
X133453571Y-77527438D02*
X133596428Y-77479819D01*
X133596428Y-77479819D02*
X133691666Y-77479819D01*
X133691666Y-77479819D02*
X133834523Y-77527438D01*
X133834523Y-77527438D02*
X133882142Y-77575057D01*
X134263095Y-77575057D02*
X134310714Y-77527438D01*
X134310714Y-77527438D02*
X134405952Y-77479819D01*
X134405952Y-77479819D02*
X134644047Y-77479819D01*
X134644047Y-77479819D02*
X134739285Y-77527438D01*
X134739285Y-77527438D02*
X134786904Y-77575057D01*
X134786904Y-77575057D02*
X134834523Y-77670295D01*
X134834523Y-77670295D02*
X134834523Y-77765533D01*
X134834523Y-77765533D02*
X134786904Y-77908390D01*
X134786904Y-77908390D02*
X134215476Y-78479819D01*
X134215476Y-78479819D02*
X134834523Y-78479819D01*
X135215476Y-77575057D02*
X135263095Y-77527438D01*
X135263095Y-77527438D02*
X135358333Y-77479819D01*
X135358333Y-77479819D02*
X135596428Y-77479819D01*
X135596428Y-77479819D02*
X135691666Y-77527438D01*
X135691666Y-77527438D02*
X135739285Y-77575057D01*
X135739285Y-77575057D02*
X135786904Y-77670295D01*
X135786904Y-77670295D02*
X135786904Y-77765533D01*
X135786904Y-77765533D02*
X135739285Y-77908390D01*
X135739285Y-77908390D02*
X135167857Y-78479819D01*
X135167857Y-78479819D02*
X135786904Y-78479819D01*
X124282142Y-66584580D02*
X124234523Y-66632200D01*
X124234523Y-66632200D02*
X124091666Y-66679819D01*
X124091666Y-66679819D02*
X123996428Y-66679819D01*
X123996428Y-66679819D02*
X123853571Y-66632200D01*
X123853571Y-66632200D02*
X123758333Y-66536961D01*
X123758333Y-66536961D02*
X123710714Y-66441723D01*
X123710714Y-66441723D02*
X123663095Y-66251247D01*
X123663095Y-66251247D02*
X123663095Y-66108390D01*
X123663095Y-66108390D02*
X123710714Y-65917914D01*
X123710714Y-65917914D02*
X123758333Y-65822676D01*
X123758333Y-65822676D02*
X123853571Y-65727438D01*
X123853571Y-65727438D02*
X123996428Y-65679819D01*
X123996428Y-65679819D02*
X124091666Y-65679819D01*
X124091666Y-65679819D02*
X124234523Y-65727438D01*
X124234523Y-65727438D02*
X124282142Y-65775057D01*
X125234523Y-66679819D02*
X124663095Y-66679819D01*
X124948809Y-66679819D02*
X124948809Y-65679819D01*
X124948809Y-65679819D02*
X124853571Y-65822676D01*
X124853571Y-65822676D02*
X124758333Y-65917914D01*
X124758333Y-65917914D02*
X124663095Y-65965533D01*
X125710714Y-66679819D02*
X125901190Y-66679819D01*
X125901190Y-66679819D02*
X125996428Y-66632200D01*
X125996428Y-66632200D02*
X126044047Y-66584580D01*
X126044047Y-66584580D02*
X126139285Y-66441723D01*
X126139285Y-66441723D02*
X126186904Y-66251247D01*
X126186904Y-66251247D02*
X126186904Y-65870295D01*
X126186904Y-65870295D02*
X126139285Y-65775057D01*
X126139285Y-65775057D02*
X126091666Y-65727438D01*
X126091666Y-65727438D02*
X125996428Y-65679819D01*
X125996428Y-65679819D02*
X125805952Y-65679819D01*
X125805952Y-65679819D02*
X125710714Y-65727438D01*
X125710714Y-65727438D02*
X125663095Y-65775057D01*
X125663095Y-65775057D02*
X125615476Y-65870295D01*
X125615476Y-65870295D02*
X125615476Y-66108390D01*
X125615476Y-66108390D02*
X125663095Y-66203628D01*
X125663095Y-66203628D02*
X125710714Y-66251247D01*
X125710714Y-66251247D02*
X125805952Y-66298866D01*
X125805952Y-66298866D02*
X125996428Y-66298866D01*
X125996428Y-66298866D02*
X126091666Y-66251247D01*
X126091666Y-66251247D02*
X126139285Y-66203628D01*
X126139285Y-66203628D02*
X126186904Y-66108390D01*
X114957142Y-46959580D02*
X114909523Y-47007200D01*
X114909523Y-47007200D02*
X114766666Y-47054819D01*
X114766666Y-47054819D02*
X114671428Y-47054819D01*
X114671428Y-47054819D02*
X114528571Y-47007200D01*
X114528571Y-47007200D02*
X114433333Y-46911961D01*
X114433333Y-46911961D02*
X114385714Y-46816723D01*
X114385714Y-46816723D02*
X114338095Y-46626247D01*
X114338095Y-46626247D02*
X114338095Y-46483390D01*
X114338095Y-46483390D02*
X114385714Y-46292914D01*
X114385714Y-46292914D02*
X114433333Y-46197676D01*
X114433333Y-46197676D02*
X114528571Y-46102438D01*
X114528571Y-46102438D02*
X114671428Y-46054819D01*
X114671428Y-46054819D02*
X114766666Y-46054819D01*
X114766666Y-46054819D02*
X114909523Y-46102438D01*
X114909523Y-46102438D02*
X114957142Y-46150057D01*
X115909523Y-47054819D02*
X115338095Y-47054819D01*
X115623809Y-47054819D02*
X115623809Y-46054819D01*
X115623809Y-46054819D02*
X115528571Y-46197676D01*
X115528571Y-46197676D02*
X115433333Y-46292914D01*
X115433333Y-46292914D02*
X115338095Y-46340533D01*
X116242857Y-46054819D02*
X116909523Y-46054819D01*
X116909523Y-46054819D02*
X116480952Y-47054819D01*
X123729580Y-73542857D02*
X123777200Y-73590476D01*
X123777200Y-73590476D02*
X123824819Y-73733333D01*
X123824819Y-73733333D02*
X123824819Y-73828571D01*
X123824819Y-73828571D02*
X123777200Y-73971428D01*
X123777200Y-73971428D02*
X123681961Y-74066666D01*
X123681961Y-74066666D02*
X123586723Y-74114285D01*
X123586723Y-74114285D02*
X123396247Y-74161904D01*
X123396247Y-74161904D02*
X123253390Y-74161904D01*
X123253390Y-74161904D02*
X123062914Y-74114285D01*
X123062914Y-74114285D02*
X122967676Y-74066666D01*
X122967676Y-74066666D02*
X122872438Y-73971428D01*
X122872438Y-73971428D02*
X122824819Y-73828571D01*
X122824819Y-73828571D02*
X122824819Y-73733333D01*
X122824819Y-73733333D02*
X122872438Y-73590476D01*
X122872438Y-73590476D02*
X122920057Y-73542857D01*
X122920057Y-73161904D02*
X122872438Y-73114285D01*
X122872438Y-73114285D02*
X122824819Y-73019047D01*
X122824819Y-73019047D02*
X122824819Y-72780952D01*
X122824819Y-72780952D02*
X122872438Y-72685714D01*
X122872438Y-72685714D02*
X122920057Y-72638095D01*
X122920057Y-72638095D02*
X123015295Y-72590476D01*
X123015295Y-72590476D02*
X123110533Y-72590476D01*
X123110533Y-72590476D02*
X123253390Y-72638095D01*
X123253390Y-72638095D02*
X123824819Y-73209523D01*
X123824819Y-73209523D02*
X123824819Y-72590476D01*
X122824819Y-71971428D02*
X122824819Y-71876190D01*
X122824819Y-71876190D02*
X122872438Y-71780952D01*
X122872438Y-71780952D02*
X122920057Y-71733333D01*
X122920057Y-71733333D02*
X123015295Y-71685714D01*
X123015295Y-71685714D02*
X123205771Y-71638095D01*
X123205771Y-71638095D02*
X123443866Y-71638095D01*
X123443866Y-71638095D02*
X123634342Y-71685714D01*
X123634342Y-71685714D02*
X123729580Y-71733333D01*
X123729580Y-71733333D02*
X123777200Y-71780952D01*
X123777200Y-71780952D02*
X123824819Y-71876190D01*
X123824819Y-71876190D02*
X123824819Y-71971428D01*
X123824819Y-71971428D02*
X123777200Y-72066666D01*
X123777200Y-72066666D02*
X123729580Y-72114285D01*
X123729580Y-72114285D02*
X123634342Y-72161904D01*
X123634342Y-72161904D02*
X123443866Y-72209523D01*
X123443866Y-72209523D02*
X123205771Y-72209523D01*
X123205771Y-72209523D02*
X123015295Y-72161904D01*
X123015295Y-72161904D02*
X122920057Y-72114285D01*
X122920057Y-72114285D02*
X122872438Y-72066666D01*
X122872438Y-72066666D02*
X122824819Y-71971428D01*
X133559580Y-94192857D02*
X133607200Y-94240476D01*
X133607200Y-94240476D02*
X133654819Y-94383333D01*
X133654819Y-94383333D02*
X133654819Y-94478571D01*
X133654819Y-94478571D02*
X133607200Y-94621428D01*
X133607200Y-94621428D02*
X133511961Y-94716666D01*
X133511961Y-94716666D02*
X133416723Y-94764285D01*
X133416723Y-94764285D02*
X133226247Y-94811904D01*
X133226247Y-94811904D02*
X133083390Y-94811904D01*
X133083390Y-94811904D02*
X132892914Y-94764285D01*
X132892914Y-94764285D02*
X132797676Y-94716666D01*
X132797676Y-94716666D02*
X132702438Y-94621428D01*
X132702438Y-94621428D02*
X132654819Y-94478571D01*
X132654819Y-94478571D02*
X132654819Y-94383333D01*
X132654819Y-94383333D02*
X132702438Y-94240476D01*
X132702438Y-94240476D02*
X132750057Y-94192857D01*
X133654819Y-93240476D02*
X133654819Y-93811904D01*
X133654819Y-93526190D02*
X132654819Y-93526190D01*
X132654819Y-93526190D02*
X132797676Y-93621428D01*
X132797676Y-93621428D02*
X132892914Y-93716666D01*
X132892914Y-93716666D02*
X132940533Y-93811904D01*
X132654819Y-92907142D02*
X132654819Y-92288095D01*
X132654819Y-92288095D02*
X133035771Y-92621428D01*
X133035771Y-92621428D02*
X133035771Y-92478571D01*
X133035771Y-92478571D02*
X133083390Y-92383333D01*
X133083390Y-92383333D02*
X133131009Y-92335714D01*
X133131009Y-92335714D02*
X133226247Y-92288095D01*
X133226247Y-92288095D02*
X133464342Y-92288095D01*
X133464342Y-92288095D02*
X133559580Y-92335714D01*
X133559580Y-92335714D02*
X133607200Y-92383333D01*
X133607200Y-92383333D02*
X133654819Y-92478571D01*
X133654819Y-92478571D02*
X133654819Y-92764285D01*
X133654819Y-92764285D02*
X133607200Y-92859523D01*
X133607200Y-92859523D02*
X133559580Y-92907142D01*
X146413095Y-90579819D02*
X146413095Y-91389342D01*
X146413095Y-91389342D02*
X146460714Y-91484580D01*
X146460714Y-91484580D02*
X146508333Y-91532200D01*
X146508333Y-91532200D02*
X146603571Y-91579819D01*
X146603571Y-91579819D02*
X146794047Y-91579819D01*
X146794047Y-91579819D02*
X146889285Y-91532200D01*
X146889285Y-91532200D02*
X146936904Y-91484580D01*
X146936904Y-91484580D02*
X146984523Y-91389342D01*
X146984523Y-91389342D02*
X146984523Y-90579819D01*
X147413095Y-90675057D02*
X147460714Y-90627438D01*
X147460714Y-90627438D02*
X147555952Y-90579819D01*
X147555952Y-90579819D02*
X147794047Y-90579819D01*
X147794047Y-90579819D02*
X147889285Y-90627438D01*
X147889285Y-90627438D02*
X147936904Y-90675057D01*
X147936904Y-90675057D02*
X147984523Y-90770295D01*
X147984523Y-90770295D02*
X147984523Y-90865533D01*
X147984523Y-90865533D02*
X147936904Y-91008390D01*
X147936904Y-91008390D02*
X147365476Y-91579819D01*
X147365476Y-91579819D02*
X147984523Y-91579819D01*
D12*
X144709800Y-60233332D02*
X144757419Y-60090475D01*
X144757419Y-60090475D02*
X144757419Y-59852380D01*
X144757419Y-59852380D02*
X144709800Y-59757142D01*
X144709800Y-59757142D02*
X144662180Y-59709523D01*
X144662180Y-59709523D02*
X144566942Y-59661904D01*
X144566942Y-59661904D02*
X144471704Y-59661904D01*
X144471704Y-59661904D02*
X144376466Y-59709523D01*
X144376466Y-59709523D02*
X144328847Y-59757142D01*
X144328847Y-59757142D02*
X144281228Y-59852380D01*
X144281228Y-59852380D02*
X144233609Y-60042856D01*
X144233609Y-60042856D02*
X144185990Y-60138094D01*
X144185990Y-60138094D02*
X144138371Y-60185713D01*
X144138371Y-60185713D02*
X144043133Y-60233332D01*
X144043133Y-60233332D02*
X143947895Y-60233332D01*
X143947895Y-60233332D02*
X143852657Y-60185713D01*
X143852657Y-60185713D02*
X143805038Y-60138094D01*
X143805038Y-60138094D02*
X143757419Y-60042856D01*
X143757419Y-60042856D02*
X143757419Y-59804761D01*
X143757419Y-59804761D02*
X143805038Y-59661904D01*
X143757419Y-59328570D02*
X144757419Y-59090475D01*
X144757419Y-59090475D02*
X144043133Y-58899999D01*
X144043133Y-58899999D02*
X144757419Y-58709523D01*
X144757419Y-58709523D02*
X143757419Y-58471428D01*
X144757419Y-57566666D02*
X144757419Y-58138094D01*
X144757419Y-57852380D02*
X143757419Y-57852380D01*
X143757419Y-57852380D02*
X143900276Y-57947618D01*
X143900276Y-57947618D02*
X143995514Y-58042856D01*
X143995514Y-58042856D02*
X144043133Y-58138094D01*
D11*
X147765833Y-66929580D02*
X147718214Y-66977200D01*
X147718214Y-66977200D02*
X147575357Y-67024819D01*
X147575357Y-67024819D02*
X147480119Y-67024819D01*
X147480119Y-67024819D02*
X147337262Y-66977200D01*
X147337262Y-66977200D02*
X147242024Y-66881961D01*
X147242024Y-66881961D02*
X147194405Y-66786723D01*
X147194405Y-66786723D02*
X147146786Y-66596247D01*
X147146786Y-66596247D02*
X147146786Y-66453390D01*
X147146786Y-66453390D02*
X147194405Y-66262914D01*
X147194405Y-66262914D02*
X147242024Y-66167676D01*
X147242024Y-66167676D02*
X147337262Y-66072438D01*
X147337262Y-66072438D02*
X147480119Y-66024819D01*
X147480119Y-66024819D02*
X147575357Y-66024819D01*
X147575357Y-66024819D02*
X147718214Y-66072438D01*
X147718214Y-66072438D02*
X147765833Y-66120057D01*
X148099167Y-66024819D02*
X148718214Y-66024819D01*
X148718214Y-66024819D02*
X148384881Y-66405771D01*
X148384881Y-66405771D02*
X148527738Y-66405771D01*
X148527738Y-66405771D02*
X148622976Y-66453390D01*
X148622976Y-66453390D02*
X148670595Y-66501009D01*
X148670595Y-66501009D02*
X148718214Y-66596247D01*
X148718214Y-66596247D02*
X148718214Y-66834342D01*
X148718214Y-66834342D02*
X148670595Y-66929580D01*
X148670595Y-66929580D02*
X148622976Y-66977200D01*
X148622976Y-66977200D02*
X148527738Y-67024819D01*
X148527738Y-67024819D02*
X148242024Y-67024819D01*
X148242024Y-67024819D02*
X148146786Y-66977200D01*
X148146786Y-66977200D02*
X148099167Y-66929580D01*
X128081009Y-91183333D02*
X128081009Y-91516666D01*
X128604819Y-91516666D02*
X127604819Y-91516666D01*
X127604819Y-91516666D02*
X127604819Y-91040476D01*
X128081009Y-90326190D02*
X128128628Y-90183333D01*
X128128628Y-90183333D02*
X128176247Y-90135714D01*
X128176247Y-90135714D02*
X128271485Y-90088095D01*
X128271485Y-90088095D02*
X128414342Y-90088095D01*
X128414342Y-90088095D02*
X128509580Y-90135714D01*
X128509580Y-90135714D02*
X128557200Y-90183333D01*
X128557200Y-90183333D02*
X128604819Y-90278571D01*
X128604819Y-90278571D02*
X128604819Y-90659523D01*
X128604819Y-90659523D02*
X127604819Y-90659523D01*
X127604819Y-90659523D02*
X127604819Y-90326190D01*
X127604819Y-90326190D02*
X127652438Y-90230952D01*
X127652438Y-90230952D02*
X127700057Y-90183333D01*
X127700057Y-90183333D02*
X127795295Y-90135714D01*
X127795295Y-90135714D02*
X127890533Y-90135714D01*
X127890533Y-90135714D02*
X127985771Y-90183333D01*
X127985771Y-90183333D02*
X128033390Y-90230952D01*
X128033390Y-90230952D02*
X128081009Y-90326190D01*
X128081009Y-90326190D02*
X128081009Y-90659523D01*
X128604819Y-89135714D02*
X128604819Y-89707142D01*
X128604819Y-89421428D02*
X127604819Y-89421428D01*
X127604819Y-89421428D02*
X127747676Y-89516666D01*
X127747676Y-89516666D02*
X127842914Y-89611904D01*
X127842914Y-89611904D02*
X127890533Y-89707142D01*
X135057142Y-72729819D02*
X134723809Y-72253628D01*
X134485714Y-72729819D02*
X134485714Y-71729819D01*
X134485714Y-71729819D02*
X134866666Y-71729819D01*
X134866666Y-71729819D02*
X134961904Y-71777438D01*
X134961904Y-71777438D02*
X135009523Y-71825057D01*
X135009523Y-71825057D02*
X135057142Y-71920295D01*
X135057142Y-71920295D02*
X135057142Y-72063152D01*
X135057142Y-72063152D02*
X135009523Y-72158390D01*
X135009523Y-72158390D02*
X134961904Y-72206009D01*
X134961904Y-72206009D02*
X134866666Y-72253628D01*
X134866666Y-72253628D02*
X134485714Y-72253628D01*
X136009523Y-72729819D02*
X135438095Y-72729819D01*
X135723809Y-72729819D02*
X135723809Y-71729819D01*
X135723809Y-71729819D02*
X135628571Y-71872676D01*
X135628571Y-71872676D02*
X135533333Y-71967914D01*
X135533333Y-71967914D02*
X135438095Y-72015533D01*
X136961904Y-72729819D02*
X136390476Y-72729819D01*
X136676190Y-72729819D02*
X136676190Y-71729819D01*
X136676190Y-71729819D02*
X136580952Y-71872676D01*
X136580952Y-71872676D02*
X136485714Y-71967914D01*
X136485714Y-71967914D02*
X136390476Y-72015533D01*
X129133333Y-107959580D02*
X129085714Y-108007200D01*
X129085714Y-108007200D02*
X128942857Y-108054819D01*
X128942857Y-108054819D02*
X128847619Y-108054819D01*
X128847619Y-108054819D02*
X128704762Y-108007200D01*
X128704762Y-108007200D02*
X128609524Y-107911961D01*
X128609524Y-107911961D02*
X128561905Y-107816723D01*
X128561905Y-107816723D02*
X128514286Y-107626247D01*
X128514286Y-107626247D02*
X128514286Y-107483390D01*
X128514286Y-107483390D02*
X128561905Y-107292914D01*
X128561905Y-107292914D02*
X128609524Y-107197676D01*
X128609524Y-107197676D02*
X128704762Y-107102438D01*
X128704762Y-107102438D02*
X128847619Y-107054819D01*
X128847619Y-107054819D02*
X128942857Y-107054819D01*
X128942857Y-107054819D02*
X129085714Y-107102438D01*
X129085714Y-107102438D02*
X129133333Y-107150057D01*
X129609524Y-108054819D02*
X129800000Y-108054819D01*
X129800000Y-108054819D02*
X129895238Y-108007200D01*
X129895238Y-108007200D02*
X129942857Y-107959580D01*
X129942857Y-107959580D02*
X130038095Y-107816723D01*
X130038095Y-107816723D02*
X130085714Y-107626247D01*
X130085714Y-107626247D02*
X130085714Y-107245295D01*
X130085714Y-107245295D02*
X130038095Y-107150057D01*
X130038095Y-107150057D02*
X129990476Y-107102438D01*
X129990476Y-107102438D02*
X129895238Y-107054819D01*
X129895238Y-107054819D02*
X129704762Y-107054819D01*
X129704762Y-107054819D02*
X129609524Y-107102438D01*
X129609524Y-107102438D02*
X129561905Y-107150057D01*
X129561905Y-107150057D02*
X129514286Y-107245295D01*
X129514286Y-107245295D02*
X129514286Y-107483390D01*
X129514286Y-107483390D02*
X129561905Y-107578628D01*
X129561905Y-107578628D02*
X129609524Y-107626247D01*
X129609524Y-107626247D02*
X129704762Y-107673866D01*
X129704762Y-107673866D02*
X129895238Y-107673866D01*
X129895238Y-107673866D02*
X129990476Y-107626247D01*
X129990476Y-107626247D02*
X130038095Y-107578628D01*
X130038095Y-107578628D02*
X130085714Y-107483390D01*
X140346666Y-102614819D02*
X140346666Y-103329104D01*
X140346666Y-103329104D02*
X140299047Y-103471961D01*
X140299047Y-103471961D02*
X140203809Y-103567200D01*
X140203809Y-103567200D02*
X140060952Y-103614819D01*
X140060952Y-103614819D02*
X139965714Y-103614819D01*
X140727619Y-102614819D02*
X141346666Y-102614819D01*
X141346666Y-102614819D02*
X141013333Y-102995771D01*
X141013333Y-102995771D02*
X141156190Y-102995771D01*
X141156190Y-102995771D02*
X141251428Y-103043390D01*
X141251428Y-103043390D02*
X141299047Y-103091009D01*
X141299047Y-103091009D02*
X141346666Y-103186247D01*
X141346666Y-103186247D02*
X141346666Y-103424342D01*
X141346666Y-103424342D02*
X141299047Y-103519580D01*
X141299047Y-103519580D02*
X141251428Y-103567200D01*
X141251428Y-103567200D02*
X141156190Y-103614819D01*
X141156190Y-103614819D02*
X140870476Y-103614819D01*
X140870476Y-103614819D02*
X140775238Y-103567200D01*
X140775238Y-103567200D02*
X140727619Y-103519580D01*
D12*
X153109800Y-60233332D02*
X153157419Y-60090475D01*
X153157419Y-60090475D02*
X153157419Y-59852380D01*
X153157419Y-59852380D02*
X153109800Y-59757142D01*
X153109800Y-59757142D02*
X153062180Y-59709523D01*
X153062180Y-59709523D02*
X152966942Y-59661904D01*
X152966942Y-59661904D02*
X152871704Y-59661904D01*
X152871704Y-59661904D02*
X152776466Y-59709523D01*
X152776466Y-59709523D02*
X152728847Y-59757142D01*
X152728847Y-59757142D02*
X152681228Y-59852380D01*
X152681228Y-59852380D02*
X152633609Y-60042856D01*
X152633609Y-60042856D02*
X152585990Y-60138094D01*
X152585990Y-60138094D02*
X152538371Y-60185713D01*
X152538371Y-60185713D02*
X152443133Y-60233332D01*
X152443133Y-60233332D02*
X152347895Y-60233332D01*
X152347895Y-60233332D02*
X152252657Y-60185713D01*
X152252657Y-60185713D02*
X152205038Y-60138094D01*
X152205038Y-60138094D02*
X152157419Y-60042856D01*
X152157419Y-60042856D02*
X152157419Y-59804761D01*
X152157419Y-59804761D02*
X152205038Y-59661904D01*
X152157419Y-59328570D02*
X153157419Y-59090475D01*
X153157419Y-59090475D02*
X152443133Y-58899999D01*
X152443133Y-58899999D02*
X153157419Y-58709523D01*
X153157419Y-58709523D02*
X152157419Y-58471428D01*
X152252657Y-58138094D02*
X152205038Y-58090475D01*
X152205038Y-58090475D02*
X152157419Y-57995237D01*
X152157419Y-57995237D02*
X152157419Y-57757142D01*
X152157419Y-57757142D02*
X152205038Y-57661904D01*
X152205038Y-57661904D02*
X152252657Y-57614285D01*
X152252657Y-57614285D02*
X152347895Y-57566666D01*
X152347895Y-57566666D02*
X152443133Y-57566666D01*
X152443133Y-57566666D02*
X152585990Y-57614285D01*
X152585990Y-57614285D02*
X153157419Y-58185713D01*
X153157419Y-58185713D02*
X153157419Y-57566666D01*
D11*
X140663333Y-75767080D02*
X140615714Y-75814700D01*
X140615714Y-75814700D02*
X140472857Y-75862319D01*
X140472857Y-75862319D02*
X140377619Y-75862319D01*
X140377619Y-75862319D02*
X140234762Y-75814700D01*
X140234762Y-75814700D02*
X140139524Y-75719461D01*
X140139524Y-75719461D02*
X140091905Y-75624223D01*
X140091905Y-75624223D02*
X140044286Y-75433747D01*
X140044286Y-75433747D02*
X140044286Y-75290890D01*
X140044286Y-75290890D02*
X140091905Y-75100414D01*
X140091905Y-75100414D02*
X140139524Y-75005176D01*
X140139524Y-75005176D02*
X140234762Y-74909938D01*
X140234762Y-74909938D02*
X140377619Y-74862319D01*
X140377619Y-74862319D02*
X140472857Y-74862319D01*
X140472857Y-74862319D02*
X140615714Y-74909938D01*
X140615714Y-74909938D02*
X140663333Y-74957557D01*
X141615714Y-75862319D02*
X141044286Y-75862319D01*
X141330000Y-75862319D02*
X141330000Y-74862319D01*
X141330000Y-74862319D02*
X141234762Y-75005176D01*
X141234762Y-75005176D02*
X141139524Y-75100414D01*
X141139524Y-75100414D02*
X141044286Y-75148033D01*
X119333333Y-67954819D02*
X119000000Y-67478628D01*
X118761905Y-67954819D02*
X118761905Y-66954819D01*
X118761905Y-66954819D02*
X119142857Y-66954819D01*
X119142857Y-66954819D02*
X119238095Y-67002438D01*
X119238095Y-67002438D02*
X119285714Y-67050057D01*
X119285714Y-67050057D02*
X119333333Y-67145295D01*
X119333333Y-67145295D02*
X119333333Y-67288152D01*
X119333333Y-67288152D02*
X119285714Y-67383390D01*
X119285714Y-67383390D02*
X119238095Y-67431009D01*
X119238095Y-67431009D02*
X119142857Y-67478628D01*
X119142857Y-67478628D02*
X118761905Y-67478628D01*
X119904762Y-67383390D02*
X119809524Y-67335771D01*
X119809524Y-67335771D02*
X119761905Y-67288152D01*
X119761905Y-67288152D02*
X119714286Y-67192914D01*
X119714286Y-67192914D02*
X119714286Y-67145295D01*
X119714286Y-67145295D02*
X119761905Y-67050057D01*
X119761905Y-67050057D02*
X119809524Y-67002438D01*
X119809524Y-67002438D02*
X119904762Y-66954819D01*
X119904762Y-66954819D02*
X120095238Y-66954819D01*
X120095238Y-66954819D02*
X120190476Y-67002438D01*
X120190476Y-67002438D02*
X120238095Y-67050057D01*
X120238095Y-67050057D02*
X120285714Y-67145295D01*
X120285714Y-67145295D02*
X120285714Y-67192914D01*
X120285714Y-67192914D02*
X120238095Y-67288152D01*
X120238095Y-67288152D02*
X120190476Y-67335771D01*
X120190476Y-67335771D02*
X120095238Y-67383390D01*
X120095238Y-67383390D02*
X119904762Y-67383390D01*
X119904762Y-67383390D02*
X119809524Y-67431009D01*
X119809524Y-67431009D02*
X119761905Y-67478628D01*
X119761905Y-67478628D02*
X119714286Y-67573866D01*
X119714286Y-67573866D02*
X119714286Y-67764342D01*
X119714286Y-67764342D02*
X119761905Y-67859580D01*
X119761905Y-67859580D02*
X119809524Y-67907200D01*
X119809524Y-67907200D02*
X119904762Y-67954819D01*
X119904762Y-67954819D02*
X120095238Y-67954819D01*
X120095238Y-67954819D02*
X120190476Y-67907200D01*
X120190476Y-67907200D02*
X120238095Y-67859580D01*
X120238095Y-67859580D02*
X120285714Y-67764342D01*
X120285714Y-67764342D02*
X120285714Y-67573866D01*
X120285714Y-67573866D02*
X120238095Y-67478628D01*
X120238095Y-67478628D02*
X120190476Y-67431009D01*
X120190476Y-67431009D02*
X120095238Y-67383390D01*
X121907567Y-48284580D02*
X121859948Y-48332200D01*
X121859948Y-48332200D02*
X121717091Y-48379819D01*
X121717091Y-48379819D02*
X121621853Y-48379819D01*
X121621853Y-48379819D02*
X121478996Y-48332200D01*
X121478996Y-48332200D02*
X121383758Y-48236961D01*
X121383758Y-48236961D02*
X121336139Y-48141723D01*
X121336139Y-48141723D02*
X121288520Y-47951247D01*
X121288520Y-47951247D02*
X121288520Y-47808390D01*
X121288520Y-47808390D02*
X121336139Y-47617914D01*
X121336139Y-47617914D02*
X121383758Y-47522676D01*
X121383758Y-47522676D02*
X121478996Y-47427438D01*
X121478996Y-47427438D02*
X121621853Y-47379819D01*
X121621853Y-47379819D02*
X121717091Y-47379819D01*
X121717091Y-47379819D02*
X121859948Y-47427438D01*
X121859948Y-47427438D02*
X121907567Y-47475057D01*
X122859948Y-48379819D02*
X122288520Y-48379819D01*
X122574234Y-48379819D02*
X122574234Y-47379819D01*
X122574234Y-47379819D02*
X122478996Y-47522676D01*
X122478996Y-47522676D02*
X122383758Y-47617914D01*
X122383758Y-47617914D02*
X122288520Y-47665533D01*
X123431377Y-47808390D02*
X123336139Y-47760771D01*
X123336139Y-47760771D02*
X123288520Y-47713152D01*
X123288520Y-47713152D02*
X123240901Y-47617914D01*
X123240901Y-47617914D02*
X123240901Y-47570295D01*
X123240901Y-47570295D02*
X123288520Y-47475057D01*
X123288520Y-47475057D02*
X123336139Y-47427438D01*
X123336139Y-47427438D02*
X123431377Y-47379819D01*
X123431377Y-47379819D02*
X123621853Y-47379819D01*
X123621853Y-47379819D02*
X123717091Y-47427438D01*
X123717091Y-47427438D02*
X123764710Y-47475057D01*
X123764710Y-47475057D02*
X123812329Y-47570295D01*
X123812329Y-47570295D02*
X123812329Y-47617914D01*
X123812329Y-47617914D02*
X123764710Y-47713152D01*
X123764710Y-47713152D02*
X123717091Y-47760771D01*
X123717091Y-47760771D02*
X123621853Y-47808390D01*
X123621853Y-47808390D02*
X123431377Y-47808390D01*
X123431377Y-47808390D02*
X123336139Y-47856009D01*
X123336139Y-47856009D02*
X123288520Y-47903628D01*
X123288520Y-47903628D02*
X123240901Y-47998866D01*
X123240901Y-47998866D02*
X123240901Y-48189342D01*
X123240901Y-48189342D02*
X123288520Y-48284580D01*
X123288520Y-48284580D02*
X123336139Y-48332200D01*
X123336139Y-48332200D02*
X123431377Y-48379819D01*
X123431377Y-48379819D02*
X123621853Y-48379819D01*
X123621853Y-48379819D02*
X123717091Y-48332200D01*
X123717091Y-48332200D02*
X123764710Y-48284580D01*
X123764710Y-48284580D02*
X123812329Y-48189342D01*
X123812329Y-48189342D02*
X123812329Y-47998866D01*
X123812329Y-47998866D02*
X123764710Y-47903628D01*
X123764710Y-47903628D02*
X123717091Y-47856009D01*
X123717091Y-47856009D02*
X123621853Y-47808390D01*
X129507142Y-80804819D02*
X129173809Y-80328628D01*
X128935714Y-80804819D02*
X128935714Y-79804819D01*
X128935714Y-79804819D02*
X129316666Y-79804819D01*
X129316666Y-79804819D02*
X129411904Y-79852438D01*
X129411904Y-79852438D02*
X129459523Y-79900057D01*
X129459523Y-79900057D02*
X129507142Y-79995295D01*
X129507142Y-79995295D02*
X129507142Y-80138152D01*
X129507142Y-80138152D02*
X129459523Y-80233390D01*
X129459523Y-80233390D02*
X129411904Y-80281009D01*
X129411904Y-80281009D02*
X129316666Y-80328628D01*
X129316666Y-80328628D02*
X128935714Y-80328628D01*
X130459523Y-80804819D02*
X129888095Y-80804819D01*
X130173809Y-80804819D02*
X130173809Y-79804819D01*
X130173809Y-79804819D02*
X130078571Y-79947676D01*
X130078571Y-79947676D02*
X129983333Y-80042914D01*
X129983333Y-80042914D02*
X129888095Y-80090533D01*
X131078571Y-79804819D02*
X131173809Y-79804819D01*
X131173809Y-79804819D02*
X131269047Y-79852438D01*
X131269047Y-79852438D02*
X131316666Y-79900057D01*
X131316666Y-79900057D02*
X131364285Y-79995295D01*
X131364285Y-79995295D02*
X131411904Y-80185771D01*
X131411904Y-80185771D02*
X131411904Y-80423866D01*
X131411904Y-80423866D02*
X131364285Y-80614342D01*
X131364285Y-80614342D02*
X131316666Y-80709580D01*
X131316666Y-80709580D02*
X131269047Y-80757200D01*
X131269047Y-80757200D02*
X131173809Y-80804819D01*
X131173809Y-80804819D02*
X131078571Y-80804819D01*
X131078571Y-80804819D02*
X130983333Y-80757200D01*
X130983333Y-80757200D02*
X130935714Y-80709580D01*
X130935714Y-80709580D02*
X130888095Y-80614342D01*
X130888095Y-80614342D02*
X130840476Y-80423866D01*
X130840476Y-80423866D02*
X130840476Y-80185771D01*
X130840476Y-80185771D02*
X130888095Y-79995295D01*
X130888095Y-79995295D02*
X130935714Y-79900057D01*
X130935714Y-79900057D02*
X130983333Y-79852438D01*
X130983333Y-79852438D02*
X131078571Y-79804819D01*
X137657142Y-80959580D02*
X137609523Y-81007200D01*
X137609523Y-81007200D02*
X137466666Y-81054819D01*
X137466666Y-81054819D02*
X137371428Y-81054819D01*
X137371428Y-81054819D02*
X137228571Y-81007200D01*
X137228571Y-81007200D02*
X137133333Y-80911961D01*
X137133333Y-80911961D02*
X137085714Y-80816723D01*
X137085714Y-80816723D02*
X137038095Y-80626247D01*
X137038095Y-80626247D02*
X137038095Y-80483390D01*
X137038095Y-80483390D02*
X137085714Y-80292914D01*
X137085714Y-80292914D02*
X137133333Y-80197676D01*
X137133333Y-80197676D02*
X137228571Y-80102438D01*
X137228571Y-80102438D02*
X137371428Y-80054819D01*
X137371428Y-80054819D02*
X137466666Y-80054819D01*
X137466666Y-80054819D02*
X137609523Y-80102438D01*
X137609523Y-80102438D02*
X137657142Y-80150057D01*
X138609523Y-81054819D02*
X138038095Y-81054819D01*
X138323809Y-81054819D02*
X138323809Y-80054819D01*
X138323809Y-80054819D02*
X138228571Y-80197676D01*
X138228571Y-80197676D02*
X138133333Y-80292914D01*
X138133333Y-80292914D02*
X138038095Y-80340533D01*
X139228571Y-80054819D02*
X139323809Y-80054819D01*
X139323809Y-80054819D02*
X139419047Y-80102438D01*
X139419047Y-80102438D02*
X139466666Y-80150057D01*
X139466666Y-80150057D02*
X139514285Y-80245295D01*
X139514285Y-80245295D02*
X139561904Y-80435771D01*
X139561904Y-80435771D02*
X139561904Y-80673866D01*
X139561904Y-80673866D02*
X139514285Y-80864342D01*
X139514285Y-80864342D02*
X139466666Y-80959580D01*
X139466666Y-80959580D02*
X139419047Y-81007200D01*
X139419047Y-81007200D02*
X139323809Y-81054819D01*
X139323809Y-81054819D02*
X139228571Y-81054819D01*
X139228571Y-81054819D02*
X139133333Y-81007200D01*
X139133333Y-81007200D02*
X139085714Y-80959580D01*
X139085714Y-80959580D02*
X139038095Y-80864342D01*
X139038095Y-80864342D02*
X138990476Y-80673866D01*
X138990476Y-80673866D02*
X138990476Y-80435771D01*
X138990476Y-80435771D02*
X139038095Y-80245295D01*
X139038095Y-80245295D02*
X139085714Y-80150057D01*
X139085714Y-80150057D02*
X139133333Y-80102438D01*
X139133333Y-80102438D02*
X139228571Y-80054819D01*
X142690833Y-66849580D02*
X142643214Y-66897200D01*
X142643214Y-66897200D02*
X142500357Y-66944819D01*
X142500357Y-66944819D02*
X142405119Y-66944819D01*
X142405119Y-66944819D02*
X142262262Y-66897200D01*
X142262262Y-66897200D02*
X142167024Y-66801961D01*
X142167024Y-66801961D02*
X142119405Y-66706723D01*
X142119405Y-66706723D02*
X142071786Y-66516247D01*
X142071786Y-66516247D02*
X142071786Y-66373390D01*
X142071786Y-66373390D02*
X142119405Y-66182914D01*
X142119405Y-66182914D02*
X142167024Y-66087676D01*
X142167024Y-66087676D02*
X142262262Y-65992438D01*
X142262262Y-65992438D02*
X142405119Y-65944819D01*
X142405119Y-65944819D02*
X142500357Y-65944819D01*
X142500357Y-65944819D02*
X142643214Y-65992438D01*
X142643214Y-65992438D02*
X142690833Y-66040057D01*
X143547976Y-65944819D02*
X143357500Y-65944819D01*
X143357500Y-65944819D02*
X143262262Y-65992438D01*
X143262262Y-65992438D02*
X143214643Y-66040057D01*
X143214643Y-66040057D02*
X143119405Y-66182914D01*
X143119405Y-66182914D02*
X143071786Y-66373390D01*
X143071786Y-66373390D02*
X143071786Y-66754342D01*
X143071786Y-66754342D02*
X143119405Y-66849580D01*
X143119405Y-66849580D02*
X143167024Y-66897200D01*
X143167024Y-66897200D02*
X143262262Y-66944819D01*
X143262262Y-66944819D02*
X143452738Y-66944819D01*
X143452738Y-66944819D02*
X143547976Y-66897200D01*
X143547976Y-66897200D02*
X143595595Y-66849580D01*
X143595595Y-66849580D02*
X143643214Y-66754342D01*
X143643214Y-66754342D02*
X143643214Y-66516247D01*
X143643214Y-66516247D02*
X143595595Y-66421009D01*
X143595595Y-66421009D02*
X143547976Y-66373390D01*
X143547976Y-66373390D02*
X143452738Y-66325771D01*
X143452738Y-66325771D02*
X143262262Y-66325771D01*
X143262262Y-66325771D02*
X143167024Y-66373390D01*
X143167024Y-66373390D02*
X143119405Y-66421009D01*
X143119405Y-66421009D02*
X143071786Y-66516247D01*
X151218333Y-52369819D02*
X150885000Y-51893628D01*
X150646905Y-52369819D02*
X150646905Y-51369819D01*
X150646905Y-51369819D02*
X151027857Y-51369819D01*
X151027857Y-51369819D02*
X151123095Y-51417438D01*
X151123095Y-51417438D02*
X151170714Y-51465057D01*
X151170714Y-51465057D02*
X151218333Y-51560295D01*
X151218333Y-51560295D02*
X151218333Y-51703152D01*
X151218333Y-51703152D02*
X151170714Y-51798390D01*
X151170714Y-51798390D02*
X151123095Y-51846009D01*
X151123095Y-51846009D02*
X151027857Y-51893628D01*
X151027857Y-51893628D02*
X150646905Y-51893628D01*
X152075476Y-51703152D02*
X152075476Y-52369819D01*
X151837381Y-51322200D02*
X151599286Y-52036485D01*
X151599286Y-52036485D02*
X152218333Y-52036485D01*
X142738333Y-52369819D02*
X142405000Y-51893628D01*
X142166905Y-52369819D02*
X142166905Y-51369819D01*
X142166905Y-51369819D02*
X142547857Y-51369819D01*
X142547857Y-51369819D02*
X142643095Y-51417438D01*
X142643095Y-51417438D02*
X142690714Y-51465057D01*
X142690714Y-51465057D02*
X142738333Y-51560295D01*
X142738333Y-51560295D02*
X142738333Y-51703152D01*
X142738333Y-51703152D02*
X142690714Y-51798390D01*
X142690714Y-51798390D02*
X142643095Y-51846009D01*
X142643095Y-51846009D02*
X142547857Y-51893628D01*
X142547857Y-51893628D02*
X142166905Y-51893628D01*
X143071667Y-51369819D02*
X143690714Y-51369819D01*
X143690714Y-51369819D02*
X143357381Y-51750771D01*
X143357381Y-51750771D02*
X143500238Y-51750771D01*
X143500238Y-51750771D02*
X143595476Y-51798390D01*
X143595476Y-51798390D02*
X143643095Y-51846009D01*
X143643095Y-51846009D02*
X143690714Y-51941247D01*
X143690714Y-51941247D02*
X143690714Y-52179342D01*
X143690714Y-52179342D02*
X143643095Y-52274580D01*
X143643095Y-52274580D02*
X143595476Y-52322200D01*
X143595476Y-52322200D02*
X143500238Y-52369819D01*
X143500238Y-52369819D02*
X143214524Y-52369819D01*
X143214524Y-52369819D02*
X143119286Y-52322200D01*
X143119286Y-52322200D02*
X143071667Y-52274580D01*
D13*
X122678682Y-78399880D02*
X115249999Y-78399880D01*
X112699542Y-78399880D02*
X109349999Y-78399880D01*
X109349999Y-78399880D02*
X109327499Y-94303796D01*
X124084899Y-92449880D02*
X124084899Y-89545548D01*
X115249999Y-94299880D02*
X122649999Y-94299880D01*
X109327499Y-94303796D02*
X112649999Y-94303796D01*
D14*
X120665000Y-71302064D02*
X120665000Y-70847936D01*
X122135000Y-71302064D02*
X122135000Y-70847936D01*
X146965000Y-79861252D02*
X146965000Y-79338748D01*
X148435000Y-79861252D02*
X148435000Y-79338748D01*
D11*
X122849575Y-49720000D02*
X118699575Y-49720000D01*
X122849575Y-54870000D02*
X118699575Y-54870000D01*
D14*
X123764575Y-55125000D02*
X123284575Y-55125000D01*
X123524575Y-54795000D01*
X123764575Y-55125000D01*
G36*
X123764575Y-55125000D02*
G01*
X123284575Y-55125000D01*
X123524575Y-54795000D01*
X123764575Y-55125000D01*
G37*
X130890000Y-102800000D02*
X130890000Y-105660000D01*
X130890000Y-105660000D02*
X132810000Y-105660000D01*
X132810000Y-105660000D02*
X132810000Y-102800000D01*
X149165000Y-79861252D02*
X149165000Y-79338748D01*
X150635000Y-79861252D02*
X150635000Y-79338748D01*
X127690000Y-66701248D02*
X127690000Y-67223752D01*
X129160000Y-66701248D02*
X129160000Y-67223752D01*
X148640000Y-69675000D02*
X142240000Y-69675000D01*
X148640000Y-74725000D02*
X142240000Y-74725000D01*
X142240000Y-74725000D02*
G75*
G02*
X142240000Y-69675000I0J2525000D01*
G01*
X148640000Y-69675000D02*
G75*
G02*
X148640000Y-74725000I0J-2525000D01*
G01*
X137265000Y-73552064D02*
X137265000Y-73097936D01*
X138735000Y-73552064D02*
X138735000Y-73097936D01*
X133315000Y-89813748D02*
X133315000Y-90336252D01*
X134785000Y-89813748D02*
X134785000Y-90336252D01*
D12*
X139745000Y-65975000D02*
G75*
G02*
X130045000Y-65975000I-4850000J0D01*
G01*
X130045000Y-65975000D02*
G75*
G02*
X139745000Y-65975000I4850000J0D01*
G01*
D14*
X126715000Y-76638748D02*
X126715000Y-77161252D01*
X128185000Y-76638748D02*
X128185000Y-77161252D01*
X122040000Y-99290000D02*
X122040000Y-100550000D01*
X122040000Y-106110000D02*
X122040000Y-104850000D01*
X125800000Y-99290000D02*
X122040000Y-99290000D01*
X125800000Y-106110000D02*
X122040000Y-106110000D01*
X127320000Y-106340000D02*
X126840000Y-106340000D01*
X127080000Y-106010000D01*
X127320000Y-106340000D01*
G36*
X127320000Y-106340000D02*
G01*
X126840000Y-106340000D01*
X127080000Y-106010000D01*
X127320000Y-106340000D01*
G37*
X153275000Y-55110000D02*
X156135000Y-55110000D01*
X156135000Y-53190000D02*
X153275000Y-53190000D01*
X156135000Y-55110000D02*
X156135000Y-53190000D01*
X144775000Y-55060000D02*
X147635000Y-55060000D01*
X147635000Y-53140000D02*
X144775000Y-53140000D01*
X147635000Y-55060000D02*
X147635000Y-53140000D01*
X130448748Y-92445000D02*
X130971252Y-92445000D01*
X130448748Y-93915000D02*
X130971252Y-93915000D01*
D12*
X146900000Y-41100000D02*
G75*
G02*
X123900000Y-41100000I-11500000J0D01*
G01*
X123900000Y-41100000D02*
G75*
G02*
X146900000Y-41100000I11500000J0D01*
G01*
D14*
X126715000Y-72672936D02*
X126715000Y-73127064D01*
X128185000Y-72672936D02*
X128185000Y-73127064D01*
X116613323Y-62460000D02*
X117135827Y-62460000D01*
X116613323Y-63930000D02*
X117135827Y-63930000D01*
X131165000Y-107472936D02*
X131165000Y-107927064D01*
X132635000Y-107472936D02*
X132635000Y-107927064D01*
D12*
X122725425Y-64150000D02*
X119025425Y-64150000D01*
X119025425Y-59350000D01*
X122725425Y-59350000D01*
X122725425Y-64150000D01*
D14*
X128842500Y-99561252D02*
X128842500Y-99038748D01*
X130312500Y-99561252D02*
X130312500Y-99038748D01*
X133815000Y-84636252D02*
X133815000Y-84113748D01*
X135285000Y-84636252D02*
X135285000Y-84113748D01*
X128840000Y-72762500D02*
X128840000Y-71962500D01*
X128840000Y-72762500D02*
X128840000Y-73562500D01*
X131960000Y-72762500D02*
X131960000Y-71962500D01*
X131960000Y-72762500D02*
X131960000Y-73562500D01*
X132240000Y-71702500D02*
X131910000Y-71462500D01*
X132240000Y-71222500D01*
X132240000Y-71702500D01*
G36*
X132240000Y-71702500D02*
G01*
X131910000Y-71462500D01*
X132240000Y-71222500D01*
X132240000Y-71702500D01*
G37*
X152990000Y-77740000D02*
X155000000Y-77740000D01*
X152990000Y-80460000D02*
X152990000Y-77740000D01*
X153250000Y-80460000D02*
X153000000Y-80460000D01*
X153250000Y-80460000D02*
X153250000Y-81000000D01*
X154820000Y-80460000D02*
X156780000Y-80460000D01*
X156600000Y-77740000D02*
X158610000Y-77740000D01*
X158610000Y-77750000D02*
X158610000Y-80450000D01*
X158610000Y-80460000D02*
X158350000Y-80460000D01*
X148490000Y-84263748D02*
X148490000Y-84786252D01*
X149960000Y-84263748D02*
X149960000Y-84786252D01*
X114939575Y-54236252D02*
X114939575Y-53713748D01*
X116409575Y-54236252D02*
X116409575Y-53713748D01*
X112815425Y-49122936D02*
X112815425Y-49577064D01*
X114285425Y-49122936D02*
X114285425Y-49577064D01*
X155970000Y-101440000D02*
X155970000Y-93760000D01*
X158630000Y-93760000D02*
X155970000Y-93760000D01*
X158630000Y-101440000D02*
X155970000Y-101440000D01*
X158630000Y-101440000D02*
X158630000Y-93760000D01*
X158630000Y-102710000D02*
X158630000Y-104040000D01*
X158630000Y-104040000D02*
X157300000Y-104040000D01*
X134713748Y-75490000D02*
X135236252Y-75490000D01*
X134713748Y-76960000D02*
X135236252Y-76960000D01*
X125261252Y-67265000D02*
X124738748Y-67265000D01*
X125261252Y-68735000D02*
X124738748Y-68735000D01*
X114914575Y-49573752D02*
X114914575Y-49051248D01*
X116384575Y-49573752D02*
X116384575Y-49051248D01*
X124315000Y-73161252D02*
X124315000Y-72638748D01*
X125785000Y-73161252D02*
X125785000Y-72638748D01*
X131090000Y-89813748D02*
X131090000Y-90336252D01*
X132560000Y-89813748D02*
X132560000Y-90336252D01*
X139152500Y-82640000D02*
X139602500Y-82640000D01*
X139152500Y-83090000D02*
X139152500Y-82640000D01*
X139152500Y-89410000D02*
X139152500Y-89860000D01*
X139152500Y-89860000D02*
X139602500Y-89860000D01*
X146372500Y-82640000D02*
X145922500Y-82640000D01*
X146372500Y-83090000D02*
X146372500Y-82640000D01*
X146372500Y-89410000D02*
X146372500Y-89860000D01*
X146372500Y-89860000D02*
X145922500Y-89860000D01*
X146392500Y-82390000D02*
X145922500Y-82050000D01*
X146392500Y-81710000D01*
X146392500Y-82390000D01*
G36*
X146392500Y-82390000D02*
G01*
X145922500Y-82050000D01*
X146392500Y-81710000D01*
X146392500Y-82390000D01*
G37*
D12*
X141600000Y-62100000D02*
X148000000Y-62100000D01*
X148000000Y-55700000D01*
X141600000Y-55700000D01*
X141600000Y-62100000D01*
D14*
X148638748Y-67465000D02*
X149161252Y-67465000D01*
X148638748Y-68935000D02*
X149161252Y-68935000D01*
X129165000Y-89714758D02*
X129165000Y-90535242D01*
X130285000Y-89714758D02*
X130285000Y-90535242D01*
X135202064Y-73215000D02*
X134747936Y-73215000D01*
X135202064Y-74685000D02*
X134747936Y-74685000D01*
X128915000Y-103538748D02*
X128915000Y-104061252D01*
X130385000Y-103538748D02*
X130385000Y-104061252D01*
X156045000Y-82080000D02*
X157375000Y-82080000D01*
X156045000Y-83410000D02*
X156045000Y-82080000D01*
X156045000Y-84680000D02*
X156045000Y-92360000D01*
X156045000Y-84680000D02*
X158705000Y-84680000D01*
X156045000Y-92360000D02*
X158705000Y-92360000D01*
X158705000Y-84680000D02*
X158705000Y-92360000D01*
X140270000Y-109650000D02*
X140270000Y-106420000D01*
X140270000Y-113820000D02*
X140270000Y-111870000D01*
X140990000Y-104500000D02*
X142070000Y-104500000D01*
X142070000Y-104500000D02*
X142070000Y-104070000D01*
X146290000Y-104500000D02*
X147370000Y-104500000D01*
X148090000Y-109650000D02*
X148090000Y-106420000D01*
X148090000Y-113820000D02*
X140270000Y-113820000D01*
X148090000Y-113820000D02*
X148090000Y-111870000D01*
X120861252Y-56265000D02*
X120338748Y-56265000D01*
X120861252Y-57735000D02*
X120338748Y-57735000D01*
D12*
X150000000Y-62100000D02*
X156400000Y-62100000D01*
X156400000Y-55700000D01*
X150000000Y-55700000D01*
X150000000Y-62100000D01*
D14*
X140865000Y-78261252D02*
X140865000Y-77738748D01*
X142335000Y-78261252D02*
X142335000Y-77738748D01*
X120765000Y-67277064D02*
X120765000Y-66822936D01*
X122235000Y-67277064D02*
X122235000Y-66822936D01*
X118789173Y-47195000D02*
X119311677Y-47195000D01*
X118789173Y-48665000D02*
X119311677Y-48665000D01*
X128927500Y-76672936D02*
X128927500Y-77127064D01*
X130397500Y-76672936D02*
X130397500Y-77127064D01*
X138665000Y-78261252D02*
X138665000Y-77738748D01*
X140135000Y-78261252D02*
X140135000Y-77738748D01*
X142261252Y-67465000D02*
X141738748Y-67465000D01*
X142261252Y-68935000D02*
X141738748Y-68935000D01*
X154527064Y-51190000D02*
X154072936Y-51190000D01*
X154527064Y-52660000D02*
X154072936Y-52660000D01*
X135515000Y-89813748D02*
X135515000Y-90336252D01*
X136985000Y-89813748D02*
X136985000Y-90336252D01*
X145727064Y-101525000D02*
X145272936Y-101525000D01*
X145727064Y-102995000D02*
X145272936Y-102995000D01*
X146027064Y-51190000D02*
X145572936Y-51190000D01*
X146027064Y-52660000D02*
X145572936Y-52660000D01*
%LPC*%
D15*
X124249999Y-88799880D03*
X124249999Y-87699882D03*
X124249999Y-86599882D03*
X124249999Y-85499881D03*
X124249999Y-84399881D03*
X124249999Y-83299881D03*
X124249999Y-82199880D03*
X124249999Y-81099880D03*
X124249999Y-79999880D03*
D16*
X113749999Y-81599880D03*
X113750000Y-89599880D03*
D17*
X123549999Y-78799880D03*
D18*
X123549999Y-93399880D03*
D19*
X113949999Y-78799880D03*
X113949999Y-94299880D03*
D20*
X121400000Y-72075000D03*
X121400000Y-70075000D03*
D21*
X147700000Y-80637500D03*
X147700000Y-78562500D03*
D22*
X123499575Y-54200000D03*
X123499575Y-52930000D03*
X123499575Y-51660000D03*
X123499575Y-50390000D03*
X118049575Y-50390000D03*
X118049575Y-51660000D03*
X118049575Y-52930000D03*
X118049575Y-54200000D03*
D23*
X131850000Y-104825000D03*
X131850000Y-102775000D03*
D21*
X149900000Y-80637500D03*
X149900000Y-78562500D03*
D24*
X128425000Y-65925000D03*
X128425000Y-68000000D03*
D25*
X156400000Y-108900000D03*
D26*
X147880000Y-72200000D03*
X143000000Y-72200000D03*
D20*
X138000000Y-74325000D03*
X138000000Y-72325000D03*
D24*
X134050000Y-89037500D03*
X134050000Y-91112500D03*
D25*
X112500000Y-108700000D03*
X156500000Y-31500000D03*
D27*
X136165000Y-67975000D03*
X133625000Y-67975000D03*
D24*
X127450000Y-75862500D03*
X127450000Y-77937500D03*
D28*
X127100000Y-105000000D03*
X127100000Y-102700000D03*
D29*
X120800000Y-102700000D03*
D28*
X127100000Y-100400000D03*
D30*
X155300000Y-54150000D03*
X153250000Y-54150000D03*
X146800000Y-54100000D03*
X144750000Y-54100000D03*
D31*
X129672500Y-93180000D03*
X131747500Y-93180000D03*
D16*
X130400000Y-41100000D03*
X140400000Y-41100000D03*
D32*
X127450000Y-71900000D03*
X127450000Y-73900000D03*
D31*
X115837075Y-63195000D03*
X117912075Y-63195000D03*
D32*
X131900000Y-106700000D03*
X131900000Y-108700000D03*
D33*
X120875425Y-63300000D03*
D34*
X121875425Y-60050000D03*
D35*
X119875425Y-60050000D03*
D21*
X129577500Y-100337500D03*
X129577500Y-98262500D03*
X134550000Y-85412500D03*
X134550000Y-83337500D03*
D36*
X131350000Y-71625000D03*
X130400000Y-71625000D03*
X129450000Y-71625000D03*
X129450000Y-73900000D03*
X131350000Y-73900000D03*
D37*
X154050000Y-80250000D03*
X155800000Y-77950000D03*
X157550000Y-80250000D03*
D24*
X149225000Y-83487500D03*
X149225000Y-85562500D03*
D21*
X115674575Y-55012500D03*
X115674575Y-52937500D03*
D32*
X113550425Y-48350000D03*
X113550425Y-50350000D03*
D38*
X157300000Y-102710000D03*
D39*
X157300000Y-100170000D03*
X157300000Y-97630000D03*
X157300000Y-95090000D03*
D31*
X133937500Y-76225000D03*
X136012500Y-76225000D03*
D40*
X126037500Y-68000000D03*
X123962500Y-68000000D03*
D21*
X115649575Y-50350000D03*
X115649575Y-48275000D03*
D25*
X112500000Y-31600000D03*
D21*
X125050000Y-73937500D03*
X125050000Y-71862500D03*
D24*
X131825000Y-89037500D03*
X131825000Y-91112500D03*
D41*
X145512500Y-82087500D03*
X145012500Y-82087500D03*
X144512500Y-82087500D03*
X144012500Y-82087500D03*
X143512500Y-82087500D03*
X143012500Y-82087500D03*
X142512500Y-82087500D03*
X142012500Y-82087500D03*
X141512500Y-82087500D03*
X141012500Y-82087500D03*
X140512500Y-82087500D03*
X140012500Y-82087500D03*
D42*
X138600000Y-83500000D03*
X138600000Y-84000000D03*
X138600000Y-84500000D03*
X138600000Y-85000000D03*
X138600000Y-85500000D03*
X138600000Y-86000000D03*
X138600000Y-86500000D03*
X138600000Y-87000000D03*
X138600000Y-87500000D03*
X138600000Y-88000000D03*
X138600000Y-88500000D03*
X138600000Y-89000000D03*
D41*
X140012500Y-90412500D03*
X140512500Y-90412500D03*
X141012500Y-90412500D03*
X141512500Y-90412500D03*
X142012500Y-90412500D03*
X142512500Y-90412500D03*
X143012500Y-90412500D03*
X143512500Y-90412500D03*
X144012500Y-90412500D03*
X144512500Y-90412500D03*
X145012500Y-90412500D03*
X145512500Y-90412500D03*
D42*
X146925000Y-89000000D03*
X146925000Y-88500000D03*
X146925000Y-88000000D03*
X146925000Y-87500000D03*
X146925000Y-87000000D03*
X146925000Y-86500000D03*
X146925000Y-86000000D03*
X146925000Y-85500000D03*
X146925000Y-85000000D03*
X146925000Y-84500000D03*
X146925000Y-84000000D03*
X146925000Y-83500000D03*
D43*
X144800000Y-61600000D03*
X144800000Y-56200000D03*
D31*
X147862500Y-68200000D03*
X149937500Y-68200000D03*
D44*
X129725000Y-88975000D03*
X129725000Y-91275000D03*
D45*
X135975000Y-73950000D03*
X133975000Y-73950000D03*
D24*
X129650000Y-102762500D03*
X129650000Y-104837500D03*
D38*
X157375000Y-83410000D03*
D39*
X157375000Y-85950000D03*
X157375000Y-88490000D03*
X157375000Y-91030000D03*
D46*
X141980000Y-107910000D03*
X146380000Y-107910000D03*
D47*
X142580000Y-105210000D03*
X143380000Y-105210000D03*
X144180000Y-105210000D03*
X144980000Y-105210000D03*
X145780000Y-105210000D03*
D48*
X139730000Y-105310000D03*
X139730000Y-110760000D03*
X148630000Y-105310000D03*
X148630000Y-110760000D03*
D40*
X121637500Y-57000000D03*
X119562500Y-57000000D03*
D43*
X153200000Y-61600000D03*
X153200000Y-56200000D03*
D21*
X141600000Y-79037500D03*
X141600000Y-76962500D03*
D20*
X121500000Y-68050000D03*
X121500000Y-66050000D03*
D31*
X118012925Y-47930000D03*
X120087925Y-47930000D03*
D32*
X129662500Y-75900000D03*
X129662500Y-77900000D03*
D21*
X139400000Y-79037500D03*
X139400000Y-76962500D03*
D40*
X143037500Y-68200000D03*
X140962500Y-68200000D03*
D45*
X155300000Y-51925000D03*
X153300000Y-51925000D03*
D24*
X136250000Y-89037500D03*
X136250000Y-91112500D03*
D45*
X146500000Y-102260000D03*
X144500000Y-102260000D03*
X146800000Y-51925000D03*
X144800000Y-51925000D03*
%LPD*%
M02*
