G04 #@! TF.GenerationSoftware,KiCad,Pcbnew,8.0.8-8.0.8-0~ubuntu24.04.1*
G04 #@! TF.CreationDate,2026-02-24T22:46:37+01:00*
G04 #@! TF.ProjectId,AnalogPeripherial,416e616c-6f67-4506-9572-697068657269,rev?*
G04 #@! TF.SameCoordinates,Original*
G04 #@! TF.FileFunction,Paste,Top*
G04 #@! TF.FilePolarity,Positive*
%FSLAX46Y46*%
G04 Gerber Fmt 4.6, Leading zero omitted, Abs format (unit mm)*
G04 Created by KiCad (PCBNEW 8.0.8-8.0.8-0~ubuntu24.04.1) date 2026-02-24 22:46:37*
%MOMM*%
%LPD*%
G01*
G04 APERTURE LIST*
G04 Aperture macros list*
%AMRoundRect*
0 Rectangle with rounded corners*
0 $1 Rounding radius*
0 $2 $3 $4 $5 $6 $7 $8 $9 X,Y pos of 4 corners*
0 Add a 4 corners polygon primitive as box body*
4,1,4,$2,$3,$4,$5,$6,$7,$8,$9,$2,$3,0*
0 Add four circle primitives for the rounded corners*
1,1,$1+$1,$2,$3*
1,1,$1+$1,$4,$5*
1,1,$1+$1,$6,$7*
1,1,$1+$1,$8,$9*
0 Add four rect primitives between the rounded corners*
20,1,$1+$1,$2,$3,$4,$5,0*
20,1,$1+$1,$4,$5,$6,$7,0*
20,1,$1+$1,$6,$7,$8,$9,0*
20,1,$1+$1,$8,$9,$2,$3,0*%
%AMOutline4P*
0 Free polygon, 4 corners , with rotation*
0 The origin of the aperture is its center*
0 number of corners: always 4*
0 $1 to $8 corner X, Y*
0 $9 Rotation angle, in degrees counterclockwise*
0 create outline with 4 corners*
4,1,4,$1,$2,$3,$4,$5,$6,$7,$8,$1,$2,$9*%
G04 Aperture macros list end*
%ADD10R,1.600200X0.762000*%
%ADD11R,1.400000X1.200000*%
%ADD12R,1.400000X1.600000*%
%ADD13R,2.200000X1.200000*%
%ADD14RoundRect,0.250000X0.450000X-0.350000X0.450000X0.350000X-0.450000X0.350000X-0.450000X-0.350000X0*%
%ADD15RoundRect,0.250000X0.475000X-0.337500X0.475000X0.337500X-0.475000X0.337500X-0.475000X-0.337500X0*%
%ADD16R,2.000000X0.600000*%
%ADD17RoundRect,0.250000X0.450000X-0.325000X0.450000X0.325000X-0.450000X0.325000X-0.450000X-0.325000X0*%
%ADD18RoundRect,0.250000X-0.475000X0.337500X-0.475000X-0.337500X0.475000X-0.337500X0.475000X0.337500X0*%
%ADD19RoundRect,0.375000X0.625000X0.375000X-0.625000X0.375000X-0.625000X-0.375000X0.625000X-0.375000X0*%
%ADD20RoundRect,0.500000X0.500000X1.400000X-0.500000X1.400000X-0.500000X-1.400000X0.500000X-1.400000X0*%
%ADD21RoundRect,0.250000X0.325000X0.450000X-0.325000X0.450000X-0.325000X-0.450000X0.325000X-0.450000X0*%
%ADD22RoundRect,0.250000X-0.337500X-0.475000X0.337500X-0.475000X0.337500X0.475000X-0.337500X0.475000X0*%
%ADD23RoundRect,0.250000X-0.450000X0.350000X-0.450000X-0.350000X0.450000X-0.350000X0.450000X0.350000X0*%
%ADD24Outline4P,-0.800000X-0.750000X0.800000X-0.750000X0.800000X0.750000X-0.800000X0.750000X180.000000*%
%ADD25R,1.200000X1.200000*%
%ADD26Outline4P,-0.600000X-0.600000X0.600000X-0.600000X0.600000X0.600000X-0.600000X0.600000X180.000000*%
%ADD27RoundRect,0.150000X-0.150000X0.512500X-0.150000X-0.512500X0.150000X-0.512500X0.150000X0.512500X0*%
%ADD28RoundRect,0.250000X-0.250000X-0.550000X0.250000X-0.550000X0.250000X0.550000X-0.250000X0.550000X0*%
%ADD29RoundRect,0.250000X0.337500X0.475000X-0.337500X0.475000X-0.337500X-0.475000X0.337500X-0.475000X0*%
%ADD30RoundRect,0.075000X-0.075000X0.662500X-0.075000X-0.662500X0.075000X-0.662500X0.075000X0.662500X0*%
%ADD31RoundRect,0.075000X-0.662500X0.075000X-0.662500X-0.075000X0.662500X-0.075000X0.662500X0.075000X0*%
%ADD32RoundRect,0.250000X-0.350000X0.275000X-0.350000X-0.275000X0.350000X-0.275000X0.350000X0.275000X0*%
%ADD33RoundRect,0.250000X0.350000X0.450000X-0.350000X0.450000X-0.350000X-0.450000X0.350000X-0.450000X0*%
%ADD34R,0.500000X2.000000*%
%ADD35R,2.000000X1.700000*%
G04 APERTURE END LIST*
D10*
X124249999Y-88799880D03*
X124249999Y-87699882D03*
X124249999Y-86599882D03*
X124249999Y-85499881D03*
X124249999Y-84399881D03*
X124249999Y-83299881D03*
X124249999Y-82199880D03*
X124249999Y-81099880D03*
X124249999Y-79999880D03*
D11*
X123549999Y-78799880D03*
D12*
X123549999Y-93399880D03*
D13*
X113949999Y-78799880D03*
X113949999Y-94299880D03*
D14*
X121400000Y-72075000D03*
X121400000Y-70075000D03*
D15*
X147700000Y-80637500D03*
X147700000Y-78562500D03*
D16*
X123499575Y-54200000D03*
X123499575Y-52930000D03*
X123499575Y-51660000D03*
X123499575Y-50390000D03*
X118049575Y-50390000D03*
X118049575Y-51660000D03*
X118049575Y-52930000D03*
X118049575Y-54200000D03*
D17*
X131850000Y-104825000D03*
X131850000Y-102775000D03*
D15*
X149900000Y-80637500D03*
X149900000Y-78562500D03*
D18*
X128425000Y-65925000D03*
X128425000Y-68000000D03*
D14*
X138000000Y-74325000D03*
X138000000Y-72325000D03*
D18*
X134050000Y-89037500D03*
X134050000Y-91112500D03*
X127450000Y-75862500D03*
X127450000Y-77937500D03*
D19*
X127100000Y-105000000D03*
X127100000Y-102700000D03*
D20*
X120800000Y-102700000D03*
D19*
X127100000Y-100400000D03*
D21*
X155300000Y-54150000D03*
X153250000Y-54150000D03*
X146800000Y-54100000D03*
X144750000Y-54100000D03*
D22*
X129672500Y-93180000D03*
X131747500Y-93180000D03*
D23*
X127450000Y-71900000D03*
X127450000Y-73900000D03*
D22*
X115837075Y-63195000D03*
X117912075Y-63195000D03*
D23*
X131900000Y-106700000D03*
X131900000Y-108700000D03*
D24*
X120875425Y-63300000D03*
D25*
X121875425Y-60050000D03*
D26*
X119875425Y-60050000D03*
D15*
X129577500Y-100337500D03*
X129577500Y-98262500D03*
X134550000Y-85412500D03*
X134550000Y-83337500D03*
D27*
X131350000Y-71625000D03*
X130400000Y-71625000D03*
X129450000Y-71625000D03*
X129450000Y-73900000D03*
X131350000Y-73900000D03*
D28*
X154050000Y-80250000D03*
X155800000Y-77950000D03*
X157550000Y-80250000D03*
D18*
X149225000Y-83487500D03*
X149225000Y-85562500D03*
D15*
X115674575Y-55012500D03*
X115674575Y-52937500D03*
D23*
X113550425Y-48350000D03*
X113550425Y-50350000D03*
D22*
X133937500Y-76225000D03*
X136012500Y-76225000D03*
D29*
X126037500Y-68000000D03*
X123962500Y-68000000D03*
D15*
X115649575Y-50350000D03*
X115649575Y-48275000D03*
X125050000Y-73937500D03*
X125050000Y-71862500D03*
D18*
X131825000Y-89037500D03*
X131825000Y-91112500D03*
D30*
X145512500Y-82087500D03*
X145012500Y-82087500D03*
X144512500Y-82087500D03*
X144012500Y-82087500D03*
X143512500Y-82087500D03*
X143012500Y-82087500D03*
X142512500Y-82087500D03*
X142012500Y-82087500D03*
X141512500Y-82087500D03*
X141012500Y-82087500D03*
X140512500Y-82087500D03*
X140012500Y-82087500D03*
D31*
X138600000Y-83500000D03*
X138600000Y-84000000D03*
X138600000Y-84500000D03*
X138600000Y-85000000D03*
X138600000Y-85500000D03*
X138600000Y-86000000D03*
X138600000Y-86500000D03*
X138600000Y-87000000D03*
X138600000Y-87500000D03*
X138600000Y-88000000D03*
X138600000Y-88500000D03*
X138600000Y-89000000D03*
D30*
X140012500Y-90412500D03*
X140512500Y-90412500D03*
X141012500Y-90412500D03*
X141512500Y-90412500D03*
X142012500Y-90412500D03*
X142512500Y-90412500D03*
X143012500Y-90412500D03*
X143512500Y-90412500D03*
X144012500Y-90412500D03*
X144512500Y-90412500D03*
X145012500Y-90412500D03*
X145512500Y-90412500D03*
D31*
X146925000Y-89000000D03*
X146925000Y-88500000D03*
X146925000Y-88000000D03*
X146925000Y-87500000D03*
X146925000Y-87000000D03*
X146925000Y-86500000D03*
X146925000Y-86000000D03*
X146925000Y-85500000D03*
X146925000Y-85000000D03*
X146925000Y-84500000D03*
X146925000Y-84000000D03*
X146925000Y-83500000D03*
D22*
X147862500Y-68200000D03*
X149937500Y-68200000D03*
D32*
X129725000Y-88975000D03*
X129725000Y-91275000D03*
D33*
X135975000Y-73950000D03*
X133975000Y-73950000D03*
D18*
X129650000Y-102762500D03*
X129650000Y-104837500D03*
D34*
X142580000Y-105210000D03*
X143380000Y-105210000D03*
X144180000Y-105210000D03*
X144980000Y-105210000D03*
X145780000Y-105210000D03*
D35*
X139730000Y-105310000D03*
X139730000Y-110760000D03*
X148630000Y-105310000D03*
X148630000Y-110760000D03*
D29*
X121637500Y-57000000D03*
X119562500Y-57000000D03*
D15*
X141600000Y-79037500D03*
X141600000Y-76962500D03*
D14*
X121500000Y-68050000D03*
X121500000Y-66050000D03*
D22*
X118012925Y-47930000D03*
X120087925Y-47930000D03*
D23*
X129662500Y-75900000D03*
X129662500Y-77900000D03*
D15*
X139400000Y-79037500D03*
X139400000Y-76962500D03*
D29*
X143037500Y-68200000D03*
X140962500Y-68200000D03*
D33*
X155300000Y-51925000D03*
X153300000Y-51925000D03*
D18*
X136250000Y-89037500D03*
X136250000Y-91112500D03*
D33*
X146500000Y-102260000D03*
X144500000Y-102260000D03*
X146800000Y-51925000D03*
X144800000Y-51925000D03*
M02*
