%TF.GenerationSoftware,KiCad,Pcbnew,8.0.8-8.0.8-0~ubuntu24.04.1*%
%TF.CreationDate,2026-02-24T22:45:11+01:00*%
%TF.ProjectId,AnalogPeripherial,416e616c-6f67-4506-9572-697068657269,rev?*%
%TF.SameCoordinates,Original*%
%TF.FileFunction,Drillmap*%
%TF.FilePolarity,Positive*%
%FSLAX45Y45*%
G04 Gerber Fmt 4.5, Leading zero omitted, Abs format (unit mm)*
G04 Created by KiCad (PCBNEW 8.0.8-8.0.8-0~ubuntu24.04.1) date 2026-02-24 22:45:11*
%MOMM*%
%LPD*%
G01*
G04 APERTURE LIST*
%ADD10C,0.050000*%
%ADD11C,0.200000*%
%ADD12C,0.100000*%
%ADD13C,0.101000*%
G04 APERTURE END LIST*
D10*
X16045000Y-3161000D02*
X16043156Y-10885156D01*
X11246843Y-11287156D02*
G75*
G02*
X10846844Y-10887157I-4J399996D01*
G01*
X15645000Y-2760000D02*
X11195000Y-2760000D01*
X11246843Y-11287156D02*
X15640157Y-11285157D01*
X15645000Y-2759999D02*
G75*
G02*
X16045000Y-3161000I0J-400001D01*
G01*
X16043168Y-10885156D02*
G75*
G02*
X15640157Y-11285157I-400009J-5D01*
G01*
X10845000Y-3110000D02*
G75*
G02*
X11195000Y-2760000I350000J0D01*
G01*
X10846844Y-10887157D02*
X10845000Y-3110000D01*
D11*
D12*
X11190542Y-5020000D02*
X11220542Y-5050000D01*
X11220542Y-5020000D02*
X11190542Y-5050000D01*
X11372457Y-5484500D02*
X11402457Y-5514500D01*
X11402457Y-5484500D02*
X11372457Y-5514500D01*
X11572457Y-6484500D02*
X11602457Y-6514500D01*
X11602457Y-6484500D02*
X11572457Y-6514500D01*
X11829042Y-5990500D02*
X11859042Y-6020500D01*
X11859042Y-5990500D02*
X11829042Y-6020500D01*
X11993000Y-6591000D02*
X12023000Y-6621000D01*
X12023000Y-6591000D02*
X11993000Y-6621000D01*
X12490000Y-7517000D02*
X12520000Y-7547000D01*
X12520000Y-7517000D02*
X12490000Y-7547000D01*
X12580000Y-8315000D02*
X12610000Y-8345000D01*
X12610000Y-8315000D02*
X12580000Y-8345000D01*
X12671000Y-8535000D02*
X12701000Y-8565000D01*
X12701000Y-8535000D02*
X12671000Y-8565000D01*
X12677000Y-6575000D02*
X12707000Y-6605000D01*
X12707000Y-6575000D02*
X12677000Y-6605000D01*
X12695000Y-10705000D02*
X12725000Y-10735000D01*
X12725000Y-10705000D02*
X12695000Y-10735000D01*
X12722500Y-9057500D02*
X12752500Y-9087500D01*
X12752500Y-9057500D02*
X12722500Y-9087500D01*
X12822500Y-8882500D02*
X12852500Y-8912500D01*
X12852500Y-8882500D02*
X12822500Y-8912500D01*
X12827500Y-8030000D02*
X12857500Y-8060000D01*
X12857500Y-8030000D02*
X12827500Y-8060000D01*
X12950000Y-10640000D02*
X12980000Y-10670000D01*
X12980000Y-10640000D02*
X12950000Y-10670000D01*
X13025000Y-7020000D02*
X13055000Y-7050000D01*
X13055000Y-7020000D02*
X13025000Y-7050000D01*
X13165000Y-9915000D02*
X13195000Y-9945000D01*
X13195000Y-9915000D02*
X13165000Y-9945000D01*
X13165000Y-10125000D02*
X13195000Y-10155000D01*
X13195000Y-10125000D02*
X13165000Y-10155000D01*
X13175000Y-10995000D02*
X13205000Y-11025000D01*
X13205000Y-10995000D02*
X13175000Y-11025000D01*
X13237500Y-7607500D02*
X13267500Y-7637500D01*
X13267500Y-7607500D02*
X13237500Y-7637500D01*
X13287000Y-8318000D02*
X13317000Y-8348000D01*
X13317000Y-8318000D02*
X13287000Y-8348000D01*
X13385000Y-9285000D02*
X13415000Y-9315000D01*
X13415000Y-9285000D02*
X13385000Y-9315000D01*
X13385000Y-10135000D02*
X13415000Y-10165000D01*
X13415000Y-10135000D02*
X13385000Y-10165000D01*
X13505000Y-7925000D02*
X13535000Y-7955000D01*
X13535000Y-7925000D02*
X13505000Y-7955000D01*
X13702500Y-7925000D02*
X13732500Y-7955000D01*
X13732500Y-7925000D02*
X13702500Y-7955000D01*
X13761000Y-9096000D02*
X13791000Y-9126000D01*
X13791000Y-9096000D02*
X13761000Y-9126000D01*
X13924000Y-7543750D02*
X13954000Y-7573750D01*
X13954000Y-7543750D02*
X13924000Y-7573750D01*
X13947500Y-8389325D02*
X13977500Y-8419325D01*
X13977500Y-8389325D02*
X13947500Y-8419325D01*
X13971000Y-8835000D02*
X14001000Y-8865000D01*
X14001000Y-8835000D02*
X13971000Y-8865000D01*
X14080750Y-6667000D02*
X14110750Y-6697000D01*
X14110750Y-6667000D02*
X14080750Y-6697000D01*
X14145000Y-7548750D02*
X14175000Y-7578750D01*
X14175000Y-7548750D02*
X14145000Y-7578750D01*
X14186250Y-8323750D02*
X14216250Y-8353750D01*
X14216250Y-8323750D02*
X14186250Y-8353750D01*
X14295573Y-8830574D02*
X14325573Y-8860574D01*
X14325573Y-8830574D02*
X14295573Y-8860574D01*
X14446000Y-8837000D02*
X14476000Y-8867000D01*
X14476000Y-8837000D02*
X14446000Y-8867000D01*
X14465000Y-5015000D02*
X14495000Y-5045000D01*
X14495000Y-5015000D02*
X14465000Y-5045000D01*
X14562000Y-8401000D02*
X14592000Y-8431000D01*
X14592000Y-8401000D02*
X14562000Y-8431000D01*
X14756000Y-7705000D02*
X14786000Y-7735000D01*
X14786000Y-7705000D02*
X14756000Y-7735000D01*
X14908000Y-8682000D02*
X14938000Y-8712000D01*
X14938000Y-8682000D02*
X14908000Y-8712000D01*
X15121250Y-6805000D02*
X15151250Y-6835000D01*
X15151250Y-6805000D02*
X15121250Y-6835000D01*
X15125000Y-8045000D02*
X15155000Y-8075000D01*
X15155000Y-8045000D02*
X15125000Y-8075000D01*
X15125000Y-8235000D02*
X15155000Y-8265000D01*
X15155000Y-8235000D02*
X15125000Y-8265000D01*
X15135000Y-7841000D02*
X15165000Y-7871000D01*
X15165000Y-7841000D02*
X15135000Y-7871000D01*
X15315000Y-5015000D02*
X15345000Y-5045000D01*
X15345000Y-5015000D02*
X15315000Y-5045000D01*
X15390000Y-8140000D02*
X15420000Y-8170000D01*
X15420000Y-8140000D02*
X15390000Y-8170000D01*
X13400600Y-6797500D02*
G75*
G02*
X13324400Y-6797500I-38100J0D01*
G01*
X13324400Y-6797500D02*
G75*
G02*
X13400600Y-6797500I38100J0D01*
G01*
X13654600Y-6797500D02*
G75*
G02*
X13578400Y-6797500I-38100J0D01*
G01*
X13578400Y-6797500D02*
G75*
G02*
X13654600Y-6797500I38100J0D01*
G01*
X14300000Y-7180000D02*
X14300000Y-7260000D01*
X14260000Y-7220000D02*
X14340000Y-7220000D01*
X14788000Y-7180000D02*
X14788000Y-7260000D01*
X14748000Y-7220000D02*
X14828000Y-7220000D01*
X13075356Y-4145356D02*
X13075356Y-4074644D01*
X13004644Y-4074644D01*
X13004644Y-4145356D01*
X13075356Y-4145356D01*
X14075356Y-4145356D02*
X14075356Y-4074644D01*
X14004644Y-4074644D01*
X14004644Y-4145356D01*
X14075356Y-4145356D01*
X14515356Y-5655356D02*
X14515356Y-5584644D01*
X14444644Y-5584644D01*
X14444644Y-5655356D01*
X14515356Y-5655356D01*
X14515356Y-6195356D02*
X14515356Y-6124644D01*
X14444644Y-6124644D01*
X14444644Y-6195356D01*
X14515356Y-6195356D01*
X15355356Y-5655356D02*
X15355356Y-5584644D01*
X15284644Y-5584644D01*
X15284644Y-5655356D01*
X15355356Y-5655356D01*
X15355356Y-6195356D02*
X15355356Y-6124644D01*
X15284644Y-6124644D01*
X15284644Y-6195356D01*
X15355356Y-6195356D01*
X15765356Y-9544356D02*
X15765356Y-9473644D01*
X15694644Y-9473644D01*
X15694644Y-9544356D01*
X15765356Y-9544356D01*
X15765356Y-9798356D02*
X15765356Y-9727644D01*
X15694644Y-9727644D01*
X15694644Y-9798356D01*
X15765356Y-9798356D01*
X15765356Y-10052356D02*
X15765356Y-9981644D01*
X15694644Y-9981644D01*
X15694644Y-10052356D01*
X15765356Y-10052356D01*
X15765356Y-10306356D02*
X15765356Y-10235644D01*
X15694644Y-10235644D01*
X15694644Y-10306356D01*
X15765356Y-10306356D01*
X15772856Y-8376356D02*
X15772856Y-8305644D01*
X15702144Y-8305644D01*
X15702144Y-8376356D01*
X15772856Y-8376356D01*
X15772856Y-8630356D02*
X15772856Y-8559644D01*
X15702144Y-8559644D01*
X15702144Y-8630356D01*
X15772856Y-8630356D01*
X15772856Y-8884356D02*
X15772856Y-8813644D01*
X15702144Y-8813644D01*
X15702144Y-8884356D01*
X15772856Y-8884356D01*
X15772856Y-9138356D02*
X15772856Y-9067644D01*
X15702144Y-9067644D01*
X15702144Y-9138356D01*
X15772856Y-9138356D01*
D13*
X11375000Y-8210488D02*
X11425500Y-8159988D01*
X11375000Y-8109488D01*
X11324500Y-8159988D01*
X11375000Y-8210488D01*
X11375000Y-9010488D02*
X11425500Y-8959988D01*
X11375000Y-8909488D01*
X11324500Y-8959988D01*
X11375000Y-9010488D01*
D11*
X11103277Y-11601140D02*
X11103277Y-11401140D01*
X11103277Y-11401140D02*
X11150896Y-11401140D01*
X11150896Y-11401140D02*
X11179467Y-11410664D01*
X11179467Y-11410664D02*
X11198515Y-11429712D01*
X11198515Y-11429712D02*
X11208039Y-11448759D01*
X11208039Y-11448759D02*
X11217562Y-11486854D01*
X11217562Y-11486854D02*
X11217562Y-11515426D01*
X11217562Y-11515426D02*
X11208039Y-11553521D01*
X11208039Y-11553521D02*
X11198515Y-11572569D01*
X11198515Y-11572569D02*
X11179467Y-11591616D01*
X11179467Y-11591616D02*
X11150896Y-11601140D01*
X11150896Y-11601140D02*
X11103277Y-11601140D01*
X11303277Y-11601140D02*
X11303277Y-11467807D01*
X11303277Y-11505902D02*
X11312801Y-11486854D01*
X11312801Y-11486854D02*
X11322324Y-11477331D01*
X11322324Y-11477331D02*
X11341372Y-11467807D01*
X11341372Y-11467807D02*
X11360420Y-11467807D01*
X11427086Y-11601140D02*
X11427086Y-11467807D01*
X11427086Y-11401140D02*
X11417562Y-11410664D01*
X11417562Y-11410664D02*
X11427086Y-11420188D01*
X11427086Y-11420188D02*
X11436610Y-11410664D01*
X11436610Y-11410664D02*
X11427086Y-11401140D01*
X11427086Y-11401140D02*
X11427086Y-11420188D01*
X11550896Y-11601140D02*
X11531848Y-11591616D01*
X11531848Y-11591616D02*
X11522324Y-11572569D01*
X11522324Y-11572569D02*
X11522324Y-11401140D01*
X11655658Y-11601140D02*
X11636610Y-11591616D01*
X11636610Y-11591616D02*
X11627086Y-11572569D01*
X11627086Y-11572569D02*
X11627086Y-11401140D01*
X11884229Y-11601140D02*
X11884229Y-11401140D01*
X11884229Y-11401140D02*
X11950896Y-11543997D01*
X11950896Y-11543997D02*
X12017562Y-11401140D01*
X12017562Y-11401140D02*
X12017562Y-11601140D01*
X12198515Y-11601140D02*
X12198515Y-11496378D01*
X12198515Y-11496378D02*
X12188991Y-11477331D01*
X12188991Y-11477331D02*
X12169943Y-11467807D01*
X12169943Y-11467807D02*
X12131848Y-11467807D01*
X12131848Y-11467807D02*
X12112801Y-11477331D01*
X12198515Y-11591616D02*
X12179467Y-11601140D01*
X12179467Y-11601140D02*
X12131848Y-11601140D01*
X12131848Y-11601140D02*
X12112801Y-11591616D01*
X12112801Y-11591616D02*
X12103277Y-11572569D01*
X12103277Y-11572569D02*
X12103277Y-11553521D01*
X12103277Y-11553521D02*
X12112801Y-11534474D01*
X12112801Y-11534474D02*
X12131848Y-11524950D01*
X12131848Y-11524950D02*
X12179467Y-11524950D01*
X12179467Y-11524950D02*
X12198515Y-11515426D01*
X12293753Y-11467807D02*
X12293753Y-11667807D01*
X12293753Y-11477331D02*
X12312801Y-11467807D01*
X12312801Y-11467807D02*
X12350896Y-11467807D01*
X12350896Y-11467807D02*
X12369943Y-11477331D01*
X12369943Y-11477331D02*
X12379467Y-11486854D01*
X12379467Y-11486854D02*
X12388991Y-11505902D01*
X12388991Y-11505902D02*
X12388991Y-11563045D01*
X12388991Y-11563045D02*
X12379467Y-11582093D01*
X12379467Y-11582093D02*
X12369943Y-11591616D01*
X12369943Y-11591616D02*
X12350896Y-11601140D01*
X12350896Y-11601140D02*
X12312801Y-11601140D01*
X12312801Y-11601140D02*
X12293753Y-11591616D01*
X12474705Y-11582093D02*
X12484229Y-11591616D01*
X12484229Y-11591616D02*
X12474705Y-11601140D01*
X12474705Y-11601140D02*
X12465182Y-11591616D01*
X12465182Y-11591616D02*
X12474705Y-11582093D01*
X12474705Y-11582093D02*
X12474705Y-11601140D01*
X12474705Y-11477331D02*
X12484229Y-11486854D01*
X12484229Y-11486854D02*
X12474705Y-11496378D01*
X12474705Y-11496378D02*
X12465182Y-11486854D01*
X12465182Y-11486854D02*
X12474705Y-11477331D01*
X12474705Y-11477331D02*
X12474705Y-11496378D01*
D12*
X10812500Y-11914656D02*
X10842500Y-11944656D01*
X10842500Y-11914656D02*
X10812500Y-11944656D01*
D11*
X11141372Y-11821140D02*
X11160420Y-11821140D01*
X11160420Y-11821140D02*
X11179467Y-11830664D01*
X11179467Y-11830664D02*
X11188991Y-11840188D01*
X11188991Y-11840188D02*
X11198515Y-11859235D01*
X11198515Y-11859235D02*
X11208039Y-11897331D01*
X11208039Y-11897331D02*
X11208039Y-11944950D01*
X11208039Y-11944950D02*
X11198515Y-11983045D01*
X11198515Y-11983045D02*
X11188991Y-12002093D01*
X11188991Y-12002093D02*
X11179467Y-12011616D01*
X11179467Y-12011616D02*
X11160420Y-12021140D01*
X11160420Y-12021140D02*
X11141372Y-12021140D01*
X11141372Y-12021140D02*
X11122324Y-12011616D01*
X11122324Y-12011616D02*
X11112801Y-12002093D01*
X11112801Y-12002093D02*
X11103277Y-11983045D01*
X11103277Y-11983045D02*
X11093753Y-11944950D01*
X11093753Y-11944950D02*
X11093753Y-11897331D01*
X11093753Y-11897331D02*
X11103277Y-11859235D01*
X11103277Y-11859235D02*
X11112801Y-11840188D01*
X11112801Y-11840188D02*
X11122324Y-11830664D01*
X11122324Y-11830664D02*
X11141372Y-11821140D01*
X11293753Y-12002093D02*
X11303277Y-12011616D01*
X11303277Y-12011616D02*
X11293753Y-12021140D01*
X11293753Y-12021140D02*
X11284229Y-12011616D01*
X11284229Y-12011616D02*
X11293753Y-12002093D01*
X11293753Y-12002093D02*
X11293753Y-12021140D01*
X11369943Y-11821140D02*
X11493753Y-11821140D01*
X11493753Y-11821140D02*
X11427086Y-11897331D01*
X11427086Y-11897331D02*
X11455658Y-11897331D01*
X11455658Y-11897331D02*
X11474705Y-11906854D01*
X11474705Y-11906854D02*
X11484229Y-11916378D01*
X11484229Y-11916378D02*
X11493753Y-11935426D01*
X11493753Y-11935426D02*
X11493753Y-11983045D01*
X11493753Y-11983045D02*
X11484229Y-12002093D01*
X11484229Y-12002093D02*
X11474705Y-12011616D01*
X11474705Y-12011616D02*
X11455658Y-12021140D01*
X11455658Y-12021140D02*
X11398515Y-12021140D01*
X11398515Y-12021140D02*
X11379467Y-12011616D01*
X11379467Y-12011616D02*
X11369943Y-12002093D01*
X11617562Y-11821140D02*
X11636610Y-11821140D01*
X11636610Y-11821140D02*
X11655658Y-11830664D01*
X11655658Y-11830664D02*
X11665182Y-11840188D01*
X11665182Y-11840188D02*
X11674705Y-11859235D01*
X11674705Y-11859235D02*
X11684229Y-11897331D01*
X11684229Y-11897331D02*
X11684229Y-11944950D01*
X11684229Y-11944950D02*
X11674705Y-11983045D01*
X11674705Y-11983045D02*
X11665182Y-12002093D01*
X11665182Y-12002093D02*
X11655658Y-12011616D01*
X11655658Y-12011616D02*
X11636610Y-12021140D01*
X11636610Y-12021140D02*
X11617562Y-12021140D01*
X11617562Y-12021140D02*
X11598515Y-12011616D01*
X11598515Y-12011616D02*
X11588991Y-12002093D01*
X11588991Y-12002093D02*
X11579467Y-11983045D01*
X11579467Y-11983045D02*
X11569943Y-11944950D01*
X11569943Y-11944950D02*
X11569943Y-11897331D01*
X11569943Y-11897331D02*
X11579467Y-11859235D01*
X11579467Y-11859235D02*
X11588991Y-11840188D01*
X11588991Y-11840188D02*
X11598515Y-11830664D01*
X11598515Y-11830664D02*
X11617562Y-11821140D01*
X11808039Y-11821140D02*
X11827086Y-11821140D01*
X11827086Y-11821140D02*
X11846134Y-11830664D01*
X11846134Y-11830664D02*
X11855658Y-11840188D01*
X11855658Y-11840188D02*
X11865182Y-11859235D01*
X11865182Y-11859235D02*
X11874705Y-11897331D01*
X11874705Y-11897331D02*
X11874705Y-11944950D01*
X11874705Y-11944950D02*
X11865182Y-11983045D01*
X11865182Y-11983045D02*
X11855658Y-12002093D01*
X11855658Y-12002093D02*
X11846134Y-12011616D01*
X11846134Y-12011616D02*
X11827086Y-12021140D01*
X11827086Y-12021140D02*
X11808039Y-12021140D01*
X11808039Y-12021140D02*
X11788991Y-12011616D01*
X11788991Y-12011616D02*
X11779467Y-12002093D01*
X11779467Y-12002093D02*
X11769943Y-11983045D01*
X11769943Y-11983045D02*
X11760420Y-11944950D01*
X11760420Y-11944950D02*
X11760420Y-11897331D01*
X11760420Y-11897331D02*
X11769943Y-11859235D01*
X11769943Y-11859235D02*
X11779467Y-11840188D01*
X11779467Y-11840188D02*
X11788991Y-11830664D01*
X11788991Y-11830664D02*
X11808039Y-11821140D01*
X11960420Y-12021140D02*
X11960420Y-11887807D01*
X11960420Y-11906854D02*
X11969943Y-11897331D01*
X11969943Y-11897331D02*
X11988991Y-11887807D01*
X11988991Y-11887807D02*
X12017563Y-11887807D01*
X12017563Y-11887807D02*
X12036610Y-11897331D01*
X12036610Y-11897331D02*
X12046134Y-11916378D01*
X12046134Y-11916378D02*
X12046134Y-12021140D01*
X12046134Y-11916378D02*
X12055658Y-11897331D01*
X12055658Y-11897331D02*
X12074705Y-11887807D01*
X12074705Y-11887807D02*
X12103277Y-11887807D01*
X12103277Y-11887807D02*
X12122324Y-11897331D01*
X12122324Y-11897331D02*
X12131848Y-11916378D01*
X12131848Y-11916378D02*
X12131848Y-12021140D01*
X12227086Y-12021140D02*
X12227086Y-11887807D01*
X12227086Y-11906854D02*
X12236610Y-11897331D01*
X12236610Y-11897331D02*
X12255658Y-11887807D01*
X12255658Y-11887807D02*
X12284229Y-11887807D01*
X12284229Y-11887807D02*
X12303277Y-11897331D01*
X12303277Y-11897331D02*
X12312801Y-11916378D01*
X12312801Y-11916378D02*
X12312801Y-12021140D01*
X12312801Y-11916378D02*
X12322324Y-11897331D01*
X12322324Y-11897331D02*
X12341372Y-11887807D01*
X12341372Y-11887807D02*
X12369943Y-11887807D01*
X12369943Y-11887807D02*
X12388991Y-11897331D01*
X12388991Y-11897331D02*
X12398515Y-11916378D01*
X12398515Y-11916378D02*
X12398515Y-12021140D01*
X12788991Y-11811616D02*
X12617563Y-12068759D01*
X13046134Y-11821140D02*
X13065182Y-11821140D01*
X13065182Y-11821140D02*
X13084229Y-11830664D01*
X13084229Y-11830664D02*
X13093753Y-11840188D01*
X13093753Y-11840188D02*
X13103277Y-11859235D01*
X13103277Y-11859235D02*
X13112801Y-11897331D01*
X13112801Y-11897331D02*
X13112801Y-11944950D01*
X13112801Y-11944950D02*
X13103277Y-11983045D01*
X13103277Y-11983045D02*
X13093753Y-12002093D01*
X13093753Y-12002093D02*
X13084229Y-12011616D01*
X13084229Y-12011616D02*
X13065182Y-12021140D01*
X13065182Y-12021140D02*
X13046134Y-12021140D01*
X13046134Y-12021140D02*
X13027086Y-12011616D01*
X13027086Y-12011616D02*
X13017563Y-12002093D01*
X13017563Y-12002093D02*
X13008039Y-11983045D01*
X13008039Y-11983045D02*
X12998515Y-11944950D01*
X12998515Y-11944950D02*
X12998515Y-11897331D01*
X12998515Y-11897331D02*
X13008039Y-11859235D01*
X13008039Y-11859235D02*
X13017563Y-11840188D01*
X13017563Y-11840188D02*
X13027086Y-11830664D01*
X13027086Y-11830664D02*
X13046134Y-11821140D01*
X13198515Y-12002093D02*
X13208039Y-12011616D01*
X13208039Y-12011616D02*
X13198515Y-12021140D01*
X13198515Y-12021140D02*
X13188991Y-12011616D01*
X13188991Y-12011616D02*
X13198515Y-12002093D01*
X13198515Y-12002093D02*
X13198515Y-12021140D01*
X13331848Y-11821140D02*
X13350896Y-11821140D01*
X13350896Y-11821140D02*
X13369944Y-11830664D01*
X13369944Y-11830664D02*
X13379467Y-11840188D01*
X13379467Y-11840188D02*
X13388991Y-11859235D01*
X13388991Y-11859235D02*
X13398515Y-11897331D01*
X13398515Y-11897331D02*
X13398515Y-11944950D01*
X13398515Y-11944950D02*
X13388991Y-11983045D01*
X13388991Y-11983045D02*
X13379467Y-12002093D01*
X13379467Y-12002093D02*
X13369944Y-12011616D01*
X13369944Y-12011616D02*
X13350896Y-12021140D01*
X13350896Y-12021140D02*
X13331848Y-12021140D01*
X13331848Y-12021140D02*
X13312801Y-12011616D01*
X13312801Y-12011616D02*
X13303277Y-12002093D01*
X13303277Y-12002093D02*
X13293753Y-11983045D01*
X13293753Y-11983045D02*
X13284229Y-11944950D01*
X13284229Y-11944950D02*
X13284229Y-11897331D01*
X13284229Y-11897331D02*
X13293753Y-11859235D01*
X13293753Y-11859235D02*
X13303277Y-11840188D01*
X13303277Y-11840188D02*
X13312801Y-11830664D01*
X13312801Y-11830664D02*
X13331848Y-11821140D01*
X13588991Y-12021140D02*
X13474706Y-12021140D01*
X13531848Y-12021140D02*
X13531848Y-11821140D01*
X13531848Y-11821140D02*
X13512801Y-11849712D01*
X13512801Y-11849712D02*
X13493753Y-11868759D01*
X13493753Y-11868759D02*
X13474706Y-11878283D01*
X13779467Y-12021140D02*
X13665182Y-12021140D01*
X13722325Y-12021140D02*
X13722325Y-11821140D01*
X13722325Y-11821140D02*
X13703277Y-11849712D01*
X13703277Y-11849712D02*
X13684229Y-11868759D01*
X13684229Y-11868759D02*
X13665182Y-11878283D01*
X13893753Y-11906854D02*
X13874706Y-11897331D01*
X13874706Y-11897331D02*
X13865182Y-11887807D01*
X13865182Y-11887807D02*
X13855658Y-11868759D01*
X13855658Y-11868759D02*
X13855658Y-11859235D01*
X13855658Y-11859235D02*
X13865182Y-11840188D01*
X13865182Y-11840188D02*
X13874706Y-11830664D01*
X13874706Y-11830664D02*
X13893753Y-11821140D01*
X13893753Y-11821140D02*
X13931848Y-11821140D01*
X13931848Y-11821140D02*
X13950896Y-11830664D01*
X13950896Y-11830664D02*
X13960420Y-11840188D01*
X13960420Y-11840188D02*
X13969944Y-11859235D01*
X13969944Y-11859235D02*
X13969944Y-11868759D01*
X13969944Y-11868759D02*
X13960420Y-11887807D01*
X13960420Y-11887807D02*
X13950896Y-11897331D01*
X13950896Y-11897331D02*
X13931848Y-11906854D01*
X13931848Y-11906854D02*
X13893753Y-11906854D01*
X13893753Y-11906854D02*
X13874706Y-11916378D01*
X13874706Y-11916378D02*
X13865182Y-11925902D01*
X13865182Y-11925902D02*
X13855658Y-11944950D01*
X13855658Y-11944950D02*
X13855658Y-11983045D01*
X13855658Y-11983045D02*
X13865182Y-12002093D01*
X13865182Y-12002093D02*
X13874706Y-12011616D01*
X13874706Y-12011616D02*
X13893753Y-12021140D01*
X13893753Y-12021140D02*
X13931848Y-12021140D01*
X13931848Y-12021140D02*
X13950896Y-12011616D01*
X13950896Y-12011616D02*
X13960420Y-12002093D01*
X13960420Y-12002093D02*
X13969944Y-11983045D01*
X13969944Y-11983045D02*
X13969944Y-11944950D01*
X13969944Y-11944950D02*
X13960420Y-11925902D01*
X13960420Y-11925902D02*
X13950896Y-11916378D01*
X13950896Y-11916378D02*
X13931848Y-11906854D01*
X14046134Y-11821140D02*
X14046134Y-11859235D01*
X14122325Y-11821140D02*
X14122325Y-11859235D01*
X14417563Y-12097331D02*
X14408039Y-12087807D01*
X14408039Y-12087807D02*
X14388991Y-12059235D01*
X14388991Y-12059235D02*
X14379468Y-12040188D01*
X14379468Y-12040188D02*
X14369944Y-12011616D01*
X14369944Y-12011616D02*
X14360420Y-11963997D01*
X14360420Y-11963997D02*
X14360420Y-11925902D01*
X14360420Y-11925902D02*
X14369944Y-11878283D01*
X14369944Y-11878283D02*
X14379468Y-11849712D01*
X14379468Y-11849712D02*
X14388991Y-11830664D01*
X14388991Y-11830664D02*
X14408039Y-11802093D01*
X14408039Y-11802093D02*
X14417563Y-11792569D01*
X14579468Y-11887807D02*
X14579468Y-12021140D01*
X14531848Y-11811616D02*
X14484229Y-11954474D01*
X14484229Y-11954474D02*
X14608039Y-11954474D01*
X14665182Y-11821140D02*
X14788991Y-11821140D01*
X14788991Y-11821140D02*
X14722325Y-11897331D01*
X14722325Y-11897331D02*
X14750896Y-11897331D01*
X14750896Y-11897331D02*
X14769944Y-11906854D01*
X14769944Y-11906854D02*
X14779468Y-11916378D01*
X14779468Y-11916378D02*
X14788991Y-11935426D01*
X14788991Y-11935426D02*
X14788991Y-11983045D01*
X14788991Y-11983045D02*
X14779468Y-12002093D01*
X14779468Y-12002093D02*
X14769944Y-12011616D01*
X14769944Y-12011616D02*
X14750896Y-12021140D01*
X14750896Y-12021140D02*
X14693753Y-12021140D01*
X14693753Y-12021140D02*
X14674706Y-12011616D01*
X14674706Y-12011616D02*
X14665182Y-12002093D01*
X15027087Y-12021140D02*
X15027087Y-11821140D01*
X15112801Y-12021140D02*
X15112801Y-11916378D01*
X15112801Y-11916378D02*
X15103277Y-11897331D01*
X15103277Y-11897331D02*
X15084230Y-11887807D01*
X15084230Y-11887807D02*
X15055658Y-11887807D01*
X15055658Y-11887807D02*
X15036610Y-11897331D01*
X15036610Y-11897331D02*
X15027087Y-11906854D01*
X15236610Y-12021140D02*
X15217563Y-12011616D01*
X15217563Y-12011616D02*
X15208039Y-12002093D01*
X15208039Y-12002093D02*
X15198515Y-11983045D01*
X15198515Y-11983045D02*
X15198515Y-11925902D01*
X15198515Y-11925902D02*
X15208039Y-11906854D01*
X15208039Y-11906854D02*
X15217563Y-11897331D01*
X15217563Y-11897331D02*
X15236610Y-11887807D01*
X15236610Y-11887807D02*
X15265182Y-11887807D01*
X15265182Y-11887807D02*
X15284230Y-11897331D01*
X15284230Y-11897331D02*
X15293753Y-11906854D01*
X15293753Y-11906854D02*
X15303277Y-11925902D01*
X15303277Y-11925902D02*
X15303277Y-11983045D01*
X15303277Y-11983045D02*
X15293753Y-12002093D01*
X15293753Y-12002093D02*
X15284230Y-12011616D01*
X15284230Y-12011616D02*
X15265182Y-12021140D01*
X15265182Y-12021140D02*
X15236610Y-12021140D01*
X15417563Y-12021140D02*
X15398515Y-12011616D01*
X15398515Y-12011616D02*
X15388991Y-11992569D01*
X15388991Y-11992569D02*
X15388991Y-11821140D01*
X15569944Y-12011616D02*
X15550896Y-12021140D01*
X15550896Y-12021140D02*
X15512801Y-12021140D01*
X15512801Y-12021140D02*
X15493753Y-12011616D01*
X15493753Y-12011616D02*
X15484230Y-11992569D01*
X15484230Y-11992569D02*
X15484230Y-11916378D01*
X15484230Y-11916378D02*
X15493753Y-11897331D01*
X15493753Y-11897331D02*
X15512801Y-11887807D01*
X15512801Y-11887807D02*
X15550896Y-11887807D01*
X15550896Y-11887807D02*
X15569944Y-11897331D01*
X15569944Y-11897331D02*
X15579468Y-11916378D01*
X15579468Y-11916378D02*
X15579468Y-11935426D01*
X15579468Y-11935426D02*
X15484230Y-11954474D01*
X15655658Y-12011616D02*
X15674706Y-12021140D01*
X15674706Y-12021140D02*
X15712801Y-12021140D01*
X15712801Y-12021140D02*
X15731849Y-12011616D01*
X15731849Y-12011616D02*
X15741372Y-11992569D01*
X15741372Y-11992569D02*
X15741372Y-11983045D01*
X15741372Y-11983045D02*
X15731849Y-11963997D01*
X15731849Y-11963997D02*
X15712801Y-11954474D01*
X15712801Y-11954474D02*
X15684230Y-11954474D01*
X15684230Y-11954474D02*
X15665182Y-11944950D01*
X15665182Y-11944950D02*
X15655658Y-11925902D01*
X15655658Y-11925902D02*
X15655658Y-11916378D01*
X15655658Y-11916378D02*
X15665182Y-11897331D01*
X15665182Y-11897331D02*
X15684230Y-11887807D01*
X15684230Y-11887807D02*
X15712801Y-11887807D01*
X15712801Y-11887807D02*
X15731849Y-11897331D01*
X15808039Y-12097331D02*
X15817563Y-12087807D01*
X15817563Y-12087807D02*
X15836611Y-12059235D01*
X15836611Y-12059235D02*
X15846134Y-12040188D01*
X15846134Y-12040188D02*
X15855658Y-12011616D01*
X15855658Y-12011616D02*
X15865182Y-11963997D01*
X15865182Y-11963997D02*
X15865182Y-11925902D01*
X15865182Y-11925902D02*
X15855658Y-11878283D01*
X15855658Y-11878283D02*
X15846134Y-11849712D01*
X15846134Y-11849712D02*
X15836611Y-11830664D01*
X15836611Y-11830664D02*
X15817563Y-11802093D01*
X15817563Y-11802093D02*
X15808039Y-11792569D01*
D12*
X10842500Y-12193656D02*
G75*
G02*
X10766300Y-12193656I-38100J0D01*
G01*
X10766300Y-12193656D02*
G75*
G02*
X10842500Y-12193656I38100J0D01*
G01*
D11*
X11141372Y-12085140D02*
X11160420Y-12085140D01*
X11160420Y-12085140D02*
X11179467Y-12094664D01*
X11179467Y-12094664D02*
X11188991Y-12104188D01*
X11188991Y-12104188D02*
X11198515Y-12123235D01*
X11198515Y-12123235D02*
X11208039Y-12161331D01*
X11208039Y-12161331D02*
X11208039Y-12208950D01*
X11208039Y-12208950D02*
X11198515Y-12247045D01*
X11198515Y-12247045D02*
X11188991Y-12266093D01*
X11188991Y-12266093D02*
X11179467Y-12275616D01*
X11179467Y-12275616D02*
X11160420Y-12285140D01*
X11160420Y-12285140D02*
X11141372Y-12285140D01*
X11141372Y-12285140D02*
X11122324Y-12275616D01*
X11122324Y-12275616D02*
X11112801Y-12266093D01*
X11112801Y-12266093D02*
X11103277Y-12247045D01*
X11103277Y-12247045D02*
X11093753Y-12208950D01*
X11093753Y-12208950D02*
X11093753Y-12161331D01*
X11093753Y-12161331D02*
X11103277Y-12123235D01*
X11103277Y-12123235D02*
X11112801Y-12104188D01*
X11112801Y-12104188D02*
X11122324Y-12094664D01*
X11122324Y-12094664D02*
X11141372Y-12085140D01*
X11293753Y-12266093D02*
X11303277Y-12275616D01*
X11303277Y-12275616D02*
X11293753Y-12285140D01*
X11293753Y-12285140D02*
X11284229Y-12275616D01*
X11284229Y-12275616D02*
X11293753Y-12266093D01*
X11293753Y-12266093D02*
X11293753Y-12285140D01*
X11369943Y-12085140D02*
X11503277Y-12085140D01*
X11503277Y-12085140D02*
X11417562Y-12285140D01*
X11665182Y-12085140D02*
X11627086Y-12085140D01*
X11627086Y-12085140D02*
X11608039Y-12094664D01*
X11608039Y-12094664D02*
X11598515Y-12104188D01*
X11598515Y-12104188D02*
X11579467Y-12132759D01*
X11579467Y-12132759D02*
X11569943Y-12170854D01*
X11569943Y-12170854D02*
X11569943Y-12247045D01*
X11569943Y-12247045D02*
X11579467Y-12266093D01*
X11579467Y-12266093D02*
X11588991Y-12275616D01*
X11588991Y-12275616D02*
X11608039Y-12285140D01*
X11608039Y-12285140D02*
X11646134Y-12285140D01*
X11646134Y-12285140D02*
X11665182Y-12275616D01*
X11665182Y-12275616D02*
X11674705Y-12266093D01*
X11674705Y-12266093D02*
X11684229Y-12247045D01*
X11684229Y-12247045D02*
X11684229Y-12199426D01*
X11684229Y-12199426D02*
X11674705Y-12180378D01*
X11674705Y-12180378D02*
X11665182Y-12170854D01*
X11665182Y-12170854D02*
X11646134Y-12161331D01*
X11646134Y-12161331D02*
X11608039Y-12161331D01*
X11608039Y-12161331D02*
X11588991Y-12170854D01*
X11588991Y-12170854D02*
X11579467Y-12180378D01*
X11579467Y-12180378D02*
X11569943Y-12199426D01*
X11760420Y-12104188D02*
X11769943Y-12094664D01*
X11769943Y-12094664D02*
X11788991Y-12085140D01*
X11788991Y-12085140D02*
X11836610Y-12085140D01*
X11836610Y-12085140D02*
X11855658Y-12094664D01*
X11855658Y-12094664D02*
X11865182Y-12104188D01*
X11865182Y-12104188D02*
X11874705Y-12123235D01*
X11874705Y-12123235D02*
X11874705Y-12142283D01*
X11874705Y-12142283D02*
X11865182Y-12170854D01*
X11865182Y-12170854D02*
X11750896Y-12285140D01*
X11750896Y-12285140D02*
X11874705Y-12285140D01*
X11960420Y-12285140D02*
X11960420Y-12151807D01*
X11960420Y-12170854D02*
X11969943Y-12161331D01*
X11969943Y-12161331D02*
X11988991Y-12151807D01*
X11988991Y-12151807D02*
X12017563Y-12151807D01*
X12017563Y-12151807D02*
X12036610Y-12161331D01*
X12036610Y-12161331D02*
X12046134Y-12180378D01*
X12046134Y-12180378D02*
X12046134Y-12285140D01*
X12046134Y-12180378D02*
X12055658Y-12161331D01*
X12055658Y-12161331D02*
X12074705Y-12151807D01*
X12074705Y-12151807D02*
X12103277Y-12151807D01*
X12103277Y-12151807D02*
X12122324Y-12161331D01*
X12122324Y-12161331D02*
X12131848Y-12180378D01*
X12131848Y-12180378D02*
X12131848Y-12285140D01*
X12227086Y-12285140D02*
X12227086Y-12151807D01*
X12227086Y-12170854D02*
X12236610Y-12161331D01*
X12236610Y-12161331D02*
X12255658Y-12151807D01*
X12255658Y-12151807D02*
X12284229Y-12151807D01*
X12284229Y-12151807D02*
X12303277Y-12161331D01*
X12303277Y-12161331D02*
X12312801Y-12180378D01*
X12312801Y-12180378D02*
X12312801Y-12285140D01*
X12312801Y-12180378D02*
X12322324Y-12161331D01*
X12322324Y-12161331D02*
X12341372Y-12151807D01*
X12341372Y-12151807D02*
X12369943Y-12151807D01*
X12369943Y-12151807D02*
X12388991Y-12161331D01*
X12388991Y-12161331D02*
X12398515Y-12180378D01*
X12398515Y-12180378D02*
X12398515Y-12285140D01*
X12788991Y-12075616D02*
X12617563Y-12332759D01*
X13046134Y-12085140D02*
X13065182Y-12085140D01*
X13065182Y-12085140D02*
X13084229Y-12094664D01*
X13084229Y-12094664D02*
X13093753Y-12104188D01*
X13093753Y-12104188D02*
X13103277Y-12123235D01*
X13103277Y-12123235D02*
X13112801Y-12161331D01*
X13112801Y-12161331D02*
X13112801Y-12208950D01*
X13112801Y-12208950D02*
X13103277Y-12247045D01*
X13103277Y-12247045D02*
X13093753Y-12266093D01*
X13093753Y-12266093D02*
X13084229Y-12275616D01*
X13084229Y-12275616D02*
X13065182Y-12285140D01*
X13065182Y-12285140D02*
X13046134Y-12285140D01*
X13046134Y-12285140D02*
X13027086Y-12275616D01*
X13027086Y-12275616D02*
X13017563Y-12266093D01*
X13017563Y-12266093D02*
X13008039Y-12247045D01*
X13008039Y-12247045D02*
X12998515Y-12208950D01*
X12998515Y-12208950D02*
X12998515Y-12161331D01*
X12998515Y-12161331D02*
X13008039Y-12123235D01*
X13008039Y-12123235D02*
X13017563Y-12104188D01*
X13017563Y-12104188D02*
X13027086Y-12094664D01*
X13027086Y-12094664D02*
X13046134Y-12085140D01*
X13198515Y-12266093D02*
X13208039Y-12275616D01*
X13208039Y-12275616D02*
X13198515Y-12285140D01*
X13198515Y-12285140D02*
X13188991Y-12275616D01*
X13188991Y-12275616D02*
X13198515Y-12266093D01*
X13198515Y-12266093D02*
X13198515Y-12285140D01*
X13331848Y-12085140D02*
X13350896Y-12085140D01*
X13350896Y-12085140D02*
X13369944Y-12094664D01*
X13369944Y-12094664D02*
X13379467Y-12104188D01*
X13379467Y-12104188D02*
X13388991Y-12123235D01*
X13388991Y-12123235D02*
X13398515Y-12161331D01*
X13398515Y-12161331D02*
X13398515Y-12208950D01*
X13398515Y-12208950D02*
X13388991Y-12247045D01*
X13388991Y-12247045D02*
X13379467Y-12266093D01*
X13379467Y-12266093D02*
X13369944Y-12275616D01*
X13369944Y-12275616D02*
X13350896Y-12285140D01*
X13350896Y-12285140D02*
X13331848Y-12285140D01*
X13331848Y-12285140D02*
X13312801Y-12275616D01*
X13312801Y-12275616D02*
X13303277Y-12266093D01*
X13303277Y-12266093D02*
X13293753Y-12247045D01*
X13293753Y-12247045D02*
X13284229Y-12208950D01*
X13284229Y-12208950D02*
X13284229Y-12161331D01*
X13284229Y-12161331D02*
X13293753Y-12123235D01*
X13293753Y-12123235D02*
X13303277Y-12104188D01*
X13303277Y-12104188D02*
X13312801Y-12094664D01*
X13312801Y-12094664D02*
X13331848Y-12085140D01*
X13465182Y-12085140D02*
X13588991Y-12085140D01*
X13588991Y-12085140D02*
X13522325Y-12161331D01*
X13522325Y-12161331D02*
X13550896Y-12161331D01*
X13550896Y-12161331D02*
X13569944Y-12170854D01*
X13569944Y-12170854D02*
X13579467Y-12180378D01*
X13579467Y-12180378D02*
X13588991Y-12199426D01*
X13588991Y-12199426D02*
X13588991Y-12247045D01*
X13588991Y-12247045D02*
X13579467Y-12266093D01*
X13579467Y-12266093D02*
X13569944Y-12275616D01*
X13569944Y-12275616D02*
X13550896Y-12285140D01*
X13550896Y-12285140D02*
X13493753Y-12285140D01*
X13493753Y-12285140D02*
X13474706Y-12275616D01*
X13474706Y-12275616D02*
X13465182Y-12266093D01*
X13712801Y-12085140D02*
X13731848Y-12085140D01*
X13731848Y-12085140D02*
X13750896Y-12094664D01*
X13750896Y-12094664D02*
X13760420Y-12104188D01*
X13760420Y-12104188D02*
X13769944Y-12123235D01*
X13769944Y-12123235D02*
X13779467Y-12161331D01*
X13779467Y-12161331D02*
X13779467Y-12208950D01*
X13779467Y-12208950D02*
X13769944Y-12247045D01*
X13769944Y-12247045D02*
X13760420Y-12266093D01*
X13760420Y-12266093D02*
X13750896Y-12275616D01*
X13750896Y-12275616D02*
X13731848Y-12285140D01*
X13731848Y-12285140D02*
X13712801Y-12285140D01*
X13712801Y-12285140D02*
X13693753Y-12275616D01*
X13693753Y-12275616D02*
X13684229Y-12266093D01*
X13684229Y-12266093D02*
X13674706Y-12247045D01*
X13674706Y-12247045D02*
X13665182Y-12208950D01*
X13665182Y-12208950D02*
X13665182Y-12161331D01*
X13665182Y-12161331D02*
X13674706Y-12123235D01*
X13674706Y-12123235D02*
X13684229Y-12104188D01*
X13684229Y-12104188D02*
X13693753Y-12094664D01*
X13693753Y-12094664D02*
X13712801Y-12085140D01*
X13903277Y-12085140D02*
X13922325Y-12085140D01*
X13922325Y-12085140D02*
X13941372Y-12094664D01*
X13941372Y-12094664D02*
X13950896Y-12104188D01*
X13950896Y-12104188D02*
X13960420Y-12123235D01*
X13960420Y-12123235D02*
X13969944Y-12161331D01*
X13969944Y-12161331D02*
X13969944Y-12208950D01*
X13969944Y-12208950D02*
X13960420Y-12247045D01*
X13960420Y-12247045D02*
X13950896Y-12266093D01*
X13950896Y-12266093D02*
X13941372Y-12275616D01*
X13941372Y-12275616D02*
X13922325Y-12285140D01*
X13922325Y-12285140D02*
X13903277Y-12285140D01*
X13903277Y-12285140D02*
X13884229Y-12275616D01*
X13884229Y-12275616D02*
X13874706Y-12266093D01*
X13874706Y-12266093D02*
X13865182Y-12247045D01*
X13865182Y-12247045D02*
X13855658Y-12208950D01*
X13855658Y-12208950D02*
X13855658Y-12161331D01*
X13855658Y-12161331D02*
X13865182Y-12123235D01*
X13865182Y-12123235D02*
X13874706Y-12104188D01*
X13874706Y-12104188D02*
X13884229Y-12094664D01*
X13884229Y-12094664D02*
X13903277Y-12085140D01*
X14046134Y-12085140D02*
X14046134Y-12123235D01*
X14122325Y-12085140D02*
X14122325Y-12123235D01*
X14417563Y-12361331D02*
X14408039Y-12351807D01*
X14408039Y-12351807D02*
X14388991Y-12323235D01*
X14388991Y-12323235D02*
X14379468Y-12304188D01*
X14379468Y-12304188D02*
X14369944Y-12275616D01*
X14369944Y-12275616D02*
X14360420Y-12227997D01*
X14360420Y-12227997D02*
X14360420Y-12189902D01*
X14360420Y-12189902D02*
X14369944Y-12142283D01*
X14369944Y-12142283D02*
X14379468Y-12113712D01*
X14379468Y-12113712D02*
X14388991Y-12094664D01*
X14388991Y-12094664D02*
X14408039Y-12066093D01*
X14408039Y-12066093D02*
X14417563Y-12056569D01*
X14484229Y-12104188D02*
X14493753Y-12094664D01*
X14493753Y-12094664D02*
X14512801Y-12085140D01*
X14512801Y-12085140D02*
X14560420Y-12085140D01*
X14560420Y-12085140D02*
X14579468Y-12094664D01*
X14579468Y-12094664D02*
X14588991Y-12104188D01*
X14588991Y-12104188D02*
X14598515Y-12123235D01*
X14598515Y-12123235D02*
X14598515Y-12142283D01*
X14598515Y-12142283D02*
X14588991Y-12170854D01*
X14588991Y-12170854D02*
X14474706Y-12285140D01*
X14474706Y-12285140D02*
X14598515Y-12285140D01*
X14836610Y-12285140D02*
X14836610Y-12085140D01*
X14922325Y-12285140D02*
X14922325Y-12180378D01*
X14922325Y-12180378D02*
X14912801Y-12161331D01*
X14912801Y-12161331D02*
X14893753Y-12151807D01*
X14893753Y-12151807D02*
X14865182Y-12151807D01*
X14865182Y-12151807D02*
X14846134Y-12161331D01*
X14846134Y-12161331D02*
X14836610Y-12170854D01*
X15046134Y-12285140D02*
X15027087Y-12275616D01*
X15027087Y-12275616D02*
X15017563Y-12266093D01*
X15017563Y-12266093D02*
X15008039Y-12247045D01*
X15008039Y-12247045D02*
X15008039Y-12189902D01*
X15008039Y-12189902D02*
X15017563Y-12170854D01*
X15017563Y-12170854D02*
X15027087Y-12161331D01*
X15027087Y-12161331D02*
X15046134Y-12151807D01*
X15046134Y-12151807D02*
X15074706Y-12151807D01*
X15074706Y-12151807D02*
X15093753Y-12161331D01*
X15093753Y-12161331D02*
X15103277Y-12170854D01*
X15103277Y-12170854D02*
X15112801Y-12189902D01*
X15112801Y-12189902D02*
X15112801Y-12247045D01*
X15112801Y-12247045D02*
X15103277Y-12266093D01*
X15103277Y-12266093D02*
X15093753Y-12275616D01*
X15093753Y-12275616D02*
X15074706Y-12285140D01*
X15074706Y-12285140D02*
X15046134Y-12285140D01*
X15227087Y-12285140D02*
X15208039Y-12275616D01*
X15208039Y-12275616D02*
X15198515Y-12256569D01*
X15198515Y-12256569D02*
X15198515Y-12085140D01*
X15379468Y-12275616D02*
X15360420Y-12285140D01*
X15360420Y-12285140D02*
X15322325Y-12285140D01*
X15322325Y-12285140D02*
X15303277Y-12275616D01*
X15303277Y-12275616D02*
X15293753Y-12256569D01*
X15293753Y-12256569D02*
X15293753Y-12180378D01*
X15293753Y-12180378D02*
X15303277Y-12161331D01*
X15303277Y-12161331D02*
X15322325Y-12151807D01*
X15322325Y-12151807D02*
X15360420Y-12151807D01*
X15360420Y-12151807D02*
X15379468Y-12161331D01*
X15379468Y-12161331D02*
X15388991Y-12180378D01*
X15388991Y-12180378D02*
X15388991Y-12199426D01*
X15388991Y-12199426D02*
X15293753Y-12218474D01*
X15465182Y-12275616D02*
X15484230Y-12285140D01*
X15484230Y-12285140D02*
X15522325Y-12285140D01*
X15522325Y-12285140D02*
X15541372Y-12275616D01*
X15541372Y-12275616D02*
X15550896Y-12256569D01*
X15550896Y-12256569D02*
X15550896Y-12247045D01*
X15550896Y-12247045D02*
X15541372Y-12227997D01*
X15541372Y-12227997D02*
X15522325Y-12218474D01*
X15522325Y-12218474D02*
X15493753Y-12218474D01*
X15493753Y-12218474D02*
X15474706Y-12208950D01*
X15474706Y-12208950D02*
X15465182Y-12189902D01*
X15465182Y-12189902D02*
X15465182Y-12180378D01*
X15465182Y-12180378D02*
X15474706Y-12161331D01*
X15474706Y-12161331D02*
X15493753Y-12151807D01*
X15493753Y-12151807D02*
X15522325Y-12151807D01*
X15522325Y-12151807D02*
X15541372Y-12161331D01*
X15617563Y-12361331D02*
X15627087Y-12351807D01*
X15627087Y-12351807D02*
X15646134Y-12323235D01*
X15646134Y-12323235D02*
X15655658Y-12304188D01*
X15655658Y-12304188D02*
X15665182Y-12275616D01*
X15665182Y-12275616D02*
X15674706Y-12227997D01*
X15674706Y-12227997D02*
X15674706Y-12189902D01*
X15674706Y-12189902D02*
X15665182Y-12142283D01*
X15665182Y-12142283D02*
X15655658Y-12113712D01*
X15655658Y-12113712D02*
X15646134Y-12094664D01*
X15646134Y-12094664D02*
X15627087Y-12066093D01*
X15627087Y-12066093D02*
X15617563Y-12056569D01*
D12*
X10802500Y-12417656D02*
X10802500Y-12497656D01*
X10762500Y-12457656D02*
X10842500Y-12457656D01*
D11*
X11141372Y-12349140D02*
X11160420Y-12349140D01*
X11160420Y-12349140D02*
X11179467Y-12358664D01*
X11179467Y-12358664D02*
X11188991Y-12368188D01*
X11188991Y-12368188D02*
X11198515Y-12387235D01*
X11198515Y-12387235D02*
X11208039Y-12425331D01*
X11208039Y-12425331D02*
X11208039Y-12472950D01*
X11208039Y-12472950D02*
X11198515Y-12511045D01*
X11198515Y-12511045D02*
X11188991Y-12530093D01*
X11188991Y-12530093D02*
X11179467Y-12539616D01*
X11179467Y-12539616D02*
X11160420Y-12549140D01*
X11160420Y-12549140D02*
X11141372Y-12549140D01*
X11141372Y-12549140D02*
X11122324Y-12539616D01*
X11122324Y-12539616D02*
X11112801Y-12530093D01*
X11112801Y-12530093D02*
X11103277Y-12511045D01*
X11103277Y-12511045D02*
X11093753Y-12472950D01*
X11093753Y-12472950D02*
X11093753Y-12425331D01*
X11093753Y-12425331D02*
X11103277Y-12387235D01*
X11103277Y-12387235D02*
X11112801Y-12368188D01*
X11112801Y-12368188D02*
X11122324Y-12358664D01*
X11122324Y-12358664D02*
X11141372Y-12349140D01*
X11293753Y-12530093D02*
X11303277Y-12539616D01*
X11303277Y-12539616D02*
X11293753Y-12549140D01*
X11293753Y-12549140D02*
X11284229Y-12539616D01*
X11284229Y-12539616D02*
X11293753Y-12530093D01*
X11293753Y-12530093D02*
X11293753Y-12549140D01*
X11417562Y-12434854D02*
X11398515Y-12425331D01*
X11398515Y-12425331D02*
X11388991Y-12415807D01*
X11388991Y-12415807D02*
X11379467Y-12396759D01*
X11379467Y-12396759D02*
X11379467Y-12387235D01*
X11379467Y-12387235D02*
X11388991Y-12368188D01*
X11388991Y-12368188D02*
X11398515Y-12358664D01*
X11398515Y-12358664D02*
X11417562Y-12349140D01*
X11417562Y-12349140D02*
X11455658Y-12349140D01*
X11455658Y-12349140D02*
X11474705Y-12358664D01*
X11474705Y-12358664D02*
X11484229Y-12368188D01*
X11484229Y-12368188D02*
X11493753Y-12387235D01*
X11493753Y-12387235D02*
X11493753Y-12396759D01*
X11493753Y-12396759D02*
X11484229Y-12415807D01*
X11484229Y-12415807D02*
X11474705Y-12425331D01*
X11474705Y-12425331D02*
X11455658Y-12434854D01*
X11455658Y-12434854D02*
X11417562Y-12434854D01*
X11417562Y-12434854D02*
X11398515Y-12444378D01*
X11398515Y-12444378D02*
X11388991Y-12453902D01*
X11388991Y-12453902D02*
X11379467Y-12472950D01*
X11379467Y-12472950D02*
X11379467Y-12511045D01*
X11379467Y-12511045D02*
X11388991Y-12530093D01*
X11388991Y-12530093D02*
X11398515Y-12539616D01*
X11398515Y-12539616D02*
X11417562Y-12549140D01*
X11417562Y-12549140D02*
X11455658Y-12549140D01*
X11455658Y-12549140D02*
X11474705Y-12539616D01*
X11474705Y-12539616D02*
X11484229Y-12530093D01*
X11484229Y-12530093D02*
X11493753Y-12511045D01*
X11493753Y-12511045D02*
X11493753Y-12472950D01*
X11493753Y-12472950D02*
X11484229Y-12453902D01*
X11484229Y-12453902D02*
X11474705Y-12444378D01*
X11474705Y-12444378D02*
X11455658Y-12434854D01*
X11617562Y-12349140D02*
X11636610Y-12349140D01*
X11636610Y-12349140D02*
X11655658Y-12358664D01*
X11655658Y-12358664D02*
X11665182Y-12368188D01*
X11665182Y-12368188D02*
X11674705Y-12387235D01*
X11674705Y-12387235D02*
X11684229Y-12425331D01*
X11684229Y-12425331D02*
X11684229Y-12472950D01*
X11684229Y-12472950D02*
X11674705Y-12511045D01*
X11674705Y-12511045D02*
X11665182Y-12530093D01*
X11665182Y-12530093D02*
X11655658Y-12539616D01*
X11655658Y-12539616D02*
X11636610Y-12549140D01*
X11636610Y-12549140D02*
X11617562Y-12549140D01*
X11617562Y-12549140D02*
X11598515Y-12539616D01*
X11598515Y-12539616D02*
X11588991Y-12530093D01*
X11588991Y-12530093D02*
X11579467Y-12511045D01*
X11579467Y-12511045D02*
X11569943Y-12472950D01*
X11569943Y-12472950D02*
X11569943Y-12425331D01*
X11569943Y-12425331D02*
X11579467Y-12387235D01*
X11579467Y-12387235D02*
X11588991Y-12368188D01*
X11588991Y-12368188D02*
X11598515Y-12358664D01*
X11598515Y-12358664D02*
X11617562Y-12349140D01*
X11808039Y-12349140D02*
X11827086Y-12349140D01*
X11827086Y-12349140D02*
X11846134Y-12358664D01*
X11846134Y-12358664D02*
X11855658Y-12368188D01*
X11855658Y-12368188D02*
X11865182Y-12387235D01*
X11865182Y-12387235D02*
X11874705Y-12425331D01*
X11874705Y-12425331D02*
X11874705Y-12472950D01*
X11874705Y-12472950D02*
X11865182Y-12511045D01*
X11865182Y-12511045D02*
X11855658Y-12530093D01*
X11855658Y-12530093D02*
X11846134Y-12539616D01*
X11846134Y-12539616D02*
X11827086Y-12549140D01*
X11827086Y-12549140D02*
X11808039Y-12549140D01*
X11808039Y-12549140D02*
X11788991Y-12539616D01*
X11788991Y-12539616D02*
X11779467Y-12530093D01*
X11779467Y-12530093D02*
X11769943Y-12511045D01*
X11769943Y-12511045D02*
X11760420Y-12472950D01*
X11760420Y-12472950D02*
X11760420Y-12425331D01*
X11760420Y-12425331D02*
X11769943Y-12387235D01*
X11769943Y-12387235D02*
X11779467Y-12368188D01*
X11779467Y-12368188D02*
X11788991Y-12358664D01*
X11788991Y-12358664D02*
X11808039Y-12349140D01*
X11960420Y-12549140D02*
X11960420Y-12415807D01*
X11960420Y-12434854D02*
X11969943Y-12425331D01*
X11969943Y-12425331D02*
X11988991Y-12415807D01*
X11988991Y-12415807D02*
X12017563Y-12415807D01*
X12017563Y-12415807D02*
X12036610Y-12425331D01*
X12036610Y-12425331D02*
X12046134Y-12444378D01*
X12046134Y-12444378D02*
X12046134Y-12549140D01*
X12046134Y-12444378D02*
X12055658Y-12425331D01*
X12055658Y-12425331D02*
X12074705Y-12415807D01*
X12074705Y-12415807D02*
X12103277Y-12415807D01*
X12103277Y-12415807D02*
X12122324Y-12425331D01*
X12122324Y-12425331D02*
X12131848Y-12444378D01*
X12131848Y-12444378D02*
X12131848Y-12549140D01*
X12227086Y-12549140D02*
X12227086Y-12415807D01*
X12227086Y-12434854D02*
X12236610Y-12425331D01*
X12236610Y-12425331D02*
X12255658Y-12415807D01*
X12255658Y-12415807D02*
X12284229Y-12415807D01*
X12284229Y-12415807D02*
X12303277Y-12425331D01*
X12303277Y-12425331D02*
X12312801Y-12444378D01*
X12312801Y-12444378D02*
X12312801Y-12549140D01*
X12312801Y-12444378D02*
X12322324Y-12425331D01*
X12322324Y-12425331D02*
X12341372Y-12415807D01*
X12341372Y-12415807D02*
X12369943Y-12415807D01*
X12369943Y-12415807D02*
X12388991Y-12425331D01*
X12388991Y-12425331D02*
X12398515Y-12444378D01*
X12398515Y-12444378D02*
X12398515Y-12549140D01*
X12788991Y-12339616D02*
X12617563Y-12596759D01*
X13046134Y-12349140D02*
X13065182Y-12349140D01*
X13065182Y-12349140D02*
X13084229Y-12358664D01*
X13084229Y-12358664D02*
X13093753Y-12368188D01*
X13093753Y-12368188D02*
X13103277Y-12387235D01*
X13103277Y-12387235D02*
X13112801Y-12425331D01*
X13112801Y-12425331D02*
X13112801Y-12472950D01*
X13112801Y-12472950D02*
X13103277Y-12511045D01*
X13103277Y-12511045D02*
X13093753Y-12530093D01*
X13093753Y-12530093D02*
X13084229Y-12539616D01*
X13084229Y-12539616D02*
X13065182Y-12549140D01*
X13065182Y-12549140D02*
X13046134Y-12549140D01*
X13046134Y-12549140D02*
X13027086Y-12539616D01*
X13027086Y-12539616D02*
X13017563Y-12530093D01*
X13017563Y-12530093D02*
X13008039Y-12511045D01*
X13008039Y-12511045D02*
X12998515Y-12472950D01*
X12998515Y-12472950D02*
X12998515Y-12425331D01*
X12998515Y-12425331D02*
X13008039Y-12387235D01*
X13008039Y-12387235D02*
X13017563Y-12368188D01*
X13017563Y-12368188D02*
X13027086Y-12358664D01*
X13027086Y-12358664D02*
X13046134Y-12349140D01*
X13198515Y-12530093D02*
X13208039Y-12539616D01*
X13208039Y-12539616D02*
X13198515Y-12549140D01*
X13198515Y-12549140D02*
X13188991Y-12539616D01*
X13188991Y-12539616D02*
X13198515Y-12530093D01*
X13198515Y-12530093D02*
X13198515Y-12549140D01*
X13331848Y-12349140D02*
X13350896Y-12349140D01*
X13350896Y-12349140D02*
X13369944Y-12358664D01*
X13369944Y-12358664D02*
X13379467Y-12368188D01*
X13379467Y-12368188D02*
X13388991Y-12387235D01*
X13388991Y-12387235D02*
X13398515Y-12425331D01*
X13398515Y-12425331D02*
X13398515Y-12472950D01*
X13398515Y-12472950D02*
X13388991Y-12511045D01*
X13388991Y-12511045D02*
X13379467Y-12530093D01*
X13379467Y-12530093D02*
X13369944Y-12539616D01*
X13369944Y-12539616D02*
X13350896Y-12549140D01*
X13350896Y-12549140D02*
X13331848Y-12549140D01*
X13331848Y-12549140D02*
X13312801Y-12539616D01*
X13312801Y-12539616D02*
X13303277Y-12530093D01*
X13303277Y-12530093D02*
X13293753Y-12511045D01*
X13293753Y-12511045D02*
X13284229Y-12472950D01*
X13284229Y-12472950D02*
X13284229Y-12425331D01*
X13284229Y-12425331D02*
X13293753Y-12387235D01*
X13293753Y-12387235D02*
X13303277Y-12368188D01*
X13303277Y-12368188D02*
X13312801Y-12358664D01*
X13312801Y-12358664D02*
X13331848Y-12349140D01*
X13465182Y-12349140D02*
X13588991Y-12349140D01*
X13588991Y-12349140D02*
X13522325Y-12425331D01*
X13522325Y-12425331D02*
X13550896Y-12425331D01*
X13550896Y-12425331D02*
X13569944Y-12434854D01*
X13569944Y-12434854D02*
X13579467Y-12444378D01*
X13579467Y-12444378D02*
X13588991Y-12463426D01*
X13588991Y-12463426D02*
X13588991Y-12511045D01*
X13588991Y-12511045D02*
X13579467Y-12530093D01*
X13579467Y-12530093D02*
X13569944Y-12539616D01*
X13569944Y-12539616D02*
X13550896Y-12549140D01*
X13550896Y-12549140D02*
X13493753Y-12549140D01*
X13493753Y-12549140D02*
X13474706Y-12539616D01*
X13474706Y-12539616D02*
X13465182Y-12530093D01*
X13779467Y-12549140D02*
X13665182Y-12549140D01*
X13722325Y-12549140D02*
X13722325Y-12349140D01*
X13722325Y-12349140D02*
X13703277Y-12377712D01*
X13703277Y-12377712D02*
X13684229Y-12396759D01*
X13684229Y-12396759D02*
X13665182Y-12406283D01*
X13960420Y-12349140D02*
X13865182Y-12349140D01*
X13865182Y-12349140D02*
X13855658Y-12444378D01*
X13855658Y-12444378D02*
X13865182Y-12434854D01*
X13865182Y-12434854D02*
X13884229Y-12425331D01*
X13884229Y-12425331D02*
X13931848Y-12425331D01*
X13931848Y-12425331D02*
X13950896Y-12434854D01*
X13950896Y-12434854D02*
X13960420Y-12444378D01*
X13960420Y-12444378D02*
X13969944Y-12463426D01*
X13969944Y-12463426D02*
X13969944Y-12511045D01*
X13969944Y-12511045D02*
X13960420Y-12530093D01*
X13960420Y-12530093D02*
X13950896Y-12539616D01*
X13950896Y-12539616D02*
X13931848Y-12549140D01*
X13931848Y-12549140D02*
X13884229Y-12549140D01*
X13884229Y-12549140D02*
X13865182Y-12539616D01*
X13865182Y-12539616D02*
X13855658Y-12530093D01*
X14046134Y-12349140D02*
X14046134Y-12387235D01*
X14122325Y-12349140D02*
X14122325Y-12387235D01*
X14417563Y-12625331D02*
X14408039Y-12615807D01*
X14408039Y-12615807D02*
X14388991Y-12587235D01*
X14388991Y-12587235D02*
X14379468Y-12568188D01*
X14379468Y-12568188D02*
X14369944Y-12539616D01*
X14369944Y-12539616D02*
X14360420Y-12491997D01*
X14360420Y-12491997D02*
X14360420Y-12453902D01*
X14360420Y-12453902D02*
X14369944Y-12406283D01*
X14369944Y-12406283D02*
X14379468Y-12377712D01*
X14379468Y-12377712D02*
X14388991Y-12358664D01*
X14388991Y-12358664D02*
X14408039Y-12330093D01*
X14408039Y-12330093D02*
X14417563Y-12320569D01*
X14484229Y-12368188D02*
X14493753Y-12358664D01*
X14493753Y-12358664D02*
X14512801Y-12349140D01*
X14512801Y-12349140D02*
X14560420Y-12349140D01*
X14560420Y-12349140D02*
X14579468Y-12358664D01*
X14579468Y-12358664D02*
X14588991Y-12368188D01*
X14588991Y-12368188D02*
X14598515Y-12387235D01*
X14598515Y-12387235D02*
X14598515Y-12406283D01*
X14598515Y-12406283D02*
X14588991Y-12434854D01*
X14588991Y-12434854D02*
X14474706Y-12549140D01*
X14474706Y-12549140D02*
X14598515Y-12549140D01*
X14836610Y-12549140D02*
X14836610Y-12349140D01*
X14922325Y-12549140D02*
X14922325Y-12444378D01*
X14922325Y-12444378D02*
X14912801Y-12425331D01*
X14912801Y-12425331D02*
X14893753Y-12415807D01*
X14893753Y-12415807D02*
X14865182Y-12415807D01*
X14865182Y-12415807D02*
X14846134Y-12425331D01*
X14846134Y-12425331D02*
X14836610Y-12434854D01*
X15046134Y-12549140D02*
X15027087Y-12539616D01*
X15027087Y-12539616D02*
X15017563Y-12530093D01*
X15017563Y-12530093D02*
X15008039Y-12511045D01*
X15008039Y-12511045D02*
X15008039Y-12453902D01*
X15008039Y-12453902D02*
X15017563Y-12434854D01*
X15017563Y-12434854D02*
X15027087Y-12425331D01*
X15027087Y-12425331D02*
X15046134Y-12415807D01*
X15046134Y-12415807D02*
X15074706Y-12415807D01*
X15074706Y-12415807D02*
X15093753Y-12425331D01*
X15093753Y-12425331D02*
X15103277Y-12434854D01*
X15103277Y-12434854D02*
X15112801Y-12453902D01*
X15112801Y-12453902D02*
X15112801Y-12511045D01*
X15112801Y-12511045D02*
X15103277Y-12530093D01*
X15103277Y-12530093D02*
X15093753Y-12539616D01*
X15093753Y-12539616D02*
X15074706Y-12549140D01*
X15074706Y-12549140D02*
X15046134Y-12549140D01*
X15227087Y-12549140D02*
X15208039Y-12539616D01*
X15208039Y-12539616D02*
X15198515Y-12520569D01*
X15198515Y-12520569D02*
X15198515Y-12349140D01*
X15379468Y-12539616D02*
X15360420Y-12549140D01*
X15360420Y-12549140D02*
X15322325Y-12549140D01*
X15322325Y-12549140D02*
X15303277Y-12539616D01*
X15303277Y-12539616D02*
X15293753Y-12520569D01*
X15293753Y-12520569D02*
X15293753Y-12444378D01*
X15293753Y-12444378D02*
X15303277Y-12425331D01*
X15303277Y-12425331D02*
X15322325Y-12415807D01*
X15322325Y-12415807D02*
X15360420Y-12415807D01*
X15360420Y-12415807D02*
X15379468Y-12425331D01*
X15379468Y-12425331D02*
X15388991Y-12444378D01*
X15388991Y-12444378D02*
X15388991Y-12463426D01*
X15388991Y-12463426D02*
X15293753Y-12482474D01*
X15465182Y-12539616D02*
X15484230Y-12549140D01*
X15484230Y-12549140D02*
X15522325Y-12549140D01*
X15522325Y-12549140D02*
X15541372Y-12539616D01*
X15541372Y-12539616D02*
X15550896Y-12520569D01*
X15550896Y-12520569D02*
X15550896Y-12511045D01*
X15550896Y-12511045D02*
X15541372Y-12491997D01*
X15541372Y-12491997D02*
X15522325Y-12482474D01*
X15522325Y-12482474D02*
X15493753Y-12482474D01*
X15493753Y-12482474D02*
X15474706Y-12472950D01*
X15474706Y-12472950D02*
X15465182Y-12453902D01*
X15465182Y-12453902D02*
X15465182Y-12444378D01*
X15465182Y-12444378D02*
X15474706Y-12425331D01*
X15474706Y-12425331D02*
X15493753Y-12415807D01*
X15493753Y-12415807D02*
X15522325Y-12415807D01*
X15522325Y-12415807D02*
X15541372Y-12425331D01*
X15617563Y-12625331D02*
X15627087Y-12615807D01*
X15627087Y-12615807D02*
X15646134Y-12587235D01*
X15646134Y-12587235D02*
X15655658Y-12568188D01*
X15655658Y-12568188D02*
X15665182Y-12539616D01*
X15665182Y-12539616D02*
X15674706Y-12491997D01*
X15674706Y-12491997D02*
X15674706Y-12453902D01*
X15674706Y-12453902D02*
X15665182Y-12406283D01*
X15665182Y-12406283D02*
X15655658Y-12377712D01*
X15655658Y-12377712D02*
X15646134Y-12358664D01*
X15646134Y-12358664D02*
X15627087Y-12330093D01*
X15627087Y-12330093D02*
X15617563Y-12320569D01*
D12*
X10827856Y-12757012D02*
X10827856Y-12686301D01*
X10757144Y-12686301D01*
X10757144Y-12757012D01*
X10827856Y-12757012D01*
D11*
X11208039Y-12813140D02*
X11093753Y-12813140D01*
X11150896Y-12813140D02*
X11150896Y-12613140D01*
X11150896Y-12613140D02*
X11131848Y-12641712D01*
X11131848Y-12641712D02*
X11112801Y-12660759D01*
X11112801Y-12660759D02*
X11093753Y-12670283D01*
X11293753Y-12794093D02*
X11303277Y-12803616D01*
X11303277Y-12803616D02*
X11293753Y-12813140D01*
X11293753Y-12813140D02*
X11284229Y-12803616D01*
X11284229Y-12803616D02*
X11293753Y-12794093D01*
X11293753Y-12794093D02*
X11293753Y-12813140D01*
X11427086Y-12613140D02*
X11446134Y-12613140D01*
X11446134Y-12613140D02*
X11465182Y-12622664D01*
X11465182Y-12622664D02*
X11474705Y-12632188D01*
X11474705Y-12632188D02*
X11484229Y-12651235D01*
X11484229Y-12651235D02*
X11493753Y-12689331D01*
X11493753Y-12689331D02*
X11493753Y-12736950D01*
X11493753Y-12736950D02*
X11484229Y-12775045D01*
X11484229Y-12775045D02*
X11474705Y-12794093D01*
X11474705Y-12794093D02*
X11465182Y-12803616D01*
X11465182Y-12803616D02*
X11446134Y-12813140D01*
X11446134Y-12813140D02*
X11427086Y-12813140D01*
X11427086Y-12813140D02*
X11408039Y-12803616D01*
X11408039Y-12803616D02*
X11398515Y-12794093D01*
X11398515Y-12794093D02*
X11388991Y-12775045D01*
X11388991Y-12775045D02*
X11379467Y-12736950D01*
X11379467Y-12736950D02*
X11379467Y-12689331D01*
X11379467Y-12689331D02*
X11388991Y-12651235D01*
X11388991Y-12651235D02*
X11398515Y-12632188D01*
X11398515Y-12632188D02*
X11408039Y-12622664D01*
X11408039Y-12622664D02*
X11427086Y-12613140D01*
X11617562Y-12613140D02*
X11636610Y-12613140D01*
X11636610Y-12613140D02*
X11655658Y-12622664D01*
X11655658Y-12622664D02*
X11665182Y-12632188D01*
X11665182Y-12632188D02*
X11674705Y-12651235D01*
X11674705Y-12651235D02*
X11684229Y-12689331D01*
X11684229Y-12689331D02*
X11684229Y-12736950D01*
X11684229Y-12736950D02*
X11674705Y-12775045D01*
X11674705Y-12775045D02*
X11665182Y-12794093D01*
X11665182Y-12794093D02*
X11655658Y-12803616D01*
X11655658Y-12803616D02*
X11636610Y-12813140D01*
X11636610Y-12813140D02*
X11617562Y-12813140D01*
X11617562Y-12813140D02*
X11598515Y-12803616D01*
X11598515Y-12803616D02*
X11588991Y-12794093D01*
X11588991Y-12794093D02*
X11579467Y-12775045D01*
X11579467Y-12775045D02*
X11569943Y-12736950D01*
X11569943Y-12736950D02*
X11569943Y-12689331D01*
X11569943Y-12689331D02*
X11579467Y-12651235D01*
X11579467Y-12651235D02*
X11588991Y-12632188D01*
X11588991Y-12632188D02*
X11598515Y-12622664D01*
X11598515Y-12622664D02*
X11617562Y-12613140D01*
X11808039Y-12613140D02*
X11827086Y-12613140D01*
X11827086Y-12613140D02*
X11846134Y-12622664D01*
X11846134Y-12622664D02*
X11855658Y-12632188D01*
X11855658Y-12632188D02*
X11865182Y-12651235D01*
X11865182Y-12651235D02*
X11874705Y-12689331D01*
X11874705Y-12689331D02*
X11874705Y-12736950D01*
X11874705Y-12736950D02*
X11865182Y-12775045D01*
X11865182Y-12775045D02*
X11855658Y-12794093D01*
X11855658Y-12794093D02*
X11846134Y-12803616D01*
X11846134Y-12803616D02*
X11827086Y-12813140D01*
X11827086Y-12813140D02*
X11808039Y-12813140D01*
X11808039Y-12813140D02*
X11788991Y-12803616D01*
X11788991Y-12803616D02*
X11779467Y-12794093D01*
X11779467Y-12794093D02*
X11769943Y-12775045D01*
X11769943Y-12775045D02*
X11760420Y-12736950D01*
X11760420Y-12736950D02*
X11760420Y-12689331D01*
X11760420Y-12689331D02*
X11769943Y-12651235D01*
X11769943Y-12651235D02*
X11779467Y-12632188D01*
X11779467Y-12632188D02*
X11788991Y-12622664D01*
X11788991Y-12622664D02*
X11808039Y-12613140D01*
X11960420Y-12813140D02*
X11960420Y-12679807D01*
X11960420Y-12698854D02*
X11969943Y-12689331D01*
X11969943Y-12689331D02*
X11988991Y-12679807D01*
X11988991Y-12679807D02*
X12017563Y-12679807D01*
X12017563Y-12679807D02*
X12036610Y-12689331D01*
X12036610Y-12689331D02*
X12046134Y-12708378D01*
X12046134Y-12708378D02*
X12046134Y-12813140D01*
X12046134Y-12708378D02*
X12055658Y-12689331D01*
X12055658Y-12689331D02*
X12074705Y-12679807D01*
X12074705Y-12679807D02*
X12103277Y-12679807D01*
X12103277Y-12679807D02*
X12122324Y-12689331D01*
X12122324Y-12689331D02*
X12131848Y-12708378D01*
X12131848Y-12708378D02*
X12131848Y-12813140D01*
X12227086Y-12813140D02*
X12227086Y-12679807D01*
X12227086Y-12698854D02*
X12236610Y-12689331D01*
X12236610Y-12689331D02*
X12255658Y-12679807D01*
X12255658Y-12679807D02*
X12284229Y-12679807D01*
X12284229Y-12679807D02*
X12303277Y-12689331D01*
X12303277Y-12689331D02*
X12312801Y-12708378D01*
X12312801Y-12708378D02*
X12312801Y-12813140D01*
X12312801Y-12708378D02*
X12322324Y-12689331D01*
X12322324Y-12689331D02*
X12341372Y-12679807D01*
X12341372Y-12679807D02*
X12369943Y-12679807D01*
X12369943Y-12679807D02*
X12388991Y-12689331D01*
X12388991Y-12689331D02*
X12398515Y-12708378D01*
X12398515Y-12708378D02*
X12398515Y-12813140D01*
X12788991Y-12603616D02*
X12617563Y-12860759D01*
X13046134Y-12613140D02*
X13065182Y-12613140D01*
X13065182Y-12613140D02*
X13084229Y-12622664D01*
X13084229Y-12622664D02*
X13093753Y-12632188D01*
X13093753Y-12632188D02*
X13103277Y-12651235D01*
X13103277Y-12651235D02*
X13112801Y-12689331D01*
X13112801Y-12689331D02*
X13112801Y-12736950D01*
X13112801Y-12736950D02*
X13103277Y-12775045D01*
X13103277Y-12775045D02*
X13093753Y-12794093D01*
X13093753Y-12794093D02*
X13084229Y-12803616D01*
X13084229Y-12803616D02*
X13065182Y-12813140D01*
X13065182Y-12813140D02*
X13046134Y-12813140D01*
X13046134Y-12813140D02*
X13027086Y-12803616D01*
X13027086Y-12803616D02*
X13017563Y-12794093D01*
X13017563Y-12794093D02*
X13008039Y-12775045D01*
X13008039Y-12775045D02*
X12998515Y-12736950D01*
X12998515Y-12736950D02*
X12998515Y-12689331D01*
X12998515Y-12689331D02*
X13008039Y-12651235D01*
X13008039Y-12651235D02*
X13017563Y-12632188D01*
X13017563Y-12632188D02*
X13027086Y-12622664D01*
X13027086Y-12622664D02*
X13046134Y-12613140D01*
X13198515Y-12794093D02*
X13208039Y-12803616D01*
X13208039Y-12803616D02*
X13198515Y-12813140D01*
X13198515Y-12813140D02*
X13188991Y-12803616D01*
X13188991Y-12803616D02*
X13198515Y-12794093D01*
X13198515Y-12794093D02*
X13198515Y-12813140D01*
X13331848Y-12613140D02*
X13350896Y-12613140D01*
X13350896Y-12613140D02*
X13369944Y-12622664D01*
X13369944Y-12622664D02*
X13379467Y-12632188D01*
X13379467Y-12632188D02*
X13388991Y-12651235D01*
X13388991Y-12651235D02*
X13398515Y-12689331D01*
X13398515Y-12689331D02*
X13398515Y-12736950D01*
X13398515Y-12736950D02*
X13388991Y-12775045D01*
X13388991Y-12775045D02*
X13379467Y-12794093D01*
X13379467Y-12794093D02*
X13369944Y-12803616D01*
X13369944Y-12803616D02*
X13350896Y-12813140D01*
X13350896Y-12813140D02*
X13331848Y-12813140D01*
X13331848Y-12813140D02*
X13312801Y-12803616D01*
X13312801Y-12803616D02*
X13303277Y-12794093D01*
X13303277Y-12794093D02*
X13293753Y-12775045D01*
X13293753Y-12775045D02*
X13284229Y-12736950D01*
X13284229Y-12736950D02*
X13284229Y-12689331D01*
X13284229Y-12689331D02*
X13293753Y-12651235D01*
X13293753Y-12651235D02*
X13303277Y-12632188D01*
X13303277Y-12632188D02*
X13312801Y-12622664D01*
X13312801Y-12622664D02*
X13331848Y-12613140D01*
X13465182Y-12613140D02*
X13588991Y-12613140D01*
X13588991Y-12613140D02*
X13522325Y-12689331D01*
X13522325Y-12689331D02*
X13550896Y-12689331D01*
X13550896Y-12689331D02*
X13569944Y-12698854D01*
X13569944Y-12698854D02*
X13579467Y-12708378D01*
X13579467Y-12708378D02*
X13588991Y-12727426D01*
X13588991Y-12727426D02*
X13588991Y-12775045D01*
X13588991Y-12775045D02*
X13579467Y-12794093D01*
X13579467Y-12794093D02*
X13569944Y-12803616D01*
X13569944Y-12803616D02*
X13550896Y-12813140D01*
X13550896Y-12813140D02*
X13493753Y-12813140D01*
X13493753Y-12813140D02*
X13474706Y-12803616D01*
X13474706Y-12803616D02*
X13465182Y-12794093D01*
X13684229Y-12813140D02*
X13722325Y-12813140D01*
X13722325Y-12813140D02*
X13741372Y-12803616D01*
X13741372Y-12803616D02*
X13750896Y-12794093D01*
X13750896Y-12794093D02*
X13769944Y-12765521D01*
X13769944Y-12765521D02*
X13779467Y-12727426D01*
X13779467Y-12727426D02*
X13779467Y-12651235D01*
X13779467Y-12651235D02*
X13769944Y-12632188D01*
X13769944Y-12632188D02*
X13760420Y-12622664D01*
X13760420Y-12622664D02*
X13741372Y-12613140D01*
X13741372Y-12613140D02*
X13703277Y-12613140D01*
X13703277Y-12613140D02*
X13684229Y-12622664D01*
X13684229Y-12622664D02*
X13674706Y-12632188D01*
X13674706Y-12632188D02*
X13665182Y-12651235D01*
X13665182Y-12651235D02*
X13665182Y-12698854D01*
X13665182Y-12698854D02*
X13674706Y-12717902D01*
X13674706Y-12717902D02*
X13684229Y-12727426D01*
X13684229Y-12727426D02*
X13703277Y-12736950D01*
X13703277Y-12736950D02*
X13741372Y-12736950D01*
X13741372Y-12736950D02*
X13760420Y-12727426D01*
X13760420Y-12727426D02*
X13769944Y-12717902D01*
X13769944Y-12717902D02*
X13779467Y-12698854D01*
X13950896Y-12679807D02*
X13950896Y-12813140D01*
X13903277Y-12603616D02*
X13855658Y-12746474D01*
X13855658Y-12746474D02*
X13979467Y-12746474D01*
X14046134Y-12613140D02*
X14046134Y-12651235D01*
X14122325Y-12613140D02*
X14122325Y-12651235D01*
X14417563Y-12889331D02*
X14408039Y-12879807D01*
X14408039Y-12879807D02*
X14388991Y-12851235D01*
X14388991Y-12851235D02*
X14379468Y-12832188D01*
X14379468Y-12832188D02*
X14369944Y-12803616D01*
X14369944Y-12803616D02*
X14360420Y-12755997D01*
X14360420Y-12755997D02*
X14360420Y-12717902D01*
X14360420Y-12717902D02*
X14369944Y-12670283D01*
X14369944Y-12670283D02*
X14379468Y-12641712D01*
X14379468Y-12641712D02*
X14388991Y-12622664D01*
X14388991Y-12622664D02*
X14408039Y-12594093D01*
X14408039Y-12594093D02*
X14417563Y-12584569D01*
X14598515Y-12813140D02*
X14484229Y-12813140D01*
X14541372Y-12813140D02*
X14541372Y-12613140D01*
X14541372Y-12613140D02*
X14522325Y-12641712D01*
X14522325Y-12641712D02*
X14503277Y-12660759D01*
X14503277Y-12660759D02*
X14484229Y-12670283D01*
X14769944Y-12679807D02*
X14769944Y-12813140D01*
X14722325Y-12603616D02*
X14674706Y-12746474D01*
X14674706Y-12746474D02*
X14798515Y-12746474D01*
X15027087Y-12813140D02*
X15027087Y-12613140D01*
X15112801Y-12813140D02*
X15112801Y-12708378D01*
X15112801Y-12708378D02*
X15103277Y-12689331D01*
X15103277Y-12689331D02*
X15084230Y-12679807D01*
X15084230Y-12679807D02*
X15055658Y-12679807D01*
X15055658Y-12679807D02*
X15036610Y-12689331D01*
X15036610Y-12689331D02*
X15027087Y-12698854D01*
X15236610Y-12813140D02*
X15217563Y-12803616D01*
X15217563Y-12803616D02*
X15208039Y-12794093D01*
X15208039Y-12794093D02*
X15198515Y-12775045D01*
X15198515Y-12775045D02*
X15198515Y-12717902D01*
X15198515Y-12717902D02*
X15208039Y-12698854D01*
X15208039Y-12698854D02*
X15217563Y-12689331D01*
X15217563Y-12689331D02*
X15236610Y-12679807D01*
X15236610Y-12679807D02*
X15265182Y-12679807D01*
X15265182Y-12679807D02*
X15284230Y-12689331D01*
X15284230Y-12689331D02*
X15293753Y-12698854D01*
X15293753Y-12698854D02*
X15303277Y-12717902D01*
X15303277Y-12717902D02*
X15303277Y-12775045D01*
X15303277Y-12775045D02*
X15293753Y-12794093D01*
X15293753Y-12794093D02*
X15284230Y-12803616D01*
X15284230Y-12803616D02*
X15265182Y-12813140D01*
X15265182Y-12813140D02*
X15236610Y-12813140D01*
X15417563Y-12813140D02*
X15398515Y-12803616D01*
X15398515Y-12803616D02*
X15388991Y-12784569D01*
X15388991Y-12784569D02*
X15388991Y-12613140D01*
X15569944Y-12803616D02*
X15550896Y-12813140D01*
X15550896Y-12813140D02*
X15512801Y-12813140D01*
X15512801Y-12813140D02*
X15493753Y-12803616D01*
X15493753Y-12803616D02*
X15484230Y-12784569D01*
X15484230Y-12784569D02*
X15484230Y-12708378D01*
X15484230Y-12708378D02*
X15493753Y-12689331D01*
X15493753Y-12689331D02*
X15512801Y-12679807D01*
X15512801Y-12679807D02*
X15550896Y-12679807D01*
X15550896Y-12679807D02*
X15569944Y-12689331D01*
X15569944Y-12689331D02*
X15579468Y-12708378D01*
X15579468Y-12708378D02*
X15579468Y-12727426D01*
X15579468Y-12727426D02*
X15484230Y-12746474D01*
X15655658Y-12803616D02*
X15674706Y-12813140D01*
X15674706Y-12813140D02*
X15712801Y-12813140D01*
X15712801Y-12813140D02*
X15731849Y-12803616D01*
X15731849Y-12803616D02*
X15741372Y-12784569D01*
X15741372Y-12784569D02*
X15741372Y-12775045D01*
X15741372Y-12775045D02*
X15731849Y-12755997D01*
X15731849Y-12755997D02*
X15712801Y-12746474D01*
X15712801Y-12746474D02*
X15684230Y-12746474D01*
X15684230Y-12746474D02*
X15665182Y-12736950D01*
X15665182Y-12736950D02*
X15655658Y-12717902D01*
X15655658Y-12717902D02*
X15655658Y-12708378D01*
X15655658Y-12708378D02*
X15665182Y-12689331D01*
X15665182Y-12689331D02*
X15684230Y-12679807D01*
X15684230Y-12679807D02*
X15712801Y-12679807D01*
X15712801Y-12679807D02*
X15731849Y-12689331D01*
X15808039Y-12889331D02*
X15817563Y-12879807D01*
X15817563Y-12879807D02*
X15836611Y-12851235D01*
X15836611Y-12851235D02*
X15846134Y-12832188D01*
X15846134Y-12832188D02*
X15855658Y-12803616D01*
X15855658Y-12803616D02*
X15865182Y-12755997D01*
X15865182Y-12755997D02*
X15865182Y-12717902D01*
X15865182Y-12717902D02*
X15855658Y-12670283D01*
X15855658Y-12670283D02*
X15846134Y-12641712D01*
X15846134Y-12641712D02*
X15836611Y-12622664D01*
X15836611Y-12622664D02*
X15817563Y-12594093D01*
X15817563Y-12594093D02*
X15808039Y-12584569D01*
D13*
X10792000Y-13036156D02*
X10842500Y-12985656D01*
X10792000Y-12935156D01*
X10741500Y-12985656D01*
X10792000Y-13036156D01*
D11*
X11208039Y-13077140D02*
X11093753Y-13077140D01*
X11150896Y-13077140D02*
X11150896Y-12877140D01*
X11150896Y-12877140D02*
X11131848Y-12905712D01*
X11131848Y-12905712D02*
X11112801Y-12924759D01*
X11112801Y-12924759D02*
X11093753Y-12934283D01*
X11293753Y-13058093D02*
X11303277Y-13067616D01*
X11303277Y-13067616D02*
X11293753Y-13077140D01*
X11293753Y-13077140D02*
X11284229Y-13067616D01*
X11284229Y-13067616D02*
X11293753Y-13058093D01*
X11293753Y-13058093D02*
X11293753Y-13077140D01*
X11427086Y-12877140D02*
X11446134Y-12877140D01*
X11446134Y-12877140D02*
X11465182Y-12886664D01*
X11465182Y-12886664D02*
X11474705Y-12896188D01*
X11474705Y-12896188D02*
X11484229Y-12915235D01*
X11484229Y-12915235D02*
X11493753Y-12953331D01*
X11493753Y-12953331D02*
X11493753Y-13000950D01*
X11493753Y-13000950D02*
X11484229Y-13039045D01*
X11484229Y-13039045D02*
X11474705Y-13058093D01*
X11474705Y-13058093D02*
X11465182Y-13067616D01*
X11465182Y-13067616D02*
X11446134Y-13077140D01*
X11446134Y-13077140D02*
X11427086Y-13077140D01*
X11427086Y-13077140D02*
X11408039Y-13067616D01*
X11408039Y-13067616D02*
X11398515Y-13058093D01*
X11398515Y-13058093D02*
X11388991Y-13039045D01*
X11388991Y-13039045D02*
X11379467Y-13000950D01*
X11379467Y-13000950D02*
X11379467Y-12953331D01*
X11379467Y-12953331D02*
X11388991Y-12915235D01*
X11388991Y-12915235D02*
X11398515Y-12896188D01*
X11398515Y-12896188D02*
X11408039Y-12886664D01*
X11408039Y-12886664D02*
X11427086Y-12877140D01*
X11684229Y-13077140D02*
X11569943Y-13077140D01*
X11627086Y-13077140D02*
X11627086Y-12877140D01*
X11627086Y-12877140D02*
X11608039Y-12905712D01*
X11608039Y-12905712D02*
X11588991Y-12924759D01*
X11588991Y-12924759D02*
X11569943Y-12934283D01*
X11808039Y-12877140D02*
X11827086Y-12877140D01*
X11827086Y-12877140D02*
X11846134Y-12886664D01*
X11846134Y-12886664D02*
X11855658Y-12896188D01*
X11855658Y-12896188D02*
X11865182Y-12915235D01*
X11865182Y-12915235D02*
X11874705Y-12953331D01*
X11874705Y-12953331D02*
X11874705Y-13000950D01*
X11874705Y-13000950D02*
X11865182Y-13039045D01*
X11865182Y-13039045D02*
X11855658Y-13058093D01*
X11855658Y-13058093D02*
X11846134Y-13067616D01*
X11846134Y-13067616D02*
X11827086Y-13077140D01*
X11827086Y-13077140D02*
X11808039Y-13077140D01*
X11808039Y-13077140D02*
X11788991Y-13067616D01*
X11788991Y-13067616D02*
X11779467Y-13058093D01*
X11779467Y-13058093D02*
X11769943Y-13039045D01*
X11769943Y-13039045D02*
X11760420Y-13000950D01*
X11760420Y-13000950D02*
X11760420Y-12953331D01*
X11760420Y-12953331D02*
X11769943Y-12915235D01*
X11769943Y-12915235D02*
X11779467Y-12896188D01*
X11779467Y-12896188D02*
X11788991Y-12886664D01*
X11788991Y-12886664D02*
X11808039Y-12877140D01*
X11960420Y-13077140D02*
X11960420Y-12943807D01*
X11960420Y-12962854D02*
X11969943Y-12953331D01*
X11969943Y-12953331D02*
X11988991Y-12943807D01*
X11988991Y-12943807D02*
X12017563Y-12943807D01*
X12017563Y-12943807D02*
X12036610Y-12953331D01*
X12036610Y-12953331D02*
X12046134Y-12972378D01*
X12046134Y-12972378D02*
X12046134Y-13077140D01*
X12046134Y-12972378D02*
X12055658Y-12953331D01*
X12055658Y-12953331D02*
X12074705Y-12943807D01*
X12074705Y-12943807D02*
X12103277Y-12943807D01*
X12103277Y-12943807D02*
X12122324Y-12953331D01*
X12122324Y-12953331D02*
X12131848Y-12972378D01*
X12131848Y-12972378D02*
X12131848Y-13077140D01*
X12227086Y-13077140D02*
X12227086Y-12943807D01*
X12227086Y-12962854D02*
X12236610Y-12953331D01*
X12236610Y-12953331D02*
X12255658Y-12943807D01*
X12255658Y-12943807D02*
X12284229Y-12943807D01*
X12284229Y-12943807D02*
X12303277Y-12953331D01*
X12303277Y-12953331D02*
X12312801Y-12972378D01*
X12312801Y-12972378D02*
X12312801Y-13077140D01*
X12312801Y-12972378D02*
X12322324Y-12953331D01*
X12322324Y-12953331D02*
X12341372Y-12943807D01*
X12341372Y-12943807D02*
X12369943Y-12943807D01*
X12369943Y-12943807D02*
X12388991Y-12953331D01*
X12388991Y-12953331D02*
X12398515Y-12972378D01*
X12398515Y-12972378D02*
X12398515Y-13077140D01*
X12788991Y-12867616D02*
X12617563Y-13124759D01*
X13046134Y-12877140D02*
X13065182Y-12877140D01*
X13065182Y-12877140D02*
X13084229Y-12886664D01*
X13084229Y-12886664D02*
X13093753Y-12896188D01*
X13093753Y-12896188D02*
X13103277Y-12915235D01*
X13103277Y-12915235D02*
X13112801Y-12953331D01*
X13112801Y-12953331D02*
X13112801Y-13000950D01*
X13112801Y-13000950D02*
X13103277Y-13039045D01*
X13103277Y-13039045D02*
X13093753Y-13058093D01*
X13093753Y-13058093D02*
X13084229Y-13067616D01*
X13084229Y-13067616D02*
X13065182Y-13077140D01*
X13065182Y-13077140D02*
X13046134Y-13077140D01*
X13046134Y-13077140D02*
X13027086Y-13067616D01*
X13027086Y-13067616D02*
X13017563Y-13058093D01*
X13017563Y-13058093D02*
X13008039Y-13039045D01*
X13008039Y-13039045D02*
X12998515Y-13000950D01*
X12998515Y-13000950D02*
X12998515Y-12953331D01*
X12998515Y-12953331D02*
X13008039Y-12915235D01*
X13008039Y-12915235D02*
X13017563Y-12896188D01*
X13017563Y-12896188D02*
X13027086Y-12886664D01*
X13027086Y-12886664D02*
X13046134Y-12877140D01*
X13198515Y-13058093D02*
X13208039Y-13067616D01*
X13208039Y-13067616D02*
X13198515Y-13077140D01*
X13198515Y-13077140D02*
X13188991Y-13067616D01*
X13188991Y-13067616D02*
X13198515Y-13058093D01*
X13198515Y-13058093D02*
X13198515Y-13077140D01*
X13331848Y-12877140D02*
X13350896Y-12877140D01*
X13350896Y-12877140D02*
X13369944Y-12886664D01*
X13369944Y-12886664D02*
X13379467Y-12896188D01*
X13379467Y-12896188D02*
X13388991Y-12915235D01*
X13388991Y-12915235D02*
X13398515Y-12953331D01*
X13398515Y-12953331D02*
X13398515Y-13000950D01*
X13398515Y-13000950D02*
X13388991Y-13039045D01*
X13388991Y-13039045D02*
X13379467Y-13058093D01*
X13379467Y-13058093D02*
X13369944Y-13067616D01*
X13369944Y-13067616D02*
X13350896Y-13077140D01*
X13350896Y-13077140D02*
X13331848Y-13077140D01*
X13331848Y-13077140D02*
X13312801Y-13067616D01*
X13312801Y-13067616D02*
X13303277Y-13058093D01*
X13303277Y-13058093D02*
X13293753Y-13039045D01*
X13293753Y-13039045D02*
X13284229Y-13000950D01*
X13284229Y-13000950D02*
X13284229Y-12953331D01*
X13284229Y-12953331D02*
X13293753Y-12915235D01*
X13293753Y-12915235D02*
X13303277Y-12896188D01*
X13303277Y-12896188D02*
X13312801Y-12886664D01*
X13312801Y-12886664D02*
X13331848Y-12877140D01*
X13465182Y-12877140D02*
X13588991Y-12877140D01*
X13588991Y-12877140D02*
X13522325Y-12953331D01*
X13522325Y-12953331D02*
X13550896Y-12953331D01*
X13550896Y-12953331D02*
X13569944Y-12962854D01*
X13569944Y-12962854D02*
X13579467Y-12972378D01*
X13579467Y-12972378D02*
X13588991Y-12991426D01*
X13588991Y-12991426D02*
X13588991Y-13039045D01*
X13588991Y-13039045D02*
X13579467Y-13058093D01*
X13579467Y-13058093D02*
X13569944Y-13067616D01*
X13569944Y-13067616D02*
X13550896Y-13077140D01*
X13550896Y-13077140D02*
X13493753Y-13077140D01*
X13493753Y-13077140D02*
X13474706Y-13067616D01*
X13474706Y-13067616D02*
X13465182Y-13058093D01*
X13684229Y-13077140D02*
X13722325Y-13077140D01*
X13722325Y-13077140D02*
X13741372Y-13067616D01*
X13741372Y-13067616D02*
X13750896Y-13058093D01*
X13750896Y-13058093D02*
X13769944Y-13029521D01*
X13769944Y-13029521D02*
X13779467Y-12991426D01*
X13779467Y-12991426D02*
X13779467Y-12915235D01*
X13779467Y-12915235D02*
X13769944Y-12896188D01*
X13769944Y-12896188D02*
X13760420Y-12886664D01*
X13760420Y-12886664D02*
X13741372Y-12877140D01*
X13741372Y-12877140D02*
X13703277Y-12877140D01*
X13703277Y-12877140D02*
X13684229Y-12886664D01*
X13684229Y-12886664D02*
X13674706Y-12896188D01*
X13674706Y-12896188D02*
X13665182Y-12915235D01*
X13665182Y-12915235D02*
X13665182Y-12962854D01*
X13665182Y-12962854D02*
X13674706Y-12981902D01*
X13674706Y-12981902D02*
X13684229Y-12991426D01*
X13684229Y-12991426D02*
X13703277Y-13000950D01*
X13703277Y-13000950D02*
X13741372Y-13000950D01*
X13741372Y-13000950D02*
X13760420Y-12991426D01*
X13760420Y-12991426D02*
X13769944Y-12981902D01*
X13769944Y-12981902D02*
X13779467Y-12962854D01*
X13893753Y-12962854D02*
X13874706Y-12953331D01*
X13874706Y-12953331D02*
X13865182Y-12943807D01*
X13865182Y-12943807D02*
X13855658Y-12924759D01*
X13855658Y-12924759D02*
X13855658Y-12915235D01*
X13855658Y-12915235D02*
X13865182Y-12896188D01*
X13865182Y-12896188D02*
X13874706Y-12886664D01*
X13874706Y-12886664D02*
X13893753Y-12877140D01*
X13893753Y-12877140D02*
X13931848Y-12877140D01*
X13931848Y-12877140D02*
X13950896Y-12886664D01*
X13950896Y-12886664D02*
X13960420Y-12896188D01*
X13960420Y-12896188D02*
X13969944Y-12915235D01*
X13969944Y-12915235D02*
X13969944Y-12924759D01*
X13969944Y-12924759D02*
X13960420Y-12943807D01*
X13960420Y-12943807D02*
X13950896Y-12953331D01*
X13950896Y-12953331D02*
X13931848Y-12962854D01*
X13931848Y-12962854D02*
X13893753Y-12962854D01*
X13893753Y-12962854D02*
X13874706Y-12972378D01*
X13874706Y-12972378D02*
X13865182Y-12981902D01*
X13865182Y-12981902D02*
X13855658Y-13000950D01*
X13855658Y-13000950D02*
X13855658Y-13039045D01*
X13855658Y-13039045D02*
X13865182Y-13058093D01*
X13865182Y-13058093D02*
X13874706Y-13067616D01*
X13874706Y-13067616D02*
X13893753Y-13077140D01*
X13893753Y-13077140D02*
X13931848Y-13077140D01*
X13931848Y-13077140D02*
X13950896Y-13067616D01*
X13950896Y-13067616D02*
X13960420Y-13058093D01*
X13960420Y-13058093D02*
X13969944Y-13039045D01*
X13969944Y-13039045D02*
X13969944Y-13000950D01*
X13969944Y-13000950D02*
X13960420Y-12981902D01*
X13960420Y-12981902D02*
X13950896Y-12972378D01*
X13950896Y-12972378D02*
X13931848Y-12962854D01*
X14046134Y-12877140D02*
X14046134Y-12915235D01*
X14122325Y-12877140D02*
X14122325Y-12915235D01*
X14417563Y-13153331D02*
X14408039Y-13143807D01*
X14408039Y-13143807D02*
X14388991Y-13115235D01*
X14388991Y-13115235D02*
X14379468Y-13096188D01*
X14379468Y-13096188D02*
X14369944Y-13067616D01*
X14369944Y-13067616D02*
X14360420Y-13019997D01*
X14360420Y-13019997D02*
X14360420Y-12981902D01*
X14360420Y-12981902D02*
X14369944Y-12934283D01*
X14369944Y-12934283D02*
X14379468Y-12905712D01*
X14379468Y-12905712D02*
X14388991Y-12886664D01*
X14388991Y-12886664D02*
X14408039Y-12858093D01*
X14408039Y-12858093D02*
X14417563Y-12848569D01*
X14484229Y-12896188D02*
X14493753Y-12886664D01*
X14493753Y-12886664D02*
X14512801Y-12877140D01*
X14512801Y-12877140D02*
X14560420Y-12877140D01*
X14560420Y-12877140D02*
X14579468Y-12886664D01*
X14579468Y-12886664D02*
X14588991Y-12896188D01*
X14588991Y-12896188D02*
X14598515Y-12915235D01*
X14598515Y-12915235D02*
X14598515Y-12934283D01*
X14598515Y-12934283D02*
X14588991Y-12962854D01*
X14588991Y-12962854D02*
X14474706Y-13077140D01*
X14474706Y-13077140D02*
X14598515Y-13077140D01*
X14836610Y-13077140D02*
X14836610Y-12877140D01*
X14922325Y-13077140D02*
X14922325Y-12972378D01*
X14922325Y-12972378D02*
X14912801Y-12953331D01*
X14912801Y-12953331D02*
X14893753Y-12943807D01*
X14893753Y-12943807D02*
X14865182Y-12943807D01*
X14865182Y-12943807D02*
X14846134Y-12953331D01*
X14846134Y-12953331D02*
X14836610Y-12962854D01*
X15046134Y-13077140D02*
X15027087Y-13067616D01*
X15027087Y-13067616D02*
X15017563Y-13058093D01*
X15017563Y-13058093D02*
X15008039Y-13039045D01*
X15008039Y-13039045D02*
X15008039Y-12981902D01*
X15008039Y-12981902D02*
X15017563Y-12962854D01*
X15017563Y-12962854D02*
X15027087Y-12953331D01*
X15027087Y-12953331D02*
X15046134Y-12943807D01*
X15046134Y-12943807D02*
X15074706Y-12943807D01*
X15074706Y-12943807D02*
X15093753Y-12953331D01*
X15093753Y-12953331D02*
X15103277Y-12962854D01*
X15103277Y-12962854D02*
X15112801Y-12981902D01*
X15112801Y-12981902D02*
X15112801Y-13039045D01*
X15112801Y-13039045D02*
X15103277Y-13058093D01*
X15103277Y-13058093D02*
X15093753Y-13067616D01*
X15093753Y-13067616D02*
X15074706Y-13077140D01*
X15074706Y-13077140D02*
X15046134Y-13077140D01*
X15227087Y-13077140D02*
X15208039Y-13067616D01*
X15208039Y-13067616D02*
X15198515Y-13048569D01*
X15198515Y-13048569D02*
X15198515Y-12877140D01*
X15379468Y-13067616D02*
X15360420Y-13077140D01*
X15360420Y-13077140D02*
X15322325Y-13077140D01*
X15322325Y-13077140D02*
X15303277Y-13067616D01*
X15303277Y-13067616D02*
X15293753Y-13048569D01*
X15293753Y-13048569D02*
X15293753Y-12972378D01*
X15293753Y-12972378D02*
X15303277Y-12953331D01*
X15303277Y-12953331D02*
X15322325Y-12943807D01*
X15322325Y-12943807D02*
X15360420Y-12943807D01*
X15360420Y-12943807D02*
X15379468Y-12953331D01*
X15379468Y-12953331D02*
X15388991Y-12972378D01*
X15388991Y-12972378D02*
X15388991Y-12991426D01*
X15388991Y-12991426D02*
X15293753Y-13010474D01*
X15465182Y-13067616D02*
X15484230Y-13077140D01*
X15484230Y-13077140D02*
X15522325Y-13077140D01*
X15522325Y-13077140D02*
X15541372Y-13067616D01*
X15541372Y-13067616D02*
X15550896Y-13048569D01*
X15550896Y-13048569D02*
X15550896Y-13039045D01*
X15550896Y-13039045D02*
X15541372Y-13019997D01*
X15541372Y-13019997D02*
X15522325Y-13010474D01*
X15522325Y-13010474D02*
X15493753Y-13010474D01*
X15493753Y-13010474D02*
X15474706Y-13000950D01*
X15474706Y-13000950D02*
X15465182Y-12981902D01*
X15465182Y-12981902D02*
X15465182Y-12972378D01*
X15465182Y-12972378D02*
X15474706Y-12953331D01*
X15474706Y-12953331D02*
X15493753Y-12943807D01*
X15493753Y-12943807D02*
X15522325Y-12943807D01*
X15522325Y-12943807D02*
X15541372Y-12953331D01*
X15617563Y-13153331D02*
X15627087Y-13143807D01*
X15627087Y-13143807D02*
X15646134Y-13115235D01*
X15646134Y-13115235D02*
X15655658Y-13096188D01*
X15655658Y-13096188D02*
X15665182Y-13067616D01*
X15665182Y-13067616D02*
X15674706Y-13019997D01*
X15674706Y-13019997D02*
X15674706Y-12981902D01*
X15674706Y-12981902D02*
X15665182Y-12934283D01*
X15665182Y-12934283D02*
X15655658Y-12905712D01*
X15655658Y-12905712D02*
X15646134Y-12886664D01*
X15646134Y-12886664D02*
X15627087Y-12858093D01*
X15627087Y-12858093D02*
X15617563Y-12848569D01*
M02*
