G04 #@! TF.GenerationSoftware,KiCad,Pcbnew,8.0.8-8.0.8-0~ubuntu24.04.1*
G04 #@! TF.CreationDate,2026-02-24T22:46:37+01:00*
G04 #@! TF.ProjectId,AnalogPeripherial,416e616c-6f67-4506-9572-697068657269,rev?*
G04 #@! TF.SameCoordinates,Original*
G04 #@! TF.FileFunction,Copper,L2,Bot*
G04 #@! TF.FilePolarity,Positive*
%FSLAX46Y46*%
G04 Gerber Fmt 4.6, Leading zero omitted, Abs format (unit mm)*
G04 Created by KiCad (PCBNEW 8.0.8-8.0.8-0~ubuntu24.04.1) date 2026-02-24 22:46:37*
%MOMM*%
%LPD*%
G01*
G04 APERTURE LIST*
G04 #@! TA.AperFunction,ComponentPad*
%ADD10C,2.000000*%
G04 #@! TD*
G04 #@! TA.AperFunction,ComponentPad*
%ADD11C,1.500000*%
G04 #@! TD*
G04 #@! TA.AperFunction,ComponentPad*
%ADD12C,1.524000*%
G04 #@! TD*
G04 #@! TA.AperFunction,ComponentPad*
%ADD13R,1.700000X1.700000*%
G04 #@! TD*
G04 #@! TA.AperFunction,ComponentPad*
%ADD14O,1.700000X1.700000*%
G04 #@! TD*
G04 #@! TA.AperFunction,ComponentPad*
%ADD15R,1.500000X1.500000*%
G04 #@! TD*
G04 #@! TA.AperFunction,ViaPad*
%ADD16C,0.600000*%
G04 #@! TD*
G04 #@! TA.AperFunction,Conductor*
%ADD17C,0.500000*%
G04 #@! TD*
G04 #@! TA.AperFunction,Conductor*
%ADD18C,0.300000*%
G04 #@! TD*
G04 APERTURE END LIST*
D10*
X113749999Y-81599880D03*
X113750000Y-89599880D03*
D11*
X147880000Y-72200000D03*
X143000000Y-72200000D03*
D12*
X136165000Y-67975000D03*
X133625000Y-67975000D03*
D10*
X130400000Y-41100000D03*
X140400000Y-41100000D03*
D13*
X157300000Y-102710000D03*
D14*
X157300000Y-100170000D03*
X157300000Y-97630000D03*
X157300000Y-95090000D03*
D15*
X144800000Y-61600000D03*
X144800000Y-56200000D03*
D13*
X157375000Y-83410000D03*
D14*
X157375000Y-85950000D03*
X157375000Y-88490000D03*
X157375000Y-91030000D03*
D15*
X153200000Y-61600000D03*
X153200000Y-56200000D03*
D16*
X130400000Y-70350000D03*
X154050000Y-81550000D03*
X134000000Y-93000000D03*
X141600000Y-75637500D03*
X149230000Y-86970000D03*
X113874575Y-54995000D03*
X112055425Y-50350000D03*
X134000000Y-101500000D03*
X125050000Y-75320000D03*
X118440425Y-60055000D03*
X153300000Y-50300000D03*
X144800000Y-50300000D03*
X151362500Y-68200000D03*
X151500000Y-78560000D03*
X120080000Y-66060000D03*
X133020000Y-83330000D03*
X125950000Y-83300000D03*
X137760000Y-91110000D03*
X127100000Y-107200000D03*
X132525000Y-76225000D03*
X129650000Y-106550000D03*
X142012500Y-83387500D03*
X139860000Y-88500000D03*
X131900000Y-110100000D03*
X140957500Y-66820000D03*
X147710000Y-77200000D03*
X139390000Y-75587500D03*
X126920000Y-65900000D03*
X145770000Y-84160000D03*
X126860000Y-85500000D03*
X131800000Y-99300000D03*
X151400000Y-80600000D03*
X131800000Y-101400000D03*
X151400000Y-82500000D03*
X127375000Y-90725000D03*
X137175000Y-79400000D03*
X128375000Y-88975000D03*
X128425000Y-80450000D03*
X135200000Y-79400000D03*
X144610000Y-88520000D03*
X143105735Y-88455735D03*
X115874575Y-64995000D03*
X139625000Y-84043252D03*
D17*
X126860000Y-85500000D02*
X126840000Y-85520000D01*
X131800000Y-101400000D02*
X131800000Y-99300000D01*
X151400000Y-82500000D02*
X151400000Y-80600000D01*
X126840000Y-85520000D02*
X126840000Y-90190000D01*
X126840000Y-90190000D02*
X127375000Y-90725000D01*
X135200000Y-79400000D02*
X137175000Y-79400000D01*
X128430000Y-88920000D02*
X128430000Y-80455000D01*
X128430000Y-80455000D02*
X128425000Y-80450000D01*
X128375000Y-88975000D02*
X128430000Y-88920000D01*
D18*
X154230000Y-97630000D02*
X157300000Y-97630000D01*
X144610000Y-88520000D02*
X145120000Y-88520000D01*
X145120000Y-88520000D02*
X154230000Y-97630000D01*
X143105735Y-88455735D02*
X154820000Y-100170000D01*
X154820000Y-100170000D02*
X157300000Y-100170000D01*
X134451471Y-79500000D02*
X126700000Y-79500000D01*
X134951471Y-80000000D02*
X134451471Y-79500000D01*
X115900000Y-68700000D02*
X115900000Y-65020425D01*
X135000000Y-80000000D02*
X134951471Y-80000000D01*
X139625000Y-84043252D02*
X139043252Y-84043252D01*
X126700000Y-79500000D02*
X115900000Y-68700000D01*
X139043252Y-84043252D02*
X135000000Y-80000000D01*
X115900000Y-65020425D02*
X115874575Y-64995000D01*
G04 #@! TA.AperFunction,Conductor*
G36*
X156453292Y-28100650D02*
G01*
X156461107Y-28101034D01*
X156787473Y-28117093D01*
X156799567Y-28118286D01*
X157127768Y-28167048D01*
X157139714Y-28169429D01*
X157461512Y-28250168D01*
X157473150Y-28253704D01*
X157785497Y-28365656D01*
X157796734Y-28370319D01*
X158069171Y-28499408D01*
X158096550Y-28512381D01*
X158107294Y-28518134D01*
X158391720Y-28688944D01*
X158401848Y-28695725D01*
X158668135Y-28893637D01*
X158677540Y-28901372D01*
X158893963Y-29097989D01*
X158923106Y-29124465D01*
X158931713Y-29133094D01*
X159154184Y-29379209D01*
X159161903Y-29388641D01*
X159359143Y-29655416D01*
X159365895Y-29665555D01*
X159536005Y-29950424D01*
X159541724Y-29961168D01*
X159683034Y-30261339D01*
X159687677Y-30272608D01*
X159798837Y-30585203D01*
X159802351Y-30596873D01*
X159882284Y-30918863D01*
X159884636Y-30930823D01*
X159932573Y-31259117D01*
X159933739Y-31271249D01*
X159949358Y-31605708D01*
X159949493Y-31611800D01*
X159949320Y-31681225D01*
X159949481Y-31683744D01*
X159931062Y-108851014D01*
X159930911Y-108857096D01*
X159914477Y-109190102D01*
X159913273Y-109202270D01*
X159864209Y-109531462D01*
X159861813Y-109543452D01*
X159780562Y-109866227D01*
X159776996Y-109877922D01*
X159664358Y-110191111D01*
X159659658Y-110202398D01*
X159516722Y-110502976D01*
X159510933Y-110513746D01*
X159339089Y-110798784D01*
X159332267Y-110808932D01*
X159133186Y-111075661D01*
X159125399Y-111085086D01*
X158901014Y-111330916D01*
X158892336Y-111339530D01*
X158644833Y-111562064D01*
X158635348Y-111569781D01*
X158367139Y-111766853D01*
X158356941Y-111773598D01*
X158070617Y-111943304D01*
X158059805Y-111949012D01*
X157758159Y-112089695D01*
X157746836Y-112094310D01*
X157432814Y-112204597D01*
X157421092Y-112208075D01*
X157097732Y-112286900D01*
X157085725Y-112289207D01*
X156756166Y-112335803D01*
X156743990Y-112336916D01*
X156408389Y-112350958D01*
X156402274Y-112351063D01*
X156336370Y-112350567D01*
X156327678Y-112351106D01*
X112471505Y-112371062D01*
X112465366Y-112370913D01*
X112131501Y-112354515D01*
X112119390Y-112353322D01*
X111791736Y-112304721D01*
X111779802Y-112302347D01*
X111458490Y-112221866D01*
X111446849Y-112218335D01*
X111344185Y-112181602D01*
X111134958Y-112106740D01*
X111123716Y-112102083D01*
X110824283Y-111960463D01*
X110813551Y-111954727D01*
X110529435Y-111784436D01*
X110519316Y-111777675D01*
X110253254Y-111580350D01*
X110243848Y-111572630D01*
X110204900Y-111537330D01*
X109998411Y-111350179D01*
X109989820Y-111341588D01*
X109767369Y-111096151D01*
X109759649Y-111086745D01*
X109659456Y-110951650D01*
X109562320Y-110820677D01*
X109555563Y-110810564D01*
X109548502Y-110798784D01*
X109385272Y-110526448D01*
X109379536Y-110515716D01*
X109237916Y-110216283D01*
X109233259Y-110205041D01*
X109177964Y-110050500D01*
X109121659Y-109893138D01*
X109118136Y-109881521D01*
X109042560Y-109579792D01*
X109037652Y-109560197D01*
X109035278Y-109548263D01*
X109034564Y-109543452D01*
X108986676Y-109220606D01*
X108985484Y-109208498D01*
X108984580Y-109190102D01*
X108969083Y-108874602D01*
X108968935Y-108868518D01*
X108968935Y-108851014D01*
X108968936Y-108805677D01*
X108968935Y-108805673D01*
X108968935Y-108797409D01*
X108968916Y-108797143D01*
X108968868Y-108593713D01*
X111149500Y-108593713D01*
X111149500Y-108806287D01*
X111182754Y-109016243D01*
X111247738Y-109216243D01*
X111248444Y-109218414D01*
X111344951Y-109407820D01*
X111469890Y-109579786D01*
X111620213Y-109730109D01*
X111792179Y-109855048D01*
X111792181Y-109855049D01*
X111792184Y-109855051D01*
X111981588Y-109951557D01*
X112183757Y-110017246D01*
X112393713Y-110050500D01*
X112393714Y-110050500D01*
X112606286Y-110050500D01*
X112606287Y-110050500D01*
X112816243Y-110017246D01*
X113018412Y-109951557D01*
X113207816Y-109855051D01*
X113311402Y-109779792D01*
X113379786Y-109730109D01*
X113379788Y-109730106D01*
X113379792Y-109730104D01*
X113530104Y-109579792D01*
X113530106Y-109579788D01*
X113530109Y-109579786D01*
X113655048Y-109407820D01*
X113655047Y-109407820D01*
X113655051Y-109407816D01*
X113751557Y-109218412D01*
X113817246Y-109016243D01*
X113850500Y-108806287D01*
X113850500Y-108793713D01*
X155049500Y-108793713D01*
X155049500Y-109006286D01*
X155082490Y-109214581D01*
X155082754Y-109216243D01*
X155145001Y-109407820D01*
X155148444Y-109418414D01*
X155244951Y-109607820D01*
X155369890Y-109779786D01*
X155520213Y-109930109D01*
X155692179Y-110055048D01*
X155692181Y-110055049D01*
X155692184Y-110055051D01*
X155881588Y-110151557D01*
X156083757Y-110217246D01*
X156293713Y-110250500D01*
X156293714Y-110250500D01*
X156506286Y-110250500D01*
X156506287Y-110250500D01*
X156716243Y-110217246D01*
X156918412Y-110151557D01*
X157107816Y-110055051D01*
X157129789Y-110039086D01*
X157279786Y-109930109D01*
X157279788Y-109930106D01*
X157279792Y-109930104D01*
X157430104Y-109779792D01*
X157430106Y-109779788D01*
X157430109Y-109779786D01*
X157555048Y-109607820D01*
X157555047Y-109607820D01*
X157555051Y-109607816D01*
X157651557Y-109418412D01*
X157717246Y-109216243D01*
X157750500Y-109006287D01*
X157750500Y-108793713D01*
X157717246Y-108583757D01*
X157651557Y-108381588D01*
X157555051Y-108192184D01*
X157555049Y-108192181D01*
X157555048Y-108192179D01*
X157430109Y-108020213D01*
X157279786Y-107869890D01*
X157107820Y-107744951D01*
X156918414Y-107648444D01*
X156918413Y-107648443D01*
X156918412Y-107648443D01*
X156716243Y-107582754D01*
X156716241Y-107582753D01*
X156716240Y-107582753D01*
X156537843Y-107554498D01*
X156506287Y-107549500D01*
X156293713Y-107549500D01*
X156262157Y-107554498D01*
X156083760Y-107582753D01*
X155881585Y-107648444D01*
X155692179Y-107744951D01*
X155520213Y-107869890D01*
X155369890Y-108020213D01*
X155244951Y-108192179D01*
X155148444Y-108381585D01*
X155082753Y-108583760D01*
X155049500Y-108793713D01*
X113850500Y-108793713D01*
X113850500Y-108593713D01*
X113817246Y-108383757D01*
X113751557Y-108181588D01*
X113655051Y-107992184D01*
X113655049Y-107992181D01*
X113655048Y-107992179D01*
X113649048Y-107983920D01*
X141229499Y-107983920D01*
X141258340Y-108128907D01*
X141258343Y-108128917D01*
X141314912Y-108265488D01*
X141314919Y-108265501D01*
X141397048Y-108388415D01*
X141397051Y-108388419D01*
X141501580Y-108492948D01*
X141501584Y-108492951D01*
X141624498Y-108575080D01*
X141624511Y-108575087D01*
X141669479Y-108593713D01*
X141761087Y-108631658D01*
X141761091Y-108631658D01*
X141761092Y-108631659D01*
X141906079Y-108660500D01*
X141906082Y-108660500D01*
X142053920Y-108660500D01*
X142151462Y-108641096D01*
X142198913Y-108631658D01*
X142314549Y-108583760D01*
X142335488Y-108575087D01*
X142335488Y-108575086D01*
X142335495Y-108575084D01*
X142458416Y-108492951D01*
X142562951Y-108388416D01*
X142645084Y-108265495D01*
X142701658Y-108128913D01*
X142711096Y-108081462D01*
X142730500Y-107983920D01*
X145629499Y-107983920D01*
X145658340Y-108128907D01*
X145658343Y-108128917D01*
X145714912Y-108265488D01*
X145714919Y-108265501D01*
X145797048Y-108388415D01*
X145797051Y-108388419D01*
X145901580Y-108492948D01*
X145901584Y-108492951D01*
X146024498Y-108575080D01*
X146024511Y-108575087D01*
X146069479Y-108593713D01*
X146161087Y-108631658D01*
X146161091Y-108631658D01*
X146161092Y-108631659D01*
X146306079Y-108660500D01*
X146306082Y-108660500D01*
X146453920Y-108660500D01*
X146551462Y-108641096D01*
X146598913Y-108631658D01*
X146714549Y-108583760D01*
X146735488Y-108575087D01*
X146735488Y-108575086D01*
X146735495Y-108575084D01*
X146858416Y-108492951D01*
X146962951Y-108388416D01*
X147045084Y-108265495D01*
X147101658Y-108128913D01*
X147111096Y-108081462D01*
X147130500Y-107983920D01*
X147130500Y-107836079D01*
X147101659Y-107691092D01*
X147101658Y-107691091D01*
X147101658Y-107691087D01*
X147101656Y-107691082D01*
X147045087Y-107554511D01*
X147045080Y-107554498D01*
X146962951Y-107431584D01*
X146962948Y-107431580D01*
X146858419Y-107327051D01*
X146858415Y-107327048D01*
X146735501Y-107244919D01*
X146735488Y-107244912D01*
X146598917Y-107188343D01*
X146598907Y-107188340D01*
X146453920Y-107159500D01*
X146453918Y-107159500D01*
X146306082Y-107159500D01*
X146306080Y-107159500D01*
X146161092Y-107188340D01*
X146161082Y-107188343D01*
X146024511Y-107244912D01*
X146024498Y-107244919D01*
X145901584Y-107327048D01*
X145901580Y-107327051D01*
X145797051Y-107431580D01*
X145797048Y-107431584D01*
X145714919Y-107554498D01*
X145714912Y-107554511D01*
X145658343Y-107691082D01*
X145658340Y-107691092D01*
X145629500Y-107836079D01*
X145629500Y-107836082D01*
X145629500Y-107983918D01*
X145629500Y-107983920D01*
X145629499Y-107983920D01*
X142730500Y-107983920D01*
X142730500Y-107836079D01*
X142701659Y-107691092D01*
X142701658Y-107691091D01*
X142701658Y-107691087D01*
X142701656Y-107691082D01*
X142645087Y-107554511D01*
X142645080Y-107554498D01*
X142562951Y-107431584D01*
X142562948Y-107431580D01*
X142458419Y-107327051D01*
X142458415Y-107327048D01*
X142335501Y-107244919D01*
X142335488Y-107244912D01*
X142198917Y-107188343D01*
X142198907Y-107188340D01*
X142053920Y-107159500D01*
X142053918Y-107159500D01*
X141906082Y-107159500D01*
X141906080Y-107159500D01*
X141761092Y-107188340D01*
X141761082Y-107188343D01*
X141624511Y-107244912D01*
X141624498Y-107244919D01*
X141501584Y-107327048D01*
X141501580Y-107327051D01*
X141397051Y-107431580D01*
X141397048Y-107431584D01*
X141314919Y-107554498D01*
X141314912Y-107554511D01*
X141258343Y-107691082D01*
X141258340Y-107691092D01*
X141229500Y-107836079D01*
X141229500Y-107836082D01*
X141229500Y-107983918D01*
X141229500Y-107983920D01*
X141229499Y-107983920D01*
X113649048Y-107983920D01*
X113530109Y-107820213D01*
X113379786Y-107669890D01*
X113207820Y-107544951D01*
X113018414Y-107448444D01*
X113018413Y-107448443D01*
X113018412Y-107448443D01*
X112816243Y-107382754D01*
X112816241Y-107382753D01*
X112816240Y-107382753D01*
X112654957Y-107357208D01*
X112606287Y-107349500D01*
X112393713Y-107349500D01*
X112345042Y-107357208D01*
X112183760Y-107382753D01*
X111981585Y-107448444D01*
X111792179Y-107544951D01*
X111620213Y-107669890D01*
X111469890Y-107820213D01*
X111344951Y-107992179D01*
X111248444Y-108181585D01*
X111182753Y-108383760D01*
X111165459Y-108492951D01*
X111149500Y-108593713D01*
X108968868Y-108593713D01*
X108966665Y-99299998D01*
X131194318Y-99299998D01*
X131194318Y-99300001D01*
X131214955Y-99456760D01*
X131214956Y-99456762D01*
X131240061Y-99517370D01*
X131249500Y-99564823D01*
X131249500Y-101135176D01*
X131240061Y-101182628D01*
X131214957Y-101243234D01*
X131214955Y-101243239D01*
X131194318Y-101399998D01*
X131194318Y-101400001D01*
X131214955Y-101556760D01*
X131214956Y-101556762D01*
X131275464Y-101702841D01*
X131371718Y-101828282D01*
X131497159Y-101924536D01*
X131643238Y-101985044D01*
X131721619Y-101995363D01*
X131799999Y-102005682D01*
X131800000Y-102005682D01*
X131800001Y-102005682D01*
X131852254Y-101998802D01*
X131956762Y-101985044D01*
X132102841Y-101924536D01*
X132228282Y-101828282D01*
X132324536Y-101702841D01*
X132385044Y-101556762D01*
X132405682Y-101400000D01*
X132385044Y-101243238D01*
X132359939Y-101182628D01*
X132350500Y-101135176D01*
X132350500Y-99564823D01*
X132359939Y-99517370D01*
X132385044Y-99456762D01*
X132405682Y-99300000D01*
X132385044Y-99143238D01*
X132324536Y-98997159D01*
X132228282Y-98871718D01*
X132102841Y-98775464D01*
X131956762Y-98714956D01*
X131956760Y-98714955D01*
X131800001Y-98694318D01*
X131799999Y-98694318D01*
X131643239Y-98714955D01*
X131643237Y-98714956D01*
X131497160Y-98775463D01*
X131371718Y-98871718D01*
X131275463Y-98997160D01*
X131214956Y-99143237D01*
X131214955Y-99143239D01*
X131194318Y-99299998D01*
X108966665Y-99299998D01*
X108964366Y-89599878D01*
X112444532Y-89599878D01*
X112444532Y-89599881D01*
X112464364Y-89826566D01*
X112464366Y-89826577D01*
X112523258Y-90046368D01*
X112523261Y-90046377D01*
X112619431Y-90252612D01*
X112619432Y-90252614D01*
X112749954Y-90439021D01*
X112910858Y-90599925D01*
X112910861Y-90599927D01*
X113097266Y-90730448D01*
X113303504Y-90826619D01*
X113523308Y-90885515D01*
X113685230Y-90899681D01*
X113749998Y-90905348D01*
X113750000Y-90905348D01*
X113750002Y-90905348D01*
X113806673Y-90900389D01*
X113976692Y-90885515D01*
X114196496Y-90826619D01*
X114402734Y-90730448D01*
X114589139Y-90599927D01*
X114750047Y-90439019D01*
X114880568Y-90252614D01*
X114976739Y-90046376D01*
X115035635Y-89826572D01*
X115055468Y-89599880D01*
X115053788Y-89580682D01*
X115049801Y-89535110D01*
X115035635Y-89373188D01*
X114976739Y-89153384D01*
X114880568Y-88947146D01*
X114750047Y-88760741D01*
X114750045Y-88760738D01*
X114589141Y-88599834D01*
X114402734Y-88469312D01*
X114402732Y-88469311D01*
X114196497Y-88373141D01*
X114196488Y-88373138D01*
X113976697Y-88314246D01*
X113976693Y-88314245D01*
X113976692Y-88314245D01*
X113976691Y-88314244D01*
X113976686Y-88314244D01*
X113750002Y-88294412D01*
X113749998Y-88294412D01*
X113523313Y-88314244D01*
X113523302Y-88314246D01*
X113303511Y-88373138D01*
X113303502Y-88373141D01*
X113097267Y-88469311D01*
X113097265Y-88469312D01*
X112910858Y-88599834D01*
X112749954Y-88760738D01*
X112619432Y-88947145D01*
X112619431Y-88947147D01*
X112523261Y-89153382D01*
X112523258Y-89153391D01*
X112464366Y-89373182D01*
X112464364Y-89373193D01*
X112444532Y-89599878D01*
X108964366Y-89599878D01*
X108963394Y-85499998D01*
X126254318Y-85499998D01*
X126254318Y-85500001D01*
X126274955Y-85656760D01*
X126274957Y-85656765D01*
X126280060Y-85669084D01*
X126289500Y-85716538D01*
X126289500Y-90262476D01*
X126302500Y-90310995D01*
X126327014Y-90402480D01*
X126327016Y-90402485D01*
X126399489Y-90528013D01*
X126399491Y-90528016D01*
X126798478Y-90927003D01*
X126825358Y-90967231D01*
X126850462Y-91027838D01*
X126902630Y-91095826D01*
X126946718Y-91153282D01*
X127072159Y-91249536D01*
X127218238Y-91310044D01*
X127296619Y-91320363D01*
X127374999Y-91330682D01*
X127375000Y-91330682D01*
X127375001Y-91330682D01*
X127427254Y-91323802D01*
X127531762Y-91310044D01*
X127677841Y-91249536D01*
X127803282Y-91153282D01*
X127899536Y-91027841D01*
X127960044Y-90881762D01*
X127980682Y-90725000D01*
X127960044Y-90568238D01*
X127899536Y-90422159D01*
X127803282Y-90296718D01*
X127803280Y-90296717D01*
X127803280Y-90296716D01*
X127758657Y-90262476D01*
X127677841Y-90200464D01*
X127677837Y-90200462D01*
X127677838Y-90200462D01*
X127617231Y-90175358D01*
X127577003Y-90148478D01*
X127426819Y-89998294D01*
X127393334Y-89936971D01*
X127390500Y-89910613D01*
X127390500Y-85813107D01*
X127399939Y-85765654D01*
X127411522Y-85737690D01*
X127445044Y-85656762D01*
X127461389Y-85532607D01*
X127465682Y-85500001D01*
X127465682Y-85499998D01*
X127445044Y-85343239D01*
X127445044Y-85343238D01*
X127384536Y-85197159D01*
X127288282Y-85071718D01*
X127162841Y-84975464D01*
X127016762Y-84914956D01*
X127016760Y-84914955D01*
X126860001Y-84894318D01*
X126859999Y-84894318D01*
X126703239Y-84914955D01*
X126703237Y-84914956D01*
X126557160Y-84975463D01*
X126431718Y-85071718D01*
X126335463Y-85197160D01*
X126274956Y-85343237D01*
X126274955Y-85343239D01*
X126254318Y-85499998D01*
X108963394Y-85499998D01*
X108962470Y-81599878D01*
X112444531Y-81599878D01*
X112444531Y-81599881D01*
X112464363Y-81826566D01*
X112464365Y-81826577D01*
X112523257Y-82046368D01*
X112523260Y-82046377D01*
X112619430Y-82252612D01*
X112619431Y-82252614D01*
X112749953Y-82439021D01*
X112910857Y-82599925D01*
X112910860Y-82599927D01*
X113097265Y-82730448D01*
X113303503Y-82826619D01*
X113523307Y-82885515D01*
X113685229Y-82899681D01*
X113749997Y-82905348D01*
X113749999Y-82905348D01*
X113750001Y-82905348D01*
X113806672Y-82900389D01*
X113976691Y-82885515D01*
X114196495Y-82826619D01*
X114402733Y-82730448D01*
X114589138Y-82599927D01*
X114750046Y-82439019D01*
X114880567Y-82252614D01*
X114976738Y-82046376D01*
X115035634Y-81826572D01*
X115055467Y-81599880D01*
X115035634Y-81373188D01*
X114976738Y-81153384D01*
X114880567Y-80947146D01*
X114750046Y-80760741D01*
X114750044Y-80760738D01*
X114589140Y-80599834D01*
X114402733Y-80469312D01*
X114402731Y-80469311D01*
X114196496Y-80373141D01*
X114196487Y-80373138D01*
X113976696Y-80314246D01*
X113976692Y-80314245D01*
X113976691Y-80314245D01*
X113976690Y-80314244D01*
X113976685Y-80314244D01*
X113750001Y-80294412D01*
X113749997Y-80294412D01*
X113523312Y-80314244D01*
X113523301Y-80314246D01*
X113303510Y-80373138D01*
X113303501Y-80373141D01*
X113097266Y-80469311D01*
X113097264Y-80469312D01*
X112910857Y-80599834D01*
X112749953Y-80760738D01*
X112619431Y-80947145D01*
X112619430Y-80947147D01*
X112523260Y-81153382D01*
X112523257Y-81153391D01*
X112464365Y-81373182D01*
X112464363Y-81373193D01*
X112444531Y-81599878D01*
X108962470Y-81599878D01*
X108958534Y-64994998D01*
X115268893Y-64994998D01*
X115268893Y-64995001D01*
X115289530Y-65151760D01*
X115289531Y-65151762D01*
X115350039Y-65297841D01*
X115423877Y-65394069D01*
X115449070Y-65459235D01*
X115449500Y-65469553D01*
X115449500Y-68759308D01*
X115473712Y-68849672D01*
X115480200Y-68873885D01*
X115480200Y-68873886D01*
X115480201Y-68873887D01*
X115539511Y-68976614D01*
X126423386Y-79860489D01*
X126423387Y-79860490D01*
X126423389Y-79860491D01*
X126482693Y-79894729D01*
X126482696Y-79894732D01*
X126516937Y-79914500D01*
X126526114Y-79919799D01*
X126640691Y-79950500D01*
X127799918Y-79950500D01*
X127866957Y-79970185D01*
X127912712Y-80022989D01*
X127922656Y-80092147D01*
X127902858Y-80139154D01*
X127904528Y-80140119D01*
X127900465Y-80147156D01*
X127839956Y-80293237D01*
X127839955Y-80293239D01*
X127819318Y-80449998D01*
X127819318Y-80450001D01*
X127839955Y-80606760D01*
X127839956Y-80606762D01*
X127870061Y-80679441D01*
X127879500Y-80726894D01*
X127879500Y-88592225D01*
X127859815Y-88659264D01*
X127853879Y-88667707D01*
X127850465Y-88672156D01*
X127789956Y-88818237D01*
X127789955Y-88818239D01*
X127769318Y-88974998D01*
X127769318Y-88975001D01*
X127789955Y-89131760D01*
X127789956Y-89131762D01*
X127850464Y-89277841D01*
X127946718Y-89403282D01*
X128072159Y-89499536D01*
X128218238Y-89560044D01*
X128296619Y-89570363D01*
X128374999Y-89580682D01*
X128375000Y-89580682D01*
X128375001Y-89580682D01*
X128427254Y-89573802D01*
X128531762Y-89560044D01*
X128677841Y-89499536D01*
X128803282Y-89403282D01*
X128899536Y-89277841D01*
X128960044Y-89131762D01*
X128975274Y-89016073D01*
X128978440Y-89000162D01*
X128980500Y-88992475D01*
X128980500Y-88984515D01*
X128980682Y-88981737D01*
X128980682Y-88968276D01*
X128980500Y-88965495D01*
X128980500Y-88455733D01*
X142500053Y-88455733D01*
X142500053Y-88455736D01*
X142520690Y-88612495D01*
X142520691Y-88612497D01*
X142581199Y-88758576D01*
X142677453Y-88884017D01*
X142802894Y-88980271D01*
X142948973Y-89040779D01*
X143027818Y-89051159D01*
X143091713Y-89079424D01*
X143099313Y-89086416D01*
X154543386Y-100530489D01*
X154543387Y-100530490D01*
X154543389Y-100530491D01*
X154602693Y-100564729D01*
X154602696Y-100564732D01*
X154636937Y-100584500D01*
X154646114Y-100589799D01*
X154760691Y-100620500D01*
X156162305Y-100620500D01*
X156229344Y-100640185D01*
X156273303Y-100689225D01*
X156317634Y-100778255D01*
X156446128Y-100948407D01*
X156603698Y-101092052D01*
X156784981Y-101204298D01*
X156983802Y-101281321D01*
X157156544Y-101313612D01*
X157218823Y-101345279D01*
X157254096Y-101405591D01*
X157251162Y-101475400D01*
X157210953Y-101532540D01*
X157146235Y-101558871D01*
X157133757Y-101559500D01*
X156405143Y-101559500D01*
X156405117Y-101559502D01*
X156380012Y-101562413D01*
X156380008Y-101562415D01*
X156277235Y-101607793D01*
X156197794Y-101687234D01*
X156152415Y-101790006D01*
X156152415Y-101790008D01*
X156149500Y-101815131D01*
X156149500Y-103604856D01*
X156149502Y-103604882D01*
X156152413Y-103629987D01*
X156152415Y-103629991D01*
X156197793Y-103732764D01*
X156197794Y-103732765D01*
X156277235Y-103812206D01*
X156380009Y-103857585D01*
X156405135Y-103860500D01*
X158194864Y-103860499D01*
X158194879Y-103860497D01*
X158194882Y-103860497D01*
X158219987Y-103857586D01*
X158219988Y-103857585D01*
X158219991Y-103857585D01*
X158322765Y-103812206D01*
X158402206Y-103732765D01*
X158447585Y-103629991D01*
X158450500Y-103604865D01*
X158450499Y-101815136D01*
X158450497Y-101815117D01*
X158447586Y-101790012D01*
X158447585Y-101790010D01*
X158447585Y-101790009D01*
X158402206Y-101687235D01*
X158322765Y-101607794D01*
X158322763Y-101607793D01*
X158219992Y-101562415D01*
X158194868Y-101559500D01*
X157466243Y-101559500D01*
X157399204Y-101539815D01*
X157353449Y-101487011D01*
X157343505Y-101417853D01*
X157372530Y-101354297D01*
X157431308Y-101316523D01*
X157443441Y-101313614D01*
X157616198Y-101281321D01*
X157815019Y-101204298D01*
X157996302Y-101092052D01*
X158153872Y-100948407D01*
X158282366Y-100778255D01*
X158377405Y-100587389D01*
X158435756Y-100382310D01*
X158455429Y-100170000D01*
X158435756Y-99957690D01*
X158377405Y-99752611D01*
X158377403Y-99752606D01*
X158377403Y-99752605D01*
X158282367Y-99561746D01*
X158153872Y-99391593D01*
X157996302Y-99247948D01*
X157815019Y-99135702D01*
X157815017Y-99135701D01*
X157715608Y-99097190D01*
X157616198Y-99058679D01*
X157419385Y-99021888D01*
X157357106Y-98990221D01*
X157321833Y-98929908D01*
X157324767Y-98860100D01*
X157364976Y-98802960D01*
X157419384Y-98778111D01*
X157616198Y-98741321D01*
X157815019Y-98664298D01*
X157996302Y-98552052D01*
X158153872Y-98408407D01*
X158282366Y-98238255D01*
X158360918Y-98080500D01*
X158377403Y-98047394D01*
X158377405Y-98047389D01*
X158393594Y-97990490D01*
X158435756Y-97842310D01*
X158455429Y-97630000D01*
X158435756Y-97417690D01*
X158377405Y-97212611D01*
X158377403Y-97212606D01*
X158377403Y-97212605D01*
X158282367Y-97021746D01*
X158153872Y-96851593D01*
X157996302Y-96707948D01*
X157815019Y-96595702D01*
X157815014Y-96595700D01*
X157808129Y-96593032D01*
X157786037Y-96584474D01*
X157730636Y-96541903D01*
X157707045Y-96476136D01*
X157722756Y-96408056D01*
X157772779Y-96359276D01*
X157778426Y-96356466D01*
X157977578Y-96263599D01*
X158171082Y-96128105D01*
X158338105Y-95961082D01*
X158473600Y-95767578D01*
X158573429Y-95553492D01*
X158573432Y-95553486D01*
X158630636Y-95340000D01*
X157733012Y-95340000D01*
X157765925Y-95282993D01*
X157800000Y-95155826D01*
X157800000Y-95024174D01*
X157765925Y-94897007D01*
X157733012Y-94840000D01*
X158630636Y-94840000D01*
X158630635Y-94839999D01*
X158573432Y-94626513D01*
X158573429Y-94626507D01*
X158473600Y-94412422D01*
X158473599Y-94412420D01*
X158338113Y-94218926D01*
X158338108Y-94218920D01*
X158171082Y-94051894D01*
X157977578Y-93916399D01*
X157763492Y-93816570D01*
X157763486Y-93816567D01*
X157550000Y-93759364D01*
X157550000Y-94656988D01*
X157492993Y-94624075D01*
X157365826Y-94590000D01*
X157234174Y-94590000D01*
X157107007Y-94624075D01*
X157050000Y-94656988D01*
X157050000Y-93759364D01*
X157049999Y-93759364D01*
X156836513Y-93816567D01*
X156836507Y-93816570D01*
X156622422Y-93916399D01*
X156622420Y-93916400D01*
X156428926Y-94051886D01*
X156428920Y-94051891D01*
X156261891Y-94218920D01*
X156261886Y-94218926D01*
X156126400Y-94412420D01*
X156126399Y-94412422D01*
X156026570Y-94626507D01*
X156026567Y-94626513D01*
X155969364Y-94839999D01*
X155969364Y-94840000D01*
X156866988Y-94840000D01*
X156834075Y-94897007D01*
X156800000Y-95024174D01*
X156800000Y-95155826D01*
X156834075Y-95282993D01*
X156866988Y-95340000D01*
X155969364Y-95340000D01*
X156026567Y-95553486D01*
X156026570Y-95553492D01*
X156126399Y-95767578D01*
X156261894Y-95961082D01*
X156428917Y-96128105D01*
X156622421Y-96263600D01*
X156821573Y-96356466D01*
X156874012Y-96402638D01*
X156893164Y-96469832D01*
X156872948Y-96536713D01*
X156819783Y-96582048D01*
X156813968Y-96584472D01*
X156806771Y-96587260D01*
X156784982Y-96595701D01*
X156784980Y-96595702D01*
X156603699Y-96707947D01*
X156446127Y-96851593D01*
X156317636Y-97021742D01*
X156317634Y-97021745D01*
X156273303Y-97110774D01*
X156225803Y-97162008D01*
X156162305Y-97179500D01*
X154467965Y-97179500D01*
X154400926Y-97159815D01*
X154380284Y-97143181D01*
X148017102Y-90779999D01*
X156044364Y-90779999D01*
X156044364Y-90780000D01*
X156941988Y-90780000D01*
X156909075Y-90837007D01*
X156875000Y-90964174D01*
X156875000Y-91095826D01*
X156909075Y-91222993D01*
X156941988Y-91280000D01*
X156044364Y-91280000D01*
X156101567Y-91493486D01*
X156101570Y-91493492D01*
X156201399Y-91707578D01*
X156336894Y-91901082D01*
X156503917Y-92068105D01*
X156697421Y-92203600D01*
X156911507Y-92303429D01*
X156911516Y-92303433D01*
X157125000Y-92360634D01*
X157125000Y-91463012D01*
X157182007Y-91495925D01*
X157309174Y-91530000D01*
X157440826Y-91530000D01*
X157567993Y-91495925D01*
X157625000Y-91463012D01*
X157625000Y-92360633D01*
X157838483Y-92303433D01*
X157838492Y-92303429D01*
X158052578Y-92203600D01*
X158246082Y-92068105D01*
X158413105Y-91901082D01*
X158548600Y-91707578D01*
X158648429Y-91493492D01*
X158648432Y-91493486D01*
X158705636Y-91280000D01*
X157808012Y-91280000D01*
X157840925Y-91222993D01*
X157875000Y-91095826D01*
X157875000Y-90964174D01*
X157840925Y-90837007D01*
X157808012Y-90780000D01*
X158705636Y-90780000D01*
X158705635Y-90779999D01*
X158648432Y-90566513D01*
X158648429Y-90566507D01*
X158548600Y-90352422D01*
X158548599Y-90352420D01*
X158413113Y-90158926D01*
X158413108Y-90158920D01*
X158246082Y-89991894D01*
X158052578Y-89856399D01*
X157853426Y-89763533D01*
X157800987Y-89717360D01*
X157781835Y-89650167D01*
X157802051Y-89583286D01*
X157855216Y-89537951D01*
X157861005Y-89535537D01*
X157890019Y-89524298D01*
X158071302Y-89412052D01*
X158228872Y-89268407D01*
X158357366Y-89098255D01*
X158384115Y-89044536D01*
X158452403Y-88907394D01*
X158452403Y-88907393D01*
X158452405Y-88907389D01*
X158510756Y-88702310D01*
X158530429Y-88490000D01*
X158510756Y-88277690D01*
X158452405Y-88072611D01*
X158452403Y-88072606D01*
X158452403Y-88072605D01*
X158357367Y-87881746D01*
X158228872Y-87711593D01*
X158071302Y-87567948D01*
X157890019Y-87455702D01*
X157890017Y-87455701D01*
X157790608Y-87417190D01*
X157691198Y-87378679D01*
X157494385Y-87341888D01*
X157432106Y-87310221D01*
X157396833Y-87249908D01*
X157399767Y-87180100D01*
X157439976Y-87122960D01*
X157494384Y-87098111D01*
X157691198Y-87061321D01*
X157890019Y-86984298D01*
X158071302Y-86872052D01*
X158228872Y-86728407D01*
X158357366Y-86558255D01*
X158452405Y-86367389D01*
X158510756Y-86162310D01*
X158530429Y-85950000D01*
X158510756Y-85737690D01*
X158452405Y-85532611D01*
X158452403Y-85532606D01*
X158452403Y-85532605D01*
X158357367Y-85341746D01*
X158228872Y-85171593D01*
X158071302Y-85027948D01*
X157890019Y-84915702D01*
X157890017Y-84915701D01*
X157790608Y-84877190D01*
X157691198Y-84838679D01*
X157518456Y-84806387D01*
X157456176Y-84774719D01*
X157420903Y-84714407D01*
X157423837Y-84644599D01*
X157464046Y-84587459D01*
X157528764Y-84561128D01*
X157541233Y-84560499D01*
X158269864Y-84560499D01*
X158269879Y-84560497D01*
X158269882Y-84560497D01*
X158294987Y-84557586D01*
X158294988Y-84557585D01*
X158294991Y-84557585D01*
X158397765Y-84512206D01*
X158477206Y-84432765D01*
X158522585Y-84329991D01*
X158525500Y-84304865D01*
X158525499Y-82515136D01*
X158523744Y-82500000D01*
X158522586Y-82490012D01*
X158522585Y-82490010D01*
X158522585Y-82490009D01*
X158477206Y-82387235D01*
X158397765Y-82307794D01*
X158397763Y-82307793D01*
X158294992Y-82262415D01*
X158269865Y-82259500D01*
X156480143Y-82259500D01*
X156480117Y-82259502D01*
X156455012Y-82262413D01*
X156455008Y-82262415D01*
X156352235Y-82307793D01*
X156272794Y-82387234D01*
X156227415Y-82490006D01*
X156227415Y-82490008D01*
X156224500Y-82515131D01*
X156224500Y-84304856D01*
X156224502Y-84304882D01*
X156227413Y-84329987D01*
X156227415Y-84329991D01*
X156272793Y-84432764D01*
X156272794Y-84432765D01*
X156352235Y-84512206D01*
X156455009Y-84557585D01*
X156480135Y-84560500D01*
X157208758Y-84560499D01*
X157275795Y-84580183D01*
X157321550Y-84632987D01*
X157331494Y-84702146D01*
X157302469Y-84765702D01*
X157243691Y-84803476D01*
X157231542Y-84806388D01*
X157175116Y-84816935D01*
X157058802Y-84838679D01*
X157058800Y-84838679D01*
X157058798Y-84838680D01*
X156859982Y-84915701D01*
X156859980Y-84915702D01*
X156678699Y-85027947D01*
X156521127Y-85171593D01*
X156392632Y-85341746D01*
X156297596Y-85532605D01*
X156297596Y-85532607D01*
X156239244Y-85737689D01*
X156219571Y-85949999D01*
X156219571Y-85950000D01*
X156239244Y-86162310D01*
X156297596Y-86367392D01*
X156297596Y-86367394D01*
X156392632Y-86558253D01*
X156392634Y-86558255D01*
X156521128Y-86728407D01*
X156678698Y-86872052D01*
X156859981Y-86984298D01*
X157058802Y-87061321D01*
X157255613Y-87098111D01*
X157317893Y-87129779D01*
X157353166Y-87190092D01*
X157350232Y-87259900D01*
X157310023Y-87317040D01*
X157255613Y-87341888D01*
X157058802Y-87378679D01*
X157058799Y-87378679D01*
X157058799Y-87378680D01*
X156859982Y-87455701D01*
X156859980Y-87455702D01*
X156678699Y-87567947D01*
X156521127Y-87711593D01*
X156392632Y-87881746D01*
X156297596Y-88072605D01*
X156297596Y-88072607D01*
X156239244Y-88277689D01*
X156237695Y-88294412D01*
X156219571Y-88490000D01*
X156239244Y-88702310D01*
X156255868Y-88760738D01*
X156297596Y-88907392D01*
X156297596Y-88907394D01*
X156392632Y-89098253D01*
X156434271Y-89153391D01*
X156521128Y-89268407D01*
X156678698Y-89412052D01*
X156859981Y-89524298D01*
X156888961Y-89535525D01*
X156944362Y-89578095D01*
X156967954Y-89643861D01*
X156952244Y-89711942D01*
X156902222Y-89760722D01*
X156896573Y-89763533D01*
X156697422Y-89856399D01*
X156697420Y-89856400D01*
X156503926Y-89991886D01*
X156503920Y-89991891D01*
X156336891Y-90158920D01*
X156336886Y-90158926D01*
X156201400Y-90352420D01*
X156201399Y-90352422D01*
X156101570Y-90566507D01*
X156101567Y-90566513D01*
X156044364Y-90779999D01*
X148017102Y-90779999D01*
X145396616Y-88159513D01*
X145396614Y-88159511D01*
X145354922Y-88135440D01*
X145293885Y-88100199D01*
X145262228Y-88091718D01*
X145190904Y-88072607D01*
X145179309Y-88069500D01*
X145179308Y-88069500D01*
X145051419Y-88069500D01*
X144984380Y-88049815D01*
X144975933Y-88043876D01*
X144912842Y-87995464D01*
X144766762Y-87934956D01*
X144766760Y-87934955D01*
X144610001Y-87914318D01*
X144609999Y-87914318D01*
X144453239Y-87934955D01*
X144453237Y-87934956D01*
X144307160Y-87995463D01*
X144181718Y-88091718D01*
X144085463Y-88217160D01*
X144024956Y-88363237D01*
X144024955Y-88363239D01*
X144014195Y-88444976D01*
X143985928Y-88508873D01*
X143927604Y-88547344D01*
X143857739Y-88548175D01*
X143803575Y-88516472D01*
X143736416Y-88449313D01*
X143702931Y-88387990D01*
X143701160Y-88377832D01*
X143690779Y-88298973D01*
X143630271Y-88152894D01*
X143534017Y-88027453D01*
X143408576Y-87931199D01*
X143262497Y-87870691D01*
X143262495Y-87870690D01*
X143105736Y-87850053D01*
X143105734Y-87850053D01*
X142948974Y-87870690D01*
X142948972Y-87870691D01*
X142802895Y-87931198D01*
X142677453Y-88027453D01*
X142581198Y-88152895D01*
X142520691Y-88298972D01*
X142520690Y-88298974D01*
X142500053Y-88455733D01*
X128980500Y-88455733D01*
X128980500Y-80702752D01*
X128989939Y-80655299D01*
X129010044Y-80606762D01*
X129030682Y-80450000D01*
X129010044Y-80293238D01*
X128949536Y-80147159D01*
X128949534Y-80147156D01*
X128945472Y-80140119D01*
X128947448Y-80138977D01*
X128926511Y-80084807D01*
X128940555Y-80016363D01*
X128989373Y-79966377D01*
X129050082Y-79950500D01*
X134213506Y-79950500D01*
X134280545Y-79970185D01*
X134301186Y-79986818D01*
X134674857Y-80360490D01*
X134674858Y-80360491D01*
X134674860Y-80360492D01*
X134775541Y-80418620D01*
X134801222Y-80438326D01*
X138766638Y-84403742D01*
X138869365Y-84463051D01*
X138893573Y-84469536D01*
X138893576Y-84469538D01*
X138893577Y-84469538D01*
X138923699Y-84477609D01*
X138983943Y-84493752D01*
X139183581Y-84493752D01*
X139250620Y-84513437D01*
X139259067Y-84519376D01*
X139322157Y-84567787D01*
X139322158Y-84567787D01*
X139322159Y-84567788D01*
X139468238Y-84628296D01*
X139503870Y-84632987D01*
X139624999Y-84648934D01*
X139625000Y-84648934D01*
X139625001Y-84648934D01*
X139677254Y-84642054D01*
X139781762Y-84628296D01*
X139927841Y-84567788D01*
X140053282Y-84471534D01*
X140149536Y-84346093D01*
X140210044Y-84200014D01*
X140230682Y-84043252D01*
X140210044Y-83886490D01*
X140149536Y-83740411D01*
X140053282Y-83614970D01*
X139927841Y-83518716D01*
X139781762Y-83458208D01*
X139781760Y-83458207D01*
X139625001Y-83437570D01*
X139624999Y-83437570D01*
X139468239Y-83458207D01*
X139468237Y-83458208D01*
X139322156Y-83518717D01*
X139314308Y-83524739D01*
X139249138Y-83549930D01*
X139180694Y-83535889D01*
X139151145Y-83514041D01*
X137683472Y-82046368D01*
X136237101Y-80599998D01*
X150794318Y-80599998D01*
X150794318Y-80600001D01*
X150814955Y-80756760D01*
X150814956Y-80756762D01*
X150840061Y-80817370D01*
X150849500Y-80864823D01*
X150849500Y-82235176D01*
X150840061Y-82282628D01*
X150814957Y-82343234D01*
X150814955Y-82343239D01*
X150794318Y-82499998D01*
X150794318Y-82500001D01*
X150814955Y-82656760D01*
X150814956Y-82656762D01*
X150875464Y-82802841D01*
X150971718Y-82928282D01*
X151097159Y-83024536D01*
X151243238Y-83085044D01*
X151321619Y-83095363D01*
X151399999Y-83105682D01*
X151400000Y-83105682D01*
X151400001Y-83105682D01*
X151452254Y-83098802D01*
X151556762Y-83085044D01*
X151702841Y-83024536D01*
X151828282Y-82928282D01*
X151924536Y-82802841D01*
X151985044Y-82656762D01*
X152003689Y-82515136D01*
X152005682Y-82500001D01*
X152005682Y-82499998D01*
X151985044Y-82343239D01*
X151985042Y-82343234D01*
X151959939Y-82282628D01*
X151950500Y-82235176D01*
X151950500Y-80864823D01*
X151959939Y-80817370D01*
X151985044Y-80756762D01*
X152005682Y-80600000D01*
X151985044Y-80443238D01*
X151924536Y-80297159D01*
X151828282Y-80171718D01*
X151702841Y-80075464D01*
X151556762Y-80014956D01*
X151556760Y-80014955D01*
X151400001Y-79994318D01*
X151399999Y-79994318D01*
X151243239Y-80014955D01*
X151243237Y-80014956D01*
X151097160Y-80075463D01*
X150971718Y-80171718D01*
X150875463Y-80297160D01*
X150814956Y-80443237D01*
X150814955Y-80443239D01*
X150794318Y-80599998D01*
X136237101Y-80599998D01*
X135799283Y-80162180D01*
X135765799Y-80100858D01*
X135770783Y-80031166D01*
X135812655Y-79975233D01*
X135878119Y-79950816D01*
X135886965Y-79950500D01*
X136910177Y-79950500D01*
X136957629Y-79959938D01*
X137018238Y-79985044D01*
X137031721Y-79986819D01*
X137174999Y-80005682D01*
X137175000Y-80005682D01*
X137175001Y-80005682D01*
X137227254Y-79998802D01*
X137331762Y-79985044D01*
X137477841Y-79924536D01*
X137603282Y-79828282D01*
X137699536Y-79702841D01*
X137760044Y-79556762D01*
X137780682Y-79400000D01*
X137760044Y-79243238D01*
X137699536Y-79097159D01*
X137603282Y-78971718D01*
X137477841Y-78875464D01*
X137415158Y-78849500D01*
X137331762Y-78814956D01*
X137331760Y-78814955D01*
X137175001Y-78794318D01*
X137174999Y-78794318D01*
X137018239Y-78814955D01*
X137018237Y-78814956D01*
X136957630Y-78840061D01*
X136910177Y-78849500D01*
X135464823Y-78849500D01*
X135417370Y-78840061D01*
X135356762Y-78814956D01*
X135356760Y-78814955D01*
X135200001Y-78794318D01*
X135199999Y-78794318D01*
X135043239Y-78814955D01*
X135043237Y-78814956D01*
X134897160Y-78875463D01*
X134771715Y-78971720D01*
X134728149Y-79028497D01*
X134671721Y-79069700D01*
X134601975Y-79073854D01*
X134597681Y-79072785D01*
X134575750Y-79066908D01*
X134510780Y-79049500D01*
X134510779Y-79049500D01*
X126937965Y-79049500D01*
X126870926Y-79029815D01*
X126850284Y-79013181D01*
X120037103Y-72200000D01*
X141944417Y-72200000D01*
X141964699Y-72405932D01*
X141964700Y-72405934D01*
X142024768Y-72603954D01*
X142122315Y-72786450D01*
X142122317Y-72786452D01*
X142253589Y-72946410D01*
X142350209Y-73025702D01*
X142413550Y-73077685D01*
X142596046Y-73175232D01*
X142794066Y-73235300D01*
X142794065Y-73235300D01*
X142812529Y-73237118D01*
X143000000Y-73255583D01*
X143205934Y-73235300D01*
X143403954Y-73175232D01*
X143586450Y-73077685D01*
X143746410Y-72946410D01*
X143877685Y-72786450D01*
X143975232Y-72603954D01*
X144035300Y-72405934D01*
X144055583Y-72200000D01*
X146824417Y-72200000D01*
X146844699Y-72405932D01*
X146844700Y-72405934D01*
X146904768Y-72603954D01*
X147002315Y-72786450D01*
X147002317Y-72786452D01*
X147133589Y-72946410D01*
X147230209Y-73025702D01*
X147293550Y-73077685D01*
X147476046Y-73175232D01*
X147674066Y-73235300D01*
X147674065Y-73235300D01*
X147692529Y-73237118D01*
X147880000Y-73255583D01*
X148085934Y-73235300D01*
X148283954Y-73175232D01*
X148466450Y-73077685D01*
X148626410Y-72946410D01*
X148757685Y-72786450D01*
X148855232Y-72603954D01*
X148915300Y-72405934D01*
X148935583Y-72200000D01*
X148915300Y-71994066D01*
X148855232Y-71796046D01*
X148757685Y-71613550D01*
X148705702Y-71550209D01*
X148626410Y-71453589D01*
X148466452Y-71322317D01*
X148466453Y-71322317D01*
X148466450Y-71322315D01*
X148283954Y-71224768D01*
X148085934Y-71164700D01*
X148085932Y-71164699D01*
X148085934Y-71164699D01*
X147880000Y-71144417D01*
X147674067Y-71164699D01*
X147476043Y-71224769D01*
X147365898Y-71283643D01*
X147293550Y-71322315D01*
X147293548Y-71322316D01*
X147293547Y-71322317D01*
X147133589Y-71453589D01*
X147002317Y-71613547D01*
X146904769Y-71796043D01*
X146844699Y-71994067D01*
X146824417Y-72200000D01*
X144055583Y-72200000D01*
X144035300Y-71994066D01*
X143975232Y-71796046D01*
X143877685Y-71613550D01*
X143825702Y-71550209D01*
X143746410Y-71453589D01*
X143586452Y-71322317D01*
X143586453Y-71322317D01*
X143586450Y-71322315D01*
X143403954Y-71224768D01*
X143205934Y-71164700D01*
X143205932Y-71164699D01*
X143205934Y-71164699D01*
X143000000Y-71144417D01*
X142794067Y-71164699D01*
X142596043Y-71224769D01*
X142485898Y-71283643D01*
X142413550Y-71322315D01*
X142413548Y-71322316D01*
X142413547Y-71322317D01*
X142253589Y-71453589D01*
X142122317Y-71613547D01*
X142024769Y-71796043D01*
X141964699Y-71994067D01*
X141944417Y-72200000D01*
X120037103Y-72200000D01*
X116386819Y-68549716D01*
X116353334Y-68488393D01*
X116350500Y-68462035D01*
X116350500Y-67975000D01*
X132557359Y-67975000D01*
X132577872Y-68183284D01*
X132638629Y-68383571D01*
X132737291Y-68568153D01*
X132870063Y-68729936D01*
X133015962Y-68849672D01*
X133031850Y-68862711D01*
X133216431Y-68961372D01*
X133416714Y-69022127D01*
X133625000Y-69042641D01*
X133833286Y-69022127D01*
X134033569Y-68961372D01*
X134218150Y-68862711D01*
X134379936Y-68729936D01*
X134512711Y-68568150D01*
X134611372Y-68383569D01*
X134672127Y-68183286D01*
X134672127Y-68183276D01*
X134672335Y-68182239D01*
X134672595Y-68181741D01*
X134673895Y-68177457D01*
X134674707Y-68177703D01*
X134704719Y-68120328D01*
X134765434Y-68085752D01*
X134835203Y-68089490D01*
X134891876Y-68130355D01*
X134915290Y-68189862D01*
X134916486Y-68189652D01*
X134917426Y-68194986D01*
X134974575Y-68408270D01*
X134974580Y-68408284D01*
X135067898Y-68608405D01*
X135067901Y-68608411D01*
X135113258Y-68673187D01*
X135113258Y-68673188D01*
X135784000Y-68002446D01*
X135784000Y-68025160D01*
X135809964Y-68122061D01*
X135860124Y-68208940D01*
X135931060Y-68279876D01*
X136017939Y-68330036D01*
X136114840Y-68356000D01*
X136137553Y-68356000D01*
X135466810Y-69026740D01*
X135531590Y-69072099D01*
X135531592Y-69072100D01*
X135731715Y-69165419D01*
X135731729Y-69165424D01*
X135945013Y-69222573D01*
X135945023Y-69222575D01*
X136164999Y-69241821D01*
X136165001Y-69241821D01*
X136384976Y-69222575D01*
X136384986Y-69222573D01*
X136598270Y-69165424D01*
X136598284Y-69165419D01*
X136798407Y-69072100D01*
X136798417Y-69072094D01*
X136863188Y-69026741D01*
X136192448Y-68356000D01*
X136215160Y-68356000D01*
X136312061Y-68330036D01*
X136398940Y-68279876D01*
X136469876Y-68208940D01*
X136520036Y-68122061D01*
X136546000Y-68025160D01*
X136546000Y-68002447D01*
X137216741Y-68673188D01*
X137262094Y-68608417D01*
X137262100Y-68608407D01*
X137355419Y-68408284D01*
X137355424Y-68408270D01*
X137412573Y-68194986D01*
X137412575Y-68194976D01*
X137431821Y-67975000D01*
X137431821Y-67974999D01*
X137412575Y-67755023D01*
X137412573Y-67755013D01*
X137355424Y-67541729D01*
X137355420Y-67541720D01*
X137262096Y-67341586D01*
X137216741Y-67276811D01*
X137216740Y-67276810D01*
X136546000Y-67947551D01*
X136546000Y-67924840D01*
X136520036Y-67827939D01*
X136469876Y-67741060D01*
X136398940Y-67670124D01*
X136312061Y-67619964D01*
X136215160Y-67594000D01*
X136192447Y-67594000D01*
X136863188Y-66923258D01*
X136798411Y-66877901D01*
X136798405Y-66877898D01*
X136598284Y-66784580D01*
X136598270Y-66784575D01*
X136384986Y-66727426D01*
X136384976Y-66727424D01*
X136165001Y-66708179D01*
X136164999Y-66708179D01*
X135945023Y-66727424D01*
X135945013Y-66727426D01*
X135731729Y-66784575D01*
X135731720Y-66784579D01*
X135531590Y-66877901D01*
X135466811Y-66923258D01*
X136137554Y-67594000D01*
X136114840Y-67594000D01*
X136017939Y-67619964D01*
X135931060Y-67670124D01*
X135860124Y-67741060D01*
X135809964Y-67827939D01*
X135784000Y-67924840D01*
X135784000Y-67947553D01*
X135113258Y-67276811D01*
X135067901Y-67341590D01*
X134974579Y-67541720D01*
X134974575Y-67541729D01*
X134917426Y-67755013D01*
X134916486Y-67760348D01*
X134915233Y-67760127D01*
X134892026Y-67819450D01*
X134835434Y-67860427D01*
X134765672Y-67864303D01*
X134704889Y-67829847D01*
X134674650Y-67772313D01*
X134673895Y-67772543D01*
X134672698Y-67768600D01*
X134672383Y-67767999D01*
X134672336Y-67767763D01*
X134672128Y-67766719D01*
X134672127Y-67766715D01*
X134672127Y-67766714D01*
X134611372Y-67566431D01*
X134512711Y-67381850D01*
X134512708Y-67381846D01*
X134379936Y-67220063D01*
X134218153Y-67087291D01*
X134218151Y-67087290D01*
X134218150Y-67087289D01*
X134033569Y-66988628D01*
X133933427Y-66958250D01*
X133833284Y-66927872D01*
X133625000Y-66907359D01*
X133416715Y-66927872D01*
X133216428Y-66988629D01*
X133031846Y-67087291D01*
X132870063Y-67220063D01*
X132737291Y-67381846D01*
X132638629Y-67566428D01*
X132577872Y-67766715D01*
X132557359Y-67975000D01*
X116350500Y-67975000D01*
X116350500Y-65403284D01*
X116370185Y-65336245D01*
X116376113Y-65327811D01*
X116399111Y-65297841D01*
X116459619Y-65151762D01*
X116480257Y-64995000D01*
X116459619Y-64838238D01*
X116399111Y-64692159D01*
X116302857Y-64566718D01*
X116177416Y-64470464D01*
X116031337Y-64409956D01*
X116031335Y-64409955D01*
X115874576Y-64389318D01*
X115874574Y-64389318D01*
X115717814Y-64409955D01*
X115717812Y-64409956D01*
X115571735Y-64470463D01*
X115446293Y-64566718D01*
X115350038Y-64692160D01*
X115289531Y-64838237D01*
X115289530Y-64838239D01*
X115268893Y-64994998D01*
X108958534Y-64994998D01*
X108957541Y-60805131D01*
X143749500Y-60805131D01*
X143749500Y-62394856D01*
X143749502Y-62394882D01*
X143752413Y-62419987D01*
X143752415Y-62419991D01*
X143797793Y-62522764D01*
X143797794Y-62522765D01*
X143877235Y-62602206D01*
X143980009Y-62647585D01*
X144005135Y-62650500D01*
X145594864Y-62650499D01*
X145594879Y-62650497D01*
X145594882Y-62650497D01*
X145619987Y-62647586D01*
X145619988Y-62647585D01*
X145619991Y-62647585D01*
X145722765Y-62602206D01*
X145802206Y-62522765D01*
X145847585Y-62419991D01*
X145850500Y-62394865D01*
X145850499Y-60805136D01*
X145850498Y-60805131D01*
X152149500Y-60805131D01*
X152149500Y-62394856D01*
X152149502Y-62394882D01*
X152152413Y-62419987D01*
X152152415Y-62419991D01*
X152197793Y-62522764D01*
X152197794Y-62522765D01*
X152277235Y-62602206D01*
X152380009Y-62647585D01*
X152405135Y-62650500D01*
X153994864Y-62650499D01*
X153994879Y-62650497D01*
X153994882Y-62650497D01*
X154019987Y-62647586D01*
X154019988Y-62647585D01*
X154019991Y-62647585D01*
X154122765Y-62602206D01*
X154202206Y-62522765D01*
X154247585Y-62419991D01*
X154250500Y-62394865D01*
X154250499Y-60805136D01*
X154250497Y-60805117D01*
X154247586Y-60780012D01*
X154247585Y-60780010D01*
X154247585Y-60780009D01*
X154202206Y-60677235D01*
X154122765Y-60597794D01*
X154122763Y-60597793D01*
X154019992Y-60552415D01*
X153994865Y-60549500D01*
X152405143Y-60549500D01*
X152405117Y-60549502D01*
X152380012Y-60552413D01*
X152380008Y-60552415D01*
X152277235Y-60597793D01*
X152197794Y-60677234D01*
X152152415Y-60780006D01*
X152152415Y-60780008D01*
X152149500Y-60805131D01*
X145850498Y-60805131D01*
X145850497Y-60805117D01*
X145847586Y-60780012D01*
X145847585Y-60780010D01*
X145847585Y-60780009D01*
X145802206Y-60677235D01*
X145722765Y-60597794D01*
X145722763Y-60597793D01*
X145619992Y-60552415D01*
X145594865Y-60549500D01*
X144005143Y-60549500D01*
X144005117Y-60549502D01*
X143980012Y-60552413D01*
X143980008Y-60552415D01*
X143877235Y-60597793D01*
X143797794Y-60677234D01*
X143752415Y-60780006D01*
X143752415Y-60780008D01*
X143749500Y-60805131D01*
X108957541Y-60805131D01*
X108956261Y-55405131D01*
X143749500Y-55405131D01*
X143749500Y-56994856D01*
X143749502Y-56994882D01*
X143752413Y-57019987D01*
X143752415Y-57019991D01*
X143797793Y-57122764D01*
X143797794Y-57122765D01*
X143877235Y-57202206D01*
X143980009Y-57247585D01*
X144005135Y-57250500D01*
X145594864Y-57250499D01*
X145594879Y-57250497D01*
X145594882Y-57250497D01*
X145619987Y-57247586D01*
X145619988Y-57247585D01*
X145619991Y-57247585D01*
X145722765Y-57202206D01*
X145802206Y-57122765D01*
X145847585Y-57019991D01*
X145850500Y-56994865D01*
X145850499Y-55405136D01*
X145850498Y-55405131D01*
X152149500Y-55405131D01*
X152149500Y-56994856D01*
X152149502Y-56994882D01*
X152152413Y-57019987D01*
X152152415Y-57019991D01*
X152197793Y-57122764D01*
X152197794Y-57122765D01*
X152277235Y-57202206D01*
X152380009Y-57247585D01*
X152405135Y-57250500D01*
X153994864Y-57250499D01*
X153994879Y-57250497D01*
X153994882Y-57250497D01*
X154019987Y-57247586D01*
X154019988Y-57247585D01*
X154019991Y-57247585D01*
X154122765Y-57202206D01*
X154202206Y-57122765D01*
X154247585Y-57019991D01*
X154250500Y-56994865D01*
X154250499Y-55405136D01*
X154250497Y-55405117D01*
X154247586Y-55380012D01*
X154247585Y-55380010D01*
X154247585Y-55380009D01*
X154202206Y-55277235D01*
X154122765Y-55197794D01*
X154122763Y-55197793D01*
X154019992Y-55152415D01*
X153994865Y-55149500D01*
X152405143Y-55149500D01*
X152405117Y-55149502D01*
X152380012Y-55152413D01*
X152380008Y-55152415D01*
X152277235Y-55197793D01*
X152197794Y-55277234D01*
X152152415Y-55380006D01*
X152152415Y-55380008D01*
X152149500Y-55405131D01*
X145850498Y-55405131D01*
X145850497Y-55405117D01*
X145847586Y-55380012D01*
X145847585Y-55380010D01*
X145847585Y-55380009D01*
X145802206Y-55277235D01*
X145722765Y-55197794D01*
X145722763Y-55197793D01*
X145619992Y-55152415D01*
X145594865Y-55149500D01*
X144005143Y-55149500D01*
X144005117Y-55149502D01*
X143980012Y-55152413D01*
X143980008Y-55152415D01*
X143877235Y-55197793D01*
X143797794Y-55277234D01*
X143752415Y-55380006D01*
X143752415Y-55380008D01*
X143749500Y-55405131D01*
X108956261Y-55405131D01*
X108952870Y-41099998D01*
X129094532Y-41099998D01*
X129094532Y-41100001D01*
X129114364Y-41326686D01*
X129114366Y-41326697D01*
X129173258Y-41546488D01*
X129173261Y-41546497D01*
X129269431Y-41752732D01*
X129269432Y-41752734D01*
X129399954Y-41939141D01*
X129560858Y-42100045D01*
X129560861Y-42100047D01*
X129747266Y-42230568D01*
X129953504Y-42326739D01*
X130173308Y-42385635D01*
X130335230Y-42399801D01*
X130399998Y-42405468D01*
X130400000Y-42405468D01*
X130400002Y-42405468D01*
X130456673Y-42400509D01*
X130626692Y-42385635D01*
X130846496Y-42326739D01*
X131052734Y-42230568D01*
X131239139Y-42100047D01*
X131400047Y-41939139D01*
X131530568Y-41752734D01*
X131626739Y-41546496D01*
X131685635Y-41326692D01*
X131705468Y-41100000D01*
X131705467Y-41099994D01*
X138894859Y-41099994D01*
X138894859Y-41100005D01*
X138915385Y-41347729D01*
X138915387Y-41347738D01*
X138976412Y-41588717D01*
X139076267Y-41816367D01*
X139176562Y-41969881D01*
X139917037Y-41229408D01*
X139934075Y-41292993D01*
X139999901Y-41407007D01*
X140092993Y-41500099D01*
X140207007Y-41565925D01*
X140270591Y-41582962D01*
X139529943Y-42323609D01*
X139576768Y-42360055D01*
X139576771Y-42360057D01*
X139795385Y-42478364D01*
X139795396Y-42478369D01*
X140030506Y-42559083D01*
X140275707Y-42600000D01*
X140524293Y-42600000D01*
X140769493Y-42559083D01*
X141004603Y-42478369D01*
X141004614Y-42478364D01*
X141223230Y-42360056D01*
X141223236Y-42360051D01*
X141270055Y-42323610D01*
X141270056Y-42323609D01*
X140529408Y-41582962D01*
X140592993Y-41565925D01*
X140707007Y-41500099D01*
X140800099Y-41407007D01*
X140865925Y-41292993D01*
X140882962Y-41229409D01*
X141623435Y-41969882D01*
X141723733Y-41816364D01*
X141823587Y-41588717D01*
X141884612Y-41347738D01*
X141884614Y-41347729D01*
X141905141Y-41100005D01*
X141905141Y-41099994D01*
X141884614Y-40852270D01*
X141884612Y-40852261D01*
X141823587Y-40611282D01*
X141723732Y-40383632D01*
X141623435Y-40230116D01*
X140882962Y-40970590D01*
X140865925Y-40907007D01*
X140800099Y-40792993D01*
X140707007Y-40699901D01*
X140592993Y-40634075D01*
X140529409Y-40617037D01*
X141270055Y-39876389D01*
X141270055Y-39876388D01*
X141223236Y-39839947D01*
X141223231Y-39839944D01*
X141004614Y-39721635D01*
X141004603Y-39721630D01*
X140769493Y-39640916D01*
X140524293Y-39600000D01*
X140275707Y-39600000D01*
X140030506Y-39640916D01*
X139795396Y-39721630D01*
X139795385Y-39721635D01*
X139576770Y-39839943D01*
X139529943Y-39876389D01*
X140270591Y-40617037D01*
X140207007Y-40634075D01*
X140092993Y-40699901D01*
X139999901Y-40792993D01*
X139934075Y-40907007D01*
X139917037Y-40970591D01*
X139176563Y-40230117D01*
X139076267Y-40383633D01*
X139076265Y-40383637D01*
X138976412Y-40611282D01*
X138915387Y-40852261D01*
X138915385Y-40852270D01*
X138894859Y-41099994D01*
X131705467Y-41099994D01*
X131685635Y-40873313D01*
X131685635Y-40873308D01*
X131626739Y-40653504D01*
X131530568Y-40447266D01*
X131400047Y-40260861D01*
X131400045Y-40260858D01*
X131239141Y-40099954D01*
X131052734Y-39969432D01*
X131052732Y-39969431D01*
X130846497Y-39873261D01*
X130846488Y-39873258D01*
X130626697Y-39814366D01*
X130626693Y-39814365D01*
X130626692Y-39814365D01*
X130626691Y-39814364D01*
X130626686Y-39814364D01*
X130400002Y-39794532D01*
X130399998Y-39794532D01*
X130173313Y-39814364D01*
X130173302Y-39814366D01*
X129953511Y-39873258D01*
X129953502Y-39873261D01*
X129747267Y-39969431D01*
X129747265Y-39969432D01*
X129560858Y-40099954D01*
X129399954Y-40260858D01*
X129269432Y-40447265D01*
X129269431Y-40447267D01*
X129173261Y-40653502D01*
X129173258Y-40653511D01*
X129114366Y-40873302D01*
X129114364Y-40873313D01*
X129094532Y-41099998D01*
X108952870Y-41099998D01*
X108950593Y-31493713D01*
X111149500Y-31493713D01*
X111149500Y-31706286D01*
X111182753Y-31916239D01*
X111248444Y-32118414D01*
X111344951Y-32307820D01*
X111469890Y-32479786D01*
X111620213Y-32630109D01*
X111792179Y-32755048D01*
X111792181Y-32755049D01*
X111792184Y-32755051D01*
X111981588Y-32851557D01*
X112183757Y-32917246D01*
X112393713Y-32950500D01*
X112393714Y-32950500D01*
X112606286Y-32950500D01*
X112606287Y-32950500D01*
X112816243Y-32917246D01*
X113018412Y-32851557D01*
X113207816Y-32755051D01*
X113229789Y-32739086D01*
X113379786Y-32630109D01*
X113379788Y-32630106D01*
X113379792Y-32630104D01*
X113530104Y-32479792D01*
X113530106Y-32479788D01*
X113530109Y-32479786D01*
X113655048Y-32307820D01*
X113655047Y-32307820D01*
X113655051Y-32307816D01*
X113751557Y-32118412D01*
X113817246Y-31916243D01*
X113850500Y-31706287D01*
X113850500Y-31493713D01*
X113834661Y-31393713D01*
X155149500Y-31393713D01*
X155149500Y-31606286D01*
X155182753Y-31816239D01*
X155248444Y-32018414D01*
X155344951Y-32207820D01*
X155469890Y-32379786D01*
X155620213Y-32530109D01*
X155792179Y-32655048D01*
X155792181Y-32655049D01*
X155792184Y-32655051D01*
X155981588Y-32751557D01*
X156183757Y-32817246D01*
X156393713Y-32850500D01*
X156393714Y-32850500D01*
X156606286Y-32850500D01*
X156606287Y-32850500D01*
X156816243Y-32817246D01*
X157018412Y-32751557D01*
X157207816Y-32655051D01*
X157242153Y-32630104D01*
X157379786Y-32530109D01*
X157379788Y-32530106D01*
X157379792Y-32530104D01*
X157530104Y-32379792D01*
X157530106Y-32379788D01*
X157530109Y-32379786D01*
X157655048Y-32207820D01*
X157655047Y-32207820D01*
X157655051Y-32207816D01*
X157751557Y-32018412D01*
X157817246Y-31816243D01*
X157850500Y-31606287D01*
X157850500Y-31393713D01*
X157817246Y-31183757D01*
X157751557Y-30981588D01*
X157655051Y-30792184D01*
X157655049Y-30792181D01*
X157655048Y-30792179D01*
X157530109Y-30620213D01*
X157379786Y-30469890D01*
X157207820Y-30344951D01*
X157018414Y-30248444D01*
X157018413Y-30248443D01*
X157018412Y-30248443D01*
X156816243Y-30182754D01*
X156816241Y-30182753D01*
X156816240Y-30182753D01*
X156654957Y-30157208D01*
X156606287Y-30149500D01*
X156393713Y-30149500D01*
X156345042Y-30157208D01*
X156183760Y-30182753D01*
X155981585Y-30248444D01*
X155792179Y-30344951D01*
X155620213Y-30469890D01*
X155469890Y-30620213D01*
X155344951Y-30792179D01*
X155248444Y-30981585D01*
X155182753Y-31183760D01*
X155149500Y-31393713D01*
X113834661Y-31393713D01*
X113817246Y-31283757D01*
X113751557Y-31081588D01*
X113655051Y-30892184D01*
X113655049Y-30892181D01*
X113655048Y-30892179D01*
X113530109Y-30720213D01*
X113379786Y-30569890D01*
X113207820Y-30444951D01*
X113018414Y-30348444D01*
X113018413Y-30348443D01*
X113018412Y-30348443D01*
X112816243Y-30282754D01*
X112816241Y-30282753D01*
X112816240Y-30282753D01*
X112634926Y-30254036D01*
X112606287Y-30249500D01*
X112393713Y-30249500D01*
X112365074Y-30254036D01*
X112183760Y-30282753D01*
X111981585Y-30348444D01*
X111792179Y-30444951D01*
X111620213Y-30569890D01*
X111469890Y-30720213D01*
X111344951Y-30892179D01*
X111248444Y-31081585D01*
X111182753Y-31283760D01*
X111149500Y-31493713D01*
X108950593Y-31493713D01*
X108950500Y-31103230D01*
X108950669Y-31096771D01*
X108966592Y-30792951D01*
X108967949Y-30780046D01*
X108991008Y-30634453D01*
X109015029Y-30482786D01*
X109017723Y-30470107D01*
X109095627Y-30179368D01*
X109099636Y-30167033D01*
X109207493Y-29886054D01*
X109212763Y-29874215D01*
X109349415Y-29606023D01*
X109355891Y-29594808D01*
X109519819Y-29342380D01*
X109527434Y-29331899D01*
X109716858Y-29097979D01*
X109725525Y-29088354D01*
X109938354Y-28875525D01*
X109947979Y-28866858D01*
X110181899Y-28677434D01*
X110192380Y-28669819D01*
X110444808Y-28505891D01*
X110456023Y-28499415D01*
X110724215Y-28362763D01*
X110736054Y-28357493D01*
X111017040Y-28249633D01*
X111029368Y-28245627D01*
X111320107Y-28167723D01*
X111332786Y-28165029D01*
X111610366Y-28121065D01*
X111630046Y-28117949D01*
X111642951Y-28116592D01*
X111946756Y-28100669D01*
X111953246Y-28100500D01*
X112015892Y-28100500D01*
X156447198Y-28100500D01*
X156453292Y-28100650D01*
G37*
G04 #@! TD.AperFunction*
M02*
