%TF.GenerationSoftware,KiCad,Pcbnew,8.0.8-8.0.8-0~ubuntu24.04.1*%
%TF.CreationDate,2026-02-24T22:45:11+01:00*%
%TF.ProjectId,AnalogPeripherial,416e616c-6f67-4506-9572-697068657269,rev?*%
%TF.SameCoordinates,Original*%
%TF.FileFunction,Drillmap*%
%TF.FilePolarity,Positive*%
%FSLAX45Y45*%
G04 Gerber Fmt 4.5, Leading zero omitted, Abs format (unit mm)*
G04 Created by KiCad (PCBNEW 8.0.8-8.0.8-0~ubuntu24.04.1) date 2026-02-24 22:45:11*
%MOMM*%
%LPD*%
G01*
G04 APERTURE LIST*
%ADD10C,0.050000*%
%ADD11C,0.200000*%
%ADD12C,0.100000*%
%ADD13C,0.220000*%
G04 APERTURE END LIST*
D10*
X16045000Y-3161000D02*
X16043156Y-10885156D01*
X11246843Y-11287156D02*
G75*
G02*
X10846844Y-10887157I-4J399996D01*
G01*
X15645000Y-2760000D02*
X11195000Y-2760000D01*
X11246843Y-11287156D02*
X15640157Y-11285157D01*
X15645000Y-2759999D02*
G75*
G02*
X16045000Y-3161000I0J-400001D01*
G01*
X16043168Y-10885156D02*
G75*
G02*
X15640157Y-11285157I-400009J-5D01*
G01*
X10845000Y-3110000D02*
G75*
G02*
X11195000Y-2760000I350000J0D01*
G01*
X10846844Y-10887157D02*
X10845000Y-3110000D01*
D11*
D12*
X14148000Y-10741000D02*
X14248000Y-10841000D01*
X14248000Y-10741000D02*
X14148000Y-10841000D01*
X14588000Y-10741000D02*
X14688000Y-10841000D01*
X14688000Y-10741000D02*
X14588000Y-10841000D01*
D13*
X11360000Y-3160000D02*
G75*
G02*
X11140000Y-3160000I-110000J0D01*
G01*
X11140000Y-3160000D02*
G75*
G02*
X11360000Y-3160000I110000J0D01*
G01*
X11360000Y-10870000D02*
G75*
G02*
X11140000Y-10870000I-110000J0D01*
G01*
X11140000Y-10870000D02*
G75*
G02*
X11360000Y-10870000I110000J0D01*
G01*
X15750000Y-10890000D02*
G75*
G02*
X15530000Y-10890000I-110000J0D01*
G01*
X15530000Y-10890000D02*
G75*
G02*
X15750000Y-10890000I110000J0D01*
G01*
X15760000Y-3150000D02*
G75*
G02*
X15540000Y-3150000I-110000J0D01*
G01*
X15540000Y-3150000D02*
G75*
G02*
X15760000Y-3150000I110000J0D01*
G01*
D11*
X11103277Y-11601140D02*
X11103277Y-11401140D01*
X11103277Y-11401140D02*
X11150896Y-11401140D01*
X11150896Y-11401140D02*
X11179467Y-11410664D01*
X11179467Y-11410664D02*
X11198515Y-11429712D01*
X11198515Y-11429712D02*
X11208039Y-11448759D01*
X11208039Y-11448759D02*
X11217562Y-11486854D01*
X11217562Y-11486854D02*
X11217562Y-11515426D01*
X11217562Y-11515426D02*
X11208039Y-11553521D01*
X11208039Y-11553521D02*
X11198515Y-11572569D01*
X11198515Y-11572569D02*
X11179467Y-11591616D01*
X11179467Y-11591616D02*
X11150896Y-11601140D01*
X11150896Y-11601140D02*
X11103277Y-11601140D01*
X11303277Y-11601140D02*
X11303277Y-11467807D01*
X11303277Y-11505902D02*
X11312801Y-11486854D01*
X11312801Y-11486854D02*
X11322324Y-11477331D01*
X11322324Y-11477331D02*
X11341372Y-11467807D01*
X11341372Y-11467807D02*
X11360420Y-11467807D01*
X11427086Y-11601140D02*
X11427086Y-11467807D01*
X11427086Y-11401140D02*
X11417562Y-11410664D01*
X11417562Y-11410664D02*
X11427086Y-11420188D01*
X11427086Y-11420188D02*
X11436610Y-11410664D01*
X11436610Y-11410664D02*
X11427086Y-11401140D01*
X11427086Y-11401140D02*
X11427086Y-11420188D01*
X11550896Y-11601140D02*
X11531848Y-11591616D01*
X11531848Y-11591616D02*
X11522324Y-11572569D01*
X11522324Y-11572569D02*
X11522324Y-11401140D01*
X11655658Y-11601140D02*
X11636610Y-11591616D01*
X11636610Y-11591616D02*
X11627086Y-11572569D01*
X11627086Y-11572569D02*
X11627086Y-11401140D01*
X11884229Y-11601140D02*
X11884229Y-11401140D01*
X11884229Y-11401140D02*
X11950896Y-11543997D01*
X11950896Y-11543997D02*
X12017562Y-11401140D01*
X12017562Y-11401140D02*
X12017562Y-11601140D01*
X12198515Y-11601140D02*
X12198515Y-11496378D01*
X12198515Y-11496378D02*
X12188991Y-11477331D01*
X12188991Y-11477331D02*
X12169943Y-11467807D01*
X12169943Y-11467807D02*
X12131848Y-11467807D01*
X12131848Y-11467807D02*
X12112801Y-11477331D01*
X12198515Y-11591616D02*
X12179467Y-11601140D01*
X12179467Y-11601140D02*
X12131848Y-11601140D01*
X12131848Y-11601140D02*
X12112801Y-11591616D01*
X12112801Y-11591616D02*
X12103277Y-11572569D01*
X12103277Y-11572569D02*
X12103277Y-11553521D01*
X12103277Y-11553521D02*
X12112801Y-11534474D01*
X12112801Y-11534474D02*
X12131848Y-11524950D01*
X12131848Y-11524950D02*
X12179467Y-11524950D01*
X12179467Y-11524950D02*
X12198515Y-11515426D01*
X12293753Y-11467807D02*
X12293753Y-11667807D01*
X12293753Y-11477331D02*
X12312801Y-11467807D01*
X12312801Y-11467807D02*
X12350896Y-11467807D01*
X12350896Y-11467807D02*
X12369943Y-11477331D01*
X12369943Y-11477331D02*
X12379467Y-11486854D01*
X12379467Y-11486854D02*
X12388991Y-11505902D01*
X12388991Y-11505902D02*
X12388991Y-11563045D01*
X12388991Y-11563045D02*
X12379467Y-11582093D01*
X12379467Y-11582093D02*
X12369943Y-11591616D01*
X12369943Y-11591616D02*
X12350896Y-11601140D01*
X12350896Y-11601140D02*
X12312801Y-11601140D01*
X12312801Y-11601140D02*
X12293753Y-11591616D01*
X12474705Y-11582093D02*
X12484229Y-11591616D01*
X12484229Y-11591616D02*
X12474705Y-11601140D01*
X12474705Y-11601140D02*
X12465182Y-11591616D01*
X12465182Y-11591616D02*
X12474705Y-11582093D01*
X12474705Y-11582093D02*
X12474705Y-11601140D01*
X12474705Y-11477331D02*
X12484229Y-11486854D01*
X12484229Y-11486854D02*
X12474705Y-11496378D01*
X12474705Y-11496378D02*
X12465182Y-11486854D01*
X12465182Y-11486854D02*
X12474705Y-11477331D01*
X12474705Y-11477331D02*
X12474705Y-11496378D01*
D12*
X10742500Y-11879656D02*
X10842500Y-11979656D01*
X10842500Y-11879656D02*
X10742500Y-11979656D01*
D11*
X11208039Y-12021140D02*
X11093753Y-12021140D01*
X11150896Y-12021140D02*
X11150896Y-11821140D01*
X11150896Y-11821140D02*
X11131848Y-11849712D01*
X11131848Y-11849712D02*
X11112801Y-11868759D01*
X11112801Y-11868759D02*
X11093753Y-11878283D01*
X11293753Y-12002093D02*
X11303277Y-12011616D01*
X11303277Y-12011616D02*
X11293753Y-12021140D01*
X11293753Y-12021140D02*
X11284229Y-12011616D01*
X11284229Y-12011616D02*
X11293753Y-12002093D01*
X11293753Y-12002093D02*
X11293753Y-12021140D01*
X11427086Y-11821140D02*
X11446134Y-11821140D01*
X11446134Y-11821140D02*
X11465182Y-11830664D01*
X11465182Y-11830664D02*
X11474705Y-11840188D01*
X11474705Y-11840188D02*
X11484229Y-11859235D01*
X11484229Y-11859235D02*
X11493753Y-11897331D01*
X11493753Y-11897331D02*
X11493753Y-11944950D01*
X11493753Y-11944950D02*
X11484229Y-11983045D01*
X11484229Y-11983045D02*
X11474705Y-12002093D01*
X11474705Y-12002093D02*
X11465182Y-12011616D01*
X11465182Y-12011616D02*
X11446134Y-12021140D01*
X11446134Y-12021140D02*
X11427086Y-12021140D01*
X11427086Y-12021140D02*
X11408039Y-12011616D01*
X11408039Y-12011616D02*
X11398515Y-12002093D01*
X11398515Y-12002093D02*
X11388991Y-11983045D01*
X11388991Y-11983045D02*
X11379467Y-11944950D01*
X11379467Y-11944950D02*
X11379467Y-11897331D01*
X11379467Y-11897331D02*
X11388991Y-11859235D01*
X11388991Y-11859235D02*
X11398515Y-11840188D01*
X11398515Y-11840188D02*
X11408039Y-11830664D01*
X11408039Y-11830664D02*
X11427086Y-11821140D01*
X11617562Y-11821140D02*
X11636610Y-11821140D01*
X11636610Y-11821140D02*
X11655658Y-11830664D01*
X11655658Y-11830664D02*
X11665182Y-11840188D01*
X11665182Y-11840188D02*
X11674705Y-11859235D01*
X11674705Y-11859235D02*
X11684229Y-11897331D01*
X11684229Y-11897331D02*
X11684229Y-11944950D01*
X11684229Y-11944950D02*
X11674705Y-11983045D01*
X11674705Y-11983045D02*
X11665182Y-12002093D01*
X11665182Y-12002093D02*
X11655658Y-12011616D01*
X11655658Y-12011616D02*
X11636610Y-12021140D01*
X11636610Y-12021140D02*
X11617562Y-12021140D01*
X11617562Y-12021140D02*
X11598515Y-12011616D01*
X11598515Y-12011616D02*
X11588991Y-12002093D01*
X11588991Y-12002093D02*
X11579467Y-11983045D01*
X11579467Y-11983045D02*
X11569943Y-11944950D01*
X11569943Y-11944950D02*
X11569943Y-11897331D01*
X11569943Y-11897331D02*
X11579467Y-11859235D01*
X11579467Y-11859235D02*
X11588991Y-11840188D01*
X11588991Y-11840188D02*
X11598515Y-11830664D01*
X11598515Y-11830664D02*
X11617562Y-11821140D01*
X11808039Y-11821140D02*
X11827086Y-11821140D01*
X11827086Y-11821140D02*
X11846134Y-11830664D01*
X11846134Y-11830664D02*
X11855658Y-11840188D01*
X11855658Y-11840188D02*
X11865182Y-11859235D01*
X11865182Y-11859235D02*
X11874705Y-11897331D01*
X11874705Y-11897331D02*
X11874705Y-11944950D01*
X11874705Y-11944950D02*
X11865182Y-11983045D01*
X11865182Y-11983045D02*
X11855658Y-12002093D01*
X11855658Y-12002093D02*
X11846134Y-12011616D01*
X11846134Y-12011616D02*
X11827086Y-12021140D01*
X11827086Y-12021140D02*
X11808039Y-12021140D01*
X11808039Y-12021140D02*
X11788991Y-12011616D01*
X11788991Y-12011616D02*
X11779467Y-12002093D01*
X11779467Y-12002093D02*
X11769943Y-11983045D01*
X11769943Y-11983045D02*
X11760420Y-11944950D01*
X11760420Y-11944950D02*
X11760420Y-11897331D01*
X11760420Y-11897331D02*
X11769943Y-11859235D01*
X11769943Y-11859235D02*
X11779467Y-11840188D01*
X11779467Y-11840188D02*
X11788991Y-11830664D01*
X11788991Y-11830664D02*
X11808039Y-11821140D01*
X11960420Y-12021140D02*
X11960420Y-11887807D01*
X11960420Y-11906854D02*
X11969943Y-11897331D01*
X11969943Y-11897331D02*
X11988991Y-11887807D01*
X11988991Y-11887807D02*
X12017563Y-11887807D01*
X12017563Y-11887807D02*
X12036610Y-11897331D01*
X12036610Y-11897331D02*
X12046134Y-11916378D01*
X12046134Y-11916378D02*
X12046134Y-12021140D01*
X12046134Y-11916378D02*
X12055658Y-11897331D01*
X12055658Y-11897331D02*
X12074705Y-11887807D01*
X12074705Y-11887807D02*
X12103277Y-11887807D01*
X12103277Y-11887807D02*
X12122324Y-11897331D01*
X12122324Y-11897331D02*
X12131848Y-11916378D01*
X12131848Y-11916378D02*
X12131848Y-12021140D01*
X12227086Y-12021140D02*
X12227086Y-11887807D01*
X12227086Y-11906854D02*
X12236610Y-11897331D01*
X12236610Y-11897331D02*
X12255658Y-11887807D01*
X12255658Y-11887807D02*
X12284229Y-11887807D01*
X12284229Y-11887807D02*
X12303277Y-11897331D01*
X12303277Y-11897331D02*
X12312801Y-11916378D01*
X12312801Y-11916378D02*
X12312801Y-12021140D01*
X12312801Y-11916378D02*
X12322324Y-11897331D01*
X12322324Y-11897331D02*
X12341372Y-11887807D01*
X12341372Y-11887807D02*
X12369943Y-11887807D01*
X12369943Y-11887807D02*
X12388991Y-11897331D01*
X12388991Y-11897331D02*
X12398515Y-11916378D01*
X12398515Y-11916378D02*
X12398515Y-12021140D01*
X12788991Y-11811616D02*
X12617563Y-12068759D01*
X13046134Y-11821140D02*
X13065182Y-11821140D01*
X13065182Y-11821140D02*
X13084229Y-11830664D01*
X13084229Y-11830664D02*
X13093753Y-11840188D01*
X13093753Y-11840188D02*
X13103277Y-11859235D01*
X13103277Y-11859235D02*
X13112801Y-11897331D01*
X13112801Y-11897331D02*
X13112801Y-11944950D01*
X13112801Y-11944950D02*
X13103277Y-11983045D01*
X13103277Y-11983045D02*
X13093753Y-12002093D01*
X13093753Y-12002093D02*
X13084229Y-12011616D01*
X13084229Y-12011616D02*
X13065182Y-12021140D01*
X13065182Y-12021140D02*
X13046134Y-12021140D01*
X13046134Y-12021140D02*
X13027086Y-12011616D01*
X13027086Y-12011616D02*
X13017563Y-12002093D01*
X13017563Y-12002093D02*
X13008039Y-11983045D01*
X13008039Y-11983045D02*
X12998515Y-11944950D01*
X12998515Y-11944950D02*
X12998515Y-11897331D01*
X12998515Y-11897331D02*
X13008039Y-11859235D01*
X13008039Y-11859235D02*
X13017563Y-11840188D01*
X13017563Y-11840188D02*
X13027086Y-11830664D01*
X13027086Y-11830664D02*
X13046134Y-11821140D01*
X13198515Y-12002093D02*
X13208039Y-12011616D01*
X13208039Y-12011616D02*
X13198515Y-12021140D01*
X13198515Y-12021140D02*
X13188991Y-12011616D01*
X13188991Y-12011616D02*
X13198515Y-12002093D01*
X13198515Y-12002093D02*
X13198515Y-12021140D01*
X13331848Y-11821140D02*
X13350896Y-11821140D01*
X13350896Y-11821140D02*
X13369944Y-11830664D01*
X13369944Y-11830664D02*
X13379467Y-11840188D01*
X13379467Y-11840188D02*
X13388991Y-11859235D01*
X13388991Y-11859235D02*
X13398515Y-11897331D01*
X13398515Y-11897331D02*
X13398515Y-11944950D01*
X13398515Y-11944950D02*
X13388991Y-11983045D01*
X13388991Y-11983045D02*
X13379467Y-12002093D01*
X13379467Y-12002093D02*
X13369944Y-12011616D01*
X13369944Y-12011616D02*
X13350896Y-12021140D01*
X13350896Y-12021140D02*
X13331848Y-12021140D01*
X13331848Y-12021140D02*
X13312801Y-12011616D01*
X13312801Y-12011616D02*
X13303277Y-12002093D01*
X13303277Y-12002093D02*
X13293753Y-11983045D01*
X13293753Y-11983045D02*
X13284229Y-11944950D01*
X13284229Y-11944950D02*
X13284229Y-11897331D01*
X13284229Y-11897331D02*
X13293753Y-11859235D01*
X13293753Y-11859235D02*
X13303277Y-11840188D01*
X13303277Y-11840188D02*
X13312801Y-11830664D01*
X13312801Y-11830664D02*
X13331848Y-11821140D01*
X13465182Y-11821140D02*
X13588991Y-11821140D01*
X13588991Y-11821140D02*
X13522325Y-11897331D01*
X13522325Y-11897331D02*
X13550896Y-11897331D01*
X13550896Y-11897331D02*
X13569944Y-11906854D01*
X13569944Y-11906854D02*
X13579467Y-11916378D01*
X13579467Y-11916378D02*
X13588991Y-11935426D01*
X13588991Y-11935426D02*
X13588991Y-11983045D01*
X13588991Y-11983045D02*
X13579467Y-12002093D01*
X13579467Y-12002093D02*
X13569944Y-12011616D01*
X13569944Y-12011616D02*
X13550896Y-12021140D01*
X13550896Y-12021140D02*
X13493753Y-12021140D01*
X13493753Y-12021140D02*
X13474706Y-12011616D01*
X13474706Y-12011616D02*
X13465182Y-12002093D01*
X13684229Y-12021140D02*
X13722325Y-12021140D01*
X13722325Y-12021140D02*
X13741372Y-12011616D01*
X13741372Y-12011616D02*
X13750896Y-12002093D01*
X13750896Y-12002093D02*
X13769944Y-11973521D01*
X13769944Y-11973521D02*
X13779467Y-11935426D01*
X13779467Y-11935426D02*
X13779467Y-11859235D01*
X13779467Y-11859235D02*
X13769944Y-11840188D01*
X13769944Y-11840188D02*
X13760420Y-11830664D01*
X13760420Y-11830664D02*
X13741372Y-11821140D01*
X13741372Y-11821140D02*
X13703277Y-11821140D01*
X13703277Y-11821140D02*
X13684229Y-11830664D01*
X13684229Y-11830664D02*
X13674706Y-11840188D01*
X13674706Y-11840188D02*
X13665182Y-11859235D01*
X13665182Y-11859235D02*
X13665182Y-11906854D01*
X13665182Y-11906854D02*
X13674706Y-11925902D01*
X13674706Y-11925902D02*
X13684229Y-11935426D01*
X13684229Y-11935426D02*
X13703277Y-11944950D01*
X13703277Y-11944950D02*
X13741372Y-11944950D01*
X13741372Y-11944950D02*
X13760420Y-11935426D01*
X13760420Y-11935426D02*
X13769944Y-11925902D01*
X13769944Y-11925902D02*
X13779467Y-11906854D01*
X13950896Y-11887807D02*
X13950896Y-12021140D01*
X13903277Y-11811616D02*
X13855658Y-11954474D01*
X13855658Y-11954474D02*
X13979467Y-11954474D01*
X14046134Y-11821140D02*
X14046134Y-11859235D01*
X14122325Y-11821140D02*
X14122325Y-11859235D01*
X14417563Y-12097331D02*
X14408039Y-12087807D01*
X14408039Y-12087807D02*
X14388991Y-12059235D01*
X14388991Y-12059235D02*
X14379468Y-12040188D01*
X14379468Y-12040188D02*
X14369944Y-12011616D01*
X14369944Y-12011616D02*
X14360420Y-11963997D01*
X14360420Y-11963997D02*
X14360420Y-11925902D01*
X14360420Y-11925902D02*
X14369944Y-11878283D01*
X14369944Y-11878283D02*
X14379468Y-11849712D01*
X14379468Y-11849712D02*
X14388991Y-11830664D01*
X14388991Y-11830664D02*
X14408039Y-11802093D01*
X14408039Y-11802093D02*
X14417563Y-11792569D01*
X14484229Y-11840188D02*
X14493753Y-11830664D01*
X14493753Y-11830664D02*
X14512801Y-11821140D01*
X14512801Y-11821140D02*
X14560420Y-11821140D01*
X14560420Y-11821140D02*
X14579468Y-11830664D01*
X14579468Y-11830664D02*
X14588991Y-11840188D01*
X14588991Y-11840188D02*
X14598515Y-11859235D01*
X14598515Y-11859235D02*
X14598515Y-11878283D01*
X14598515Y-11878283D02*
X14588991Y-11906854D01*
X14588991Y-11906854D02*
X14474706Y-12021140D01*
X14474706Y-12021140D02*
X14598515Y-12021140D01*
X14836610Y-12021140D02*
X14836610Y-11821140D01*
X14922325Y-12021140D02*
X14922325Y-11916378D01*
X14922325Y-11916378D02*
X14912801Y-11897331D01*
X14912801Y-11897331D02*
X14893753Y-11887807D01*
X14893753Y-11887807D02*
X14865182Y-11887807D01*
X14865182Y-11887807D02*
X14846134Y-11897331D01*
X14846134Y-11897331D02*
X14836610Y-11906854D01*
X15046134Y-12021140D02*
X15027087Y-12011616D01*
X15027087Y-12011616D02*
X15017563Y-12002093D01*
X15017563Y-12002093D02*
X15008039Y-11983045D01*
X15008039Y-11983045D02*
X15008039Y-11925902D01*
X15008039Y-11925902D02*
X15017563Y-11906854D01*
X15017563Y-11906854D02*
X15027087Y-11897331D01*
X15027087Y-11897331D02*
X15046134Y-11887807D01*
X15046134Y-11887807D02*
X15074706Y-11887807D01*
X15074706Y-11887807D02*
X15093753Y-11897331D01*
X15093753Y-11897331D02*
X15103277Y-11906854D01*
X15103277Y-11906854D02*
X15112801Y-11925902D01*
X15112801Y-11925902D02*
X15112801Y-11983045D01*
X15112801Y-11983045D02*
X15103277Y-12002093D01*
X15103277Y-12002093D02*
X15093753Y-12011616D01*
X15093753Y-12011616D02*
X15074706Y-12021140D01*
X15074706Y-12021140D02*
X15046134Y-12021140D01*
X15227087Y-12021140D02*
X15208039Y-12011616D01*
X15208039Y-12011616D02*
X15198515Y-11992569D01*
X15198515Y-11992569D02*
X15198515Y-11821140D01*
X15379468Y-12011616D02*
X15360420Y-12021140D01*
X15360420Y-12021140D02*
X15322325Y-12021140D01*
X15322325Y-12021140D02*
X15303277Y-12011616D01*
X15303277Y-12011616D02*
X15293753Y-11992569D01*
X15293753Y-11992569D02*
X15293753Y-11916378D01*
X15293753Y-11916378D02*
X15303277Y-11897331D01*
X15303277Y-11897331D02*
X15322325Y-11887807D01*
X15322325Y-11887807D02*
X15360420Y-11887807D01*
X15360420Y-11887807D02*
X15379468Y-11897331D01*
X15379468Y-11897331D02*
X15388991Y-11916378D01*
X15388991Y-11916378D02*
X15388991Y-11935426D01*
X15388991Y-11935426D02*
X15293753Y-11954474D01*
X15465182Y-12011616D02*
X15484230Y-12021140D01*
X15484230Y-12021140D02*
X15522325Y-12021140D01*
X15522325Y-12021140D02*
X15541372Y-12011616D01*
X15541372Y-12011616D02*
X15550896Y-11992569D01*
X15550896Y-11992569D02*
X15550896Y-11983045D01*
X15550896Y-11983045D02*
X15541372Y-11963997D01*
X15541372Y-11963997D02*
X15522325Y-11954474D01*
X15522325Y-11954474D02*
X15493753Y-11954474D01*
X15493753Y-11954474D02*
X15474706Y-11944950D01*
X15474706Y-11944950D02*
X15465182Y-11925902D01*
X15465182Y-11925902D02*
X15465182Y-11916378D01*
X15465182Y-11916378D02*
X15474706Y-11897331D01*
X15474706Y-11897331D02*
X15493753Y-11887807D01*
X15493753Y-11887807D02*
X15522325Y-11887807D01*
X15522325Y-11887807D02*
X15541372Y-11897331D01*
X15617563Y-12097331D02*
X15627087Y-12087807D01*
X15627087Y-12087807D02*
X15646134Y-12059235D01*
X15646134Y-12059235D02*
X15655658Y-12040188D01*
X15655658Y-12040188D02*
X15665182Y-12011616D01*
X15665182Y-12011616D02*
X15674706Y-11963997D01*
X15674706Y-11963997D02*
X15674706Y-11925902D01*
X15674706Y-11925902D02*
X15665182Y-11878283D01*
X15665182Y-11878283D02*
X15655658Y-11849712D01*
X15655658Y-11849712D02*
X15646134Y-11830664D01*
X15646134Y-11830664D02*
X15627087Y-11802093D01*
X15627087Y-11802093D02*
X15617563Y-11792569D01*
X15979468Y-12097331D02*
X15969944Y-12087807D01*
X15969944Y-12087807D02*
X15950896Y-12059235D01*
X15950896Y-12059235D02*
X15941372Y-12040188D01*
X15941372Y-12040188D02*
X15931849Y-12011616D01*
X15931849Y-12011616D02*
X15922325Y-11963997D01*
X15922325Y-11963997D02*
X15922325Y-11925902D01*
X15922325Y-11925902D02*
X15931849Y-11878283D01*
X15931849Y-11878283D02*
X15941372Y-11849712D01*
X15941372Y-11849712D02*
X15950896Y-11830664D01*
X15950896Y-11830664D02*
X15969944Y-11802093D01*
X15969944Y-11802093D02*
X15979468Y-11792569D01*
X16055658Y-11887807D02*
X16055658Y-12021140D01*
X16055658Y-11906854D02*
X16065182Y-11897331D01*
X16065182Y-11897331D02*
X16084230Y-11887807D01*
X16084230Y-11887807D02*
X16112801Y-11887807D01*
X16112801Y-11887807D02*
X16131849Y-11897331D01*
X16131849Y-11897331D02*
X16141372Y-11916378D01*
X16141372Y-11916378D02*
X16141372Y-12021140D01*
X16265182Y-12021140D02*
X16246134Y-12011616D01*
X16246134Y-12011616D02*
X16236611Y-12002093D01*
X16236611Y-12002093D02*
X16227087Y-11983045D01*
X16227087Y-11983045D02*
X16227087Y-11925902D01*
X16227087Y-11925902D02*
X16236611Y-11906854D01*
X16236611Y-11906854D02*
X16246134Y-11897331D01*
X16246134Y-11897331D02*
X16265182Y-11887807D01*
X16265182Y-11887807D02*
X16293753Y-11887807D01*
X16293753Y-11887807D02*
X16312801Y-11897331D01*
X16312801Y-11897331D02*
X16322325Y-11906854D01*
X16322325Y-11906854D02*
X16331849Y-11925902D01*
X16331849Y-11925902D02*
X16331849Y-11983045D01*
X16331849Y-11983045D02*
X16322325Y-12002093D01*
X16322325Y-12002093D02*
X16312801Y-12011616D01*
X16312801Y-12011616D02*
X16293753Y-12021140D01*
X16293753Y-12021140D02*
X16265182Y-12021140D01*
X16388992Y-11887807D02*
X16465182Y-11887807D01*
X16417563Y-11821140D02*
X16417563Y-11992569D01*
X16417563Y-11992569D02*
X16427087Y-12011616D01*
X16427087Y-12011616D02*
X16446134Y-12021140D01*
X16446134Y-12021140D02*
X16465182Y-12021140D01*
X16684230Y-11887807D02*
X16684230Y-12087807D01*
X16684230Y-11897331D02*
X16703277Y-11887807D01*
X16703277Y-11887807D02*
X16741373Y-11887807D01*
X16741373Y-11887807D02*
X16760420Y-11897331D01*
X16760420Y-11897331D02*
X16769944Y-11906854D01*
X16769944Y-11906854D02*
X16779468Y-11925902D01*
X16779468Y-11925902D02*
X16779468Y-11983045D01*
X16779468Y-11983045D02*
X16769944Y-12002093D01*
X16769944Y-12002093D02*
X16760420Y-12011616D01*
X16760420Y-12011616D02*
X16741373Y-12021140D01*
X16741373Y-12021140D02*
X16703277Y-12021140D01*
X16703277Y-12021140D02*
X16684230Y-12011616D01*
X16893754Y-12021140D02*
X16874706Y-12011616D01*
X16874706Y-12011616D02*
X16865182Y-11992569D01*
X16865182Y-11992569D02*
X16865182Y-11821140D01*
X17055658Y-12021140D02*
X17055658Y-11916378D01*
X17055658Y-11916378D02*
X17046135Y-11897331D01*
X17046135Y-11897331D02*
X17027087Y-11887807D01*
X17027087Y-11887807D02*
X16988992Y-11887807D01*
X16988992Y-11887807D02*
X16969944Y-11897331D01*
X17055658Y-12011616D02*
X17036611Y-12021140D01*
X17036611Y-12021140D02*
X16988992Y-12021140D01*
X16988992Y-12021140D02*
X16969944Y-12011616D01*
X16969944Y-12011616D02*
X16960420Y-11992569D01*
X16960420Y-11992569D02*
X16960420Y-11973521D01*
X16960420Y-11973521D02*
X16969944Y-11954474D01*
X16969944Y-11954474D02*
X16988992Y-11944950D01*
X16988992Y-11944950D02*
X17036611Y-11944950D01*
X17036611Y-11944950D02*
X17055658Y-11935426D01*
X17122325Y-11887807D02*
X17198515Y-11887807D01*
X17150896Y-11821140D02*
X17150896Y-11992569D01*
X17150896Y-11992569D02*
X17160420Y-12011616D01*
X17160420Y-12011616D02*
X17179468Y-12021140D01*
X17179468Y-12021140D02*
X17198515Y-12021140D01*
X17341373Y-12011616D02*
X17322325Y-12021140D01*
X17322325Y-12021140D02*
X17284230Y-12021140D01*
X17284230Y-12021140D02*
X17265182Y-12011616D01*
X17265182Y-12011616D02*
X17255658Y-11992569D01*
X17255658Y-11992569D02*
X17255658Y-11916378D01*
X17255658Y-11916378D02*
X17265182Y-11897331D01*
X17265182Y-11897331D02*
X17284230Y-11887807D01*
X17284230Y-11887807D02*
X17322325Y-11887807D01*
X17322325Y-11887807D02*
X17341373Y-11897331D01*
X17341373Y-11897331D02*
X17350896Y-11916378D01*
X17350896Y-11916378D02*
X17350896Y-11935426D01*
X17350896Y-11935426D02*
X17255658Y-11954474D01*
X17522325Y-12021140D02*
X17522325Y-11821140D01*
X17522325Y-12011616D02*
X17503277Y-12021140D01*
X17503277Y-12021140D02*
X17465182Y-12021140D01*
X17465182Y-12021140D02*
X17446135Y-12011616D01*
X17446135Y-12011616D02*
X17436611Y-12002093D01*
X17436611Y-12002093D02*
X17427087Y-11983045D01*
X17427087Y-11983045D02*
X17427087Y-11925902D01*
X17427087Y-11925902D02*
X17436611Y-11906854D01*
X17436611Y-11906854D02*
X17446135Y-11897331D01*
X17446135Y-11897331D02*
X17465182Y-11887807D01*
X17465182Y-11887807D02*
X17503277Y-11887807D01*
X17503277Y-11887807D02*
X17522325Y-11897331D01*
X17598516Y-12097331D02*
X17608039Y-12087807D01*
X17608039Y-12087807D02*
X17627087Y-12059235D01*
X17627087Y-12059235D02*
X17636611Y-12040188D01*
X17636611Y-12040188D02*
X17646135Y-12011616D01*
X17646135Y-12011616D02*
X17655658Y-11963997D01*
X17655658Y-11963997D02*
X17655658Y-11925902D01*
X17655658Y-11925902D02*
X17646135Y-11878283D01*
X17646135Y-11878283D02*
X17636611Y-11849712D01*
X17636611Y-11849712D02*
X17627087Y-11830664D01*
X17627087Y-11830664D02*
X17608039Y-11802093D01*
X17608039Y-11802093D02*
X17598516Y-11792569D01*
X10842500Y-12193656D02*
G75*
G02*
X10642500Y-12193656I-100000J0D01*
G01*
X10642500Y-12193656D02*
G75*
G02*
X10842500Y-12193656I100000J0D01*
G01*
X11093753Y-12104188D02*
X11103277Y-12094664D01*
X11103277Y-12094664D02*
X11122324Y-12085140D01*
X11122324Y-12085140D02*
X11169944Y-12085140D01*
X11169944Y-12085140D02*
X11188991Y-12094664D01*
X11188991Y-12094664D02*
X11198515Y-12104188D01*
X11198515Y-12104188D02*
X11208039Y-12123235D01*
X11208039Y-12123235D02*
X11208039Y-12142283D01*
X11208039Y-12142283D02*
X11198515Y-12170854D01*
X11198515Y-12170854D02*
X11084229Y-12285140D01*
X11084229Y-12285140D02*
X11208039Y-12285140D01*
X11293753Y-12266093D02*
X11303277Y-12275616D01*
X11303277Y-12275616D02*
X11293753Y-12285140D01*
X11293753Y-12285140D02*
X11284229Y-12275616D01*
X11284229Y-12275616D02*
X11293753Y-12266093D01*
X11293753Y-12266093D02*
X11293753Y-12285140D01*
X11379467Y-12104188D02*
X11388991Y-12094664D01*
X11388991Y-12094664D02*
X11408039Y-12085140D01*
X11408039Y-12085140D02*
X11455658Y-12085140D01*
X11455658Y-12085140D02*
X11474705Y-12094664D01*
X11474705Y-12094664D02*
X11484229Y-12104188D01*
X11484229Y-12104188D02*
X11493753Y-12123235D01*
X11493753Y-12123235D02*
X11493753Y-12142283D01*
X11493753Y-12142283D02*
X11484229Y-12170854D01*
X11484229Y-12170854D02*
X11369943Y-12285140D01*
X11369943Y-12285140D02*
X11493753Y-12285140D01*
X11617562Y-12085140D02*
X11636610Y-12085140D01*
X11636610Y-12085140D02*
X11655658Y-12094664D01*
X11655658Y-12094664D02*
X11665182Y-12104188D01*
X11665182Y-12104188D02*
X11674705Y-12123235D01*
X11674705Y-12123235D02*
X11684229Y-12161331D01*
X11684229Y-12161331D02*
X11684229Y-12208950D01*
X11684229Y-12208950D02*
X11674705Y-12247045D01*
X11674705Y-12247045D02*
X11665182Y-12266093D01*
X11665182Y-12266093D02*
X11655658Y-12275616D01*
X11655658Y-12275616D02*
X11636610Y-12285140D01*
X11636610Y-12285140D02*
X11617562Y-12285140D01*
X11617562Y-12285140D02*
X11598515Y-12275616D01*
X11598515Y-12275616D02*
X11588991Y-12266093D01*
X11588991Y-12266093D02*
X11579467Y-12247045D01*
X11579467Y-12247045D02*
X11569943Y-12208950D01*
X11569943Y-12208950D02*
X11569943Y-12161331D01*
X11569943Y-12161331D02*
X11579467Y-12123235D01*
X11579467Y-12123235D02*
X11588991Y-12104188D01*
X11588991Y-12104188D02*
X11598515Y-12094664D01*
X11598515Y-12094664D02*
X11617562Y-12085140D01*
X11808039Y-12085140D02*
X11827086Y-12085140D01*
X11827086Y-12085140D02*
X11846134Y-12094664D01*
X11846134Y-12094664D02*
X11855658Y-12104188D01*
X11855658Y-12104188D02*
X11865182Y-12123235D01*
X11865182Y-12123235D02*
X11874705Y-12161331D01*
X11874705Y-12161331D02*
X11874705Y-12208950D01*
X11874705Y-12208950D02*
X11865182Y-12247045D01*
X11865182Y-12247045D02*
X11855658Y-12266093D01*
X11855658Y-12266093D02*
X11846134Y-12275616D01*
X11846134Y-12275616D02*
X11827086Y-12285140D01*
X11827086Y-12285140D02*
X11808039Y-12285140D01*
X11808039Y-12285140D02*
X11788991Y-12275616D01*
X11788991Y-12275616D02*
X11779467Y-12266093D01*
X11779467Y-12266093D02*
X11769943Y-12247045D01*
X11769943Y-12247045D02*
X11760420Y-12208950D01*
X11760420Y-12208950D02*
X11760420Y-12161331D01*
X11760420Y-12161331D02*
X11769943Y-12123235D01*
X11769943Y-12123235D02*
X11779467Y-12104188D01*
X11779467Y-12104188D02*
X11788991Y-12094664D01*
X11788991Y-12094664D02*
X11808039Y-12085140D01*
X11960420Y-12285140D02*
X11960420Y-12151807D01*
X11960420Y-12170854D02*
X11969943Y-12161331D01*
X11969943Y-12161331D02*
X11988991Y-12151807D01*
X11988991Y-12151807D02*
X12017563Y-12151807D01*
X12017563Y-12151807D02*
X12036610Y-12161331D01*
X12036610Y-12161331D02*
X12046134Y-12180378D01*
X12046134Y-12180378D02*
X12046134Y-12285140D01*
X12046134Y-12180378D02*
X12055658Y-12161331D01*
X12055658Y-12161331D02*
X12074705Y-12151807D01*
X12074705Y-12151807D02*
X12103277Y-12151807D01*
X12103277Y-12151807D02*
X12122324Y-12161331D01*
X12122324Y-12161331D02*
X12131848Y-12180378D01*
X12131848Y-12180378D02*
X12131848Y-12285140D01*
X12227086Y-12285140D02*
X12227086Y-12151807D01*
X12227086Y-12170854D02*
X12236610Y-12161331D01*
X12236610Y-12161331D02*
X12255658Y-12151807D01*
X12255658Y-12151807D02*
X12284229Y-12151807D01*
X12284229Y-12151807D02*
X12303277Y-12161331D01*
X12303277Y-12161331D02*
X12312801Y-12180378D01*
X12312801Y-12180378D02*
X12312801Y-12285140D01*
X12312801Y-12180378D02*
X12322324Y-12161331D01*
X12322324Y-12161331D02*
X12341372Y-12151807D01*
X12341372Y-12151807D02*
X12369943Y-12151807D01*
X12369943Y-12151807D02*
X12388991Y-12161331D01*
X12388991Y-12161331D02*
X12398515Y-12180378D01*
X12398515Y-12180378D02*
X12398515Y-12285140D01*
X12788991Y-12075616D02*
X12617563Y-12332759D01*
X13046134Y-12085140D02*
X13065182Y-12085140D01*
X13065182Y-12085140D02*
X13084229Y-12094664D01*
X13084229Y-12094664D02*
X13093753Y-12104188D01*
X13093753Y-12104188D02*
X13103277Y-12123235D01*
X13103277Y-12123235D02*
X13112801Y-12161331D01*
X13112801Y-12161331D02*
X13112801Y-12208950D01*
X13112801Y-12208950D02*
X13103277Y-12247045D01*
X13103277Y-12247045D02*
X13093753Y-12266093D01*
X13093753Y-12266093D02*
X13084229Y-12275616D01*
X13084229Y-12275616D02*
X13065182Y-12285140D01*
X13065182Y-12285140D02*
X13046134Y-12285140D01*
X13046134Y-12285140D02*
X13027086Y-12275616D01*
X13027086Y-12275616D02*
X13017563Y-12266093D01*
X13017563Y-12266093D02*
X13008039Y-12247045D01*
X13008039Y-12247045D02*
X12998515Y-12208950D01*
X12998515Y-12208950D02*
X12998515Y-12161331D01*
X12998515Y-12161331D02*
X13008039Y-12123235D01*
X13008039Y-12123235D02*
X13017563Y-12104188D01*
X13017563Y-12104188D02*
X13027086Y-12094664D01*
X13027086Y-12094664D02*
X13046134Y-12085140D01*
X13198515Y-12266093D02*
X13208039Y-12275616D01*
X13208039Y-12275616D02*
X13198515Y-12285140D01*
X13198515Y-12285140D02*
X13188991Y-12275616D01*
X13188991Y-12275616D02*
X13198515Y-12266093D01*
X13198515Y-12266093D02*
X13198515Y-12285140D01*
X13331848Y-12085140D02*
X13350896Y-12085140D01*
X13350896Y-12085140D02*
X13369944Y-12094664D01*
X13369944Y-12094664D02*
X13379467Y-12104188D01*
X13379467Y-12104188D02*
X13388991Y-12123235D01*
X13388991Y-12123235D02*
X13398515Y-12161331D01*
X13398515Y-12161331D02*
X13398515Y-12208950D01*
X13398515Y-12208950D02*
X13388991Y-12247045D01*
X13388991Y-12247045D02*
X13379467Y-12266093D01*
X13379467Y-12266093D02*
X13369944Y-12275616D01*
X13369944Y-12275616D02*
X13350896Y-12285140D01*
X13350896Y-12285140D02*
X13331848Y-12285140D01*
X13331848Y-12285140D02*
X13312801Y-12275616D01*
X13312801Y-12275616D02*
X13303277Y-12266093D01*
X13303277Y-12266093D02*
X13293753Y-12247045D01*
X13293753Y-12247045D02*
X13284229Y-12208950D01*
X13284229Y-12208950D02*
X13284229Y-12161331D01*
X13284229Y-12161331D02*
X13293753Y-12123235D01*
X13293753Y-12123235D02*
X13303277Y-12104188D01*
X13303277Y-12104188D02*
X13312801Y-12094664D01*
X13312801Y-12094664D02*
X13331848Y-12085140D01*
X13512801Y-12170854D02*
X13493753Y-12161331D01*
X13493753Y-12161331D02*
X13484229Y-12151807D01*
X13484229Y-12151807D02*
X13474706Y-12132759D01*
X13474706Y-12132759D02*
X13474706Y-12123235D01*
X13474706Y-12123235D02*
X13484229Y-12104188D01*
X13484229Y-12104188D02*
X13493753Y-12094664D01*
X13493753Y-12094664D02*
X13512801Y-12085140D01*
X13512801Y-12085140D02*
X13550896Y-12085140D01*
X13550896Y-12085140D02*
X13569944Y-12094664D01*
X13569944Y-12094664D02*
X13579467Y-12104188D01*
X13579467Y-12104188D02*
X13588991Y-12123235D01*
X13588991Y-12123235D02*
X13588991Y-12132759D01*
X13588991Y-12132759D02*
X13579467Y-12151807D01*
X13579467Y-12151807D02*
X13569944Y-12161331D01*
X13569944Y-12161331D02*
X13550896Y-12170854D01*
X13550896Y-12170854D02*
X13512801Y-12170854D01*
X13512801Y-12170854D02*
X13493753Y-12180378D01*
X13493753Y-12180378D02*
X13484229Y-12189902D01*
X13484229Y-12189902D02*
X13474706Y-12208950D01*
X13474706Y-12208950D02*
X13474706Y-12247045D01*
X13474706Y-12247045D02*
X13484229Y-12266093D01*
X13484229Y-12266093D02*
X13493753Y-12275616D01*
X13493753Y-12275616D02*
X13512801Y-12285140D01*
X13512801Y-12285140D02*
X13550896Y-12285140D01*
X13550896Y-12285140D02*
X13569944Y-12275616D01*
X13569944Y-12275616D02*
X13579467Y-12266093D01*
X13579467Y-12266093D02*
X13588991Y-12247045D01*
X13588991Y-12247045D02*
X13588991Y-12208950D01*
X13588991Y-12208950D02*
X13579467Y-12189902D01*
X13579467Y-12189902D02*
X13569944Y-12180378D01*
X13569944Y-12180378D02*
X13550896Y-12170854D01*
X13760420Y-12085140D02*
X13722325Y-12085140D01*
X13722325Y-12085140D02*
X13703277Y-12094664D01*
X13703277Y-12094664D02*
X13693753Y-12104188D01*
X13693753Y-12104188D02*
X13674706Y-12132759D01*
X13674706Y-12132759D02*
X13665182Y-12170854D01*
X13665182Y-12170854D02*
X13665182Y-12247045D01*
X13665182Y-12247045D02*
X13674706Y-12266093D01*
X13674706Y-12266093D02*
X13684229Y-12275616D01*
X13684229Y-12275616D02*
X13703277Y-12285140D01*
X13703277Y-12285140D02*
X13741372Y-12285140D01*
X13741372Y-12285140D02*
X13760420Y-12275616D01*
X13760420Y-12275616D02*
X13769944Y-12266093D01*
X13769944Y-12266093D02*
X13779467Y-12247045D01*
X13779467Y-12247045D02*
X13779467Y-12199426D01*
X13779467Y-12199426D02*
X13769944Y-12180378D01*
X13769944Y-12180378D02*
X13760420Y-12170854D01*
X13760420Y-12170854D02*
X13741372Y-12161331D01*
X13741372Y-12161331D02*
X13703277Y-12161331D01*
X13703277Y-12161331D02*
X13684229Y-12170854D01*
X13684229Y-12170854D02*
X13674706Y-12180378D01*
X13674706Y-12180378D02*
X13665182Y-12199426D01*
X13950896Y-12085140D02*
X13912801Y-12085140D01*
X13912801Y-12085140D02*
X13893753Y-12094664D01*
X13893753Y-12094664D02*
X13884229Y-12104188D01*
X13884229Y-12104188D02*
X13865182Y-12132759D01*
X13865182Y-12132759D02*
X13855658Y-12170854D01*
X13855658Y-12170854D02*
X13855658Y-12247045D01*
X13855658Y-12247045D02*
X13865182Y-12266093D01*
X13865182Y-12266093D02*
X13874706Y-12275616D01*
X13874706Y-12275616D02*
X13893753Y-12285140D01*
X13893753Y-12285140D02*
X13931848Y-12285140D01*
X13931848Y-12285140D02*
X13950896Y-12275616D01*
X13950896Y-12275616D02*
X13960420Y-12266093D01*
X13960420Y-12266093D02*
X13969944Y-12247045D01*
X13969944Y-12247045D02*
X13969944Y-12199426D01*
X13969944Y-12199426D02*
X13960420Y-12180378D01*
X13960420Y-12180378D02*
X13950896Y-12170854D01*
X13950896Y-12170854D02*
X13931848Y-12161331D01*
X13931848Y-12161331D02*
X13893753Y-12161331D01*
X13893753Y-12161331D02*
X13874706Y-12170854D01*
X13874706Y-12170854D02*
X13865182Y-12180378D01*
X13865182Y-12180378D02*
X13855658Y-12199426D01*
X14046134Y-12085140D02*
X14046134Y-12123235D01*
X14122325Y-12085140D02*
X14122325Y-12123235D01*
X14417563Y-12361331D02*
X14408039Y-12351807D01*
X14408039Y-12351807D02*
X14388991Y-12323235D01*
X14388991Y-12323235D02*
X14379468Y-12304188D01*
X14379468Y-12304188D02*
X14369944Y-12275616D01*
X14369944Y-12275616D02*
X14360420Y-12227997D01*
X14360420Y-12227997D02*
X14360420Y-12189902D01*
X14360420Y-12189902D02*
X14369944Y-12142283D01*
X14369944Y-12142283D02*
X14379468Y-12113712D01*
X14379468Y-12113712D02*
X14388991Y-12094664D01*
X14388991Y-12094664D02*
X14408039Y-12066093D01*
X14408039Y-12066093D02*
X14417563Y-12056569D01*
X14579468Y-12151807D02*
X14579468Y-12285140D01*
X14531848Y-12075616D02*
X14484229Y-12218474D01*
X14484229Y-12218474D02*
X14608039Y-12218474D01*
X14836610Y-12285140D02*
X14836610Y-12085140D01*
X14922325Y-12285140D02*
X14922325Y-12180378D01*
X14922325Y-12180378D02*
X14912801Y-12161331D01*
X14912801Y-12161331D02*
X14893753Y-12151807D01*
X14893753Y-12151807D02*
X14865182Y-12151807D01*
X14865182Y-12151807D02*
X14846134Y-12161331D01*
X14846134Y-12161331D02*
X14836610Y-12170854D01*
X15046134Y-12285140D02*
X15027087Y-12275616D01*
X15027087Y-12275616D02*
X15017563Y-12266093D01*
X15017563Y-12266093D02*
X15008039Y-12247045D01*
X15008039Y-12247045D02*
X15008039Y-12189902D01*
X15008039Y-12189902D02*
X15017563Y-12170854D01*
X15017563Y-12170854D02*
X15027087Y-12161331D01*
X15027087Y-12161331D02*
X15046134Y-12151807D01*
X15046134Y-12151807D02*
X15074706Y-12151807D01*
X15074706Y-12151807D02*
X15093753Y-12161331D01*
X15093753Y-12161331D02*
X15103277Y-12170854D01*
X15103277Y-12170854D02*
X15112801Y-12189902D01*
X15112801Y-12189902D02*
X15112801Y-12247045D01*
X15112801Y-12247045D02*
X15103277Y-12266093D01*
X15103277Y-12266093D02*
X15093753Y-12275616D01*
X15093753Y-12275616D02*
X15074706Y-12285140D01*
X15074706Y-12285140D02*
X15046134Y-12285140D01*
X15227087Y-12285140D02*
X15208039Y-12275616D01*
X15208039Y-12275616D02*
X15198515Y-12256569D01*
X15198515Y-12256569D02*
X15198515Y-12085140D01*
X15379468Y-12275616D02*
X15360420Y-12285140D01*
X15360420Y-12285140D02*
X15322325Y-12285140D01*
X15322325Y-12285140D02*
X15303277Y-12275616D01*
X15303277Y-12275616D02*
X15293753Y-12256569D01*
X15293753Y-12256569D02*
X15293753Y-12180378D01*
X15293753Y-12180378D02*
X15303277Y-12161331D01*
X15303277Y-12161331D02*
X15322325Y-12151807D01*
X15322325Y-12151807D02*
X15360420Y-12151807D01*
X15360420Y-12151807D02*
X15379468Y-12161331D01*
X15379468Y-12161331D02*
X15388991Y-12180378D01*
X15388991Y-12180378D02*
X15388991Y-12199426D01*
X15388991Y-12199426D02*
X15293753Y-12218474D01*
X15465182Y-12275616D02*
X15484230Y-12285140D01*
X15484230Y-12285140D02*
X15522325Y-12285140D01*
X15522325Y-12285140D02*
X15541372Y-12275616D01*
X15541372Y-12275616D02*
X15550896Y-12256569D01*
X15550896Y-12256569D02*
X15550896Y-12247045D01*
X15550896Y-12247045D02*
X15541372Y-12227997D01*
X15541372Y-12227997D02*
X15522325Y-12218474D01*
X15522325Y-12218474D02*
X15493753Y-12218474D01*
X15493753Y-12218474D02*
X15474706Y-12208950D01*
X15474706Y-12208950D02*
X15465182Y-12189902D01*
X15465182Y-12189902D02*
X15465182Y-12180378D01*
X15465182Y-12180378D02*
X15474706Y-12161331D01*
X15474706Y-12161331D02*
X15493753Y-12151807D01*
X15493753Y-12151807D02*
X15522325Y-12151807D01*
X15522325Y-12151807D02*
X15541372Y-12161331D01*
X15617563Y-12361331D02*
X15627087Y-12351807D01*
X15627087Y-12351807D02*
X15646134Y-12323235D01*
X15646134Y-12323235D02*
X15655658Y-12304188D01*
X15655658Y-12304188D02*
X15665182Y-12275616D01*
X15665182Y-12275616D02*
X15674706Y-12227997D01*
X15674706Y-12227997D02*
X15674706Y-12189902D01*
X15674706Y-12189902D02*
X15665182Y-12142283D01*
X15665182Y-12142283D02*
X15655658Y-12113712D01*
X15655658Y-12113712D02*
X15646134Y-12094664D01*
X15646134Y-12094664D02*
X15627087Y-12066093D01*
X15627087Y-12066093D02*
X15617563Y-12056569D01*
X15979468Y-12361331D02*
X15969944Y-12351807D01*
X15969944Y-12351807D02*
X15950896Y-12323235D01*
X15950896Y-12323235D02*
X15941372Y-12304188D01*
X15941372Y-12304188D02*
X15931849Y-12275616D01*
X15931849Y-12275616D02*
X15922325Y-12227997D01*
X15922325Y-12227997D02*
X15922325Y-12189902D01*
X15922325Y-12189902D02*
X15931849Y-12142283D01*
X15931849Y-12142283D02*
X15941372Y-12113712D01*
X15941372Y-12113712D02*
X15950896Y-12094664D01*
X15950896Y-12094664D02*
X15969944Y-12066093D01*
X15969944Y-12066093D02*
X15979468Y-12056569D01*
X16055658Y-12151807D02*
X16055658Y-12285140D01*
X16055658Y-12170854D02*
X16065182Y-12161331D01*
X16065182Y-12161331D02*
X16084230Y-12151807D01*
X16084230Y-12151807D02*
X16112801Y-12151807D01*
X16112801Y-12151807D02*
X16131849Y-12161331D01*
X16131849Y-12161331D02*
X16141372Y-12180378D01*
X16141372Y-12180378D02*
X16141372Y-12285140D01*
X16265182Y-12285140D02*
X16246134Y-12275616D01*
X16246134Y-12275616D02*
X16236611Y-12266093D01*
X16236611Y-12266093D02*
X16227087Y-12247045D01*
X16227087Y-12247045D02*
X16227087Y-12189902D01*
X16227087Y-12189902D02*
X16236611Y-12170854D01*
X16236611Y-12170854D02*
X16246134Y-12161331D01*
X16246134Y-12161331D02*
X16265182Y-12151807D01*
X16265182Y-12151807D02*
X16293753Y-12151807D01*
X16293753Y-12151807D02*
X16312801Y-12161331D01*
X16312801Y-12161331D02*
X16322325Y-12170854D01*
X16322325Y-12170854D02*
X16331849Y-12189902D01*
X16331849Y-12189902D02*
X16331849Y-12247045D01*
X16331849Y-12247045D02*
X16322325Y-12266093D01*
X16322325Y-12266093D02*
X16312801Y-12275616D01*
X16312801Y-12275616D02*
X16293753Y-12285140D01*
X16293753Y-12285140D02*
X16265182Y-12285140D01*
X16388992Y-12151807D02*
X16465182Y-12151807D01*
X16417563Y-12085140D02*
X16417563Y-12256569D01*
X16417563Y-12256569D02*
X16427087Y-12275616D01*
X16427087Y-12275616D02*
X16446134Y-12285140D01*
X16446134Y-12285140D02*
X16465182Y-12285140D01*
X16684230Y-12151807D02*
X16684230Y-12351807D01*
X16684230Y-12161331D02*
X16703277Y-12151807D01*
X16703277Y-12151807D02*
X16741373Y-12151807D01*
X16741373Y-12151807D02*
X16760420Y-12161331D01*
X16760420Y-12161331D02*
X16769944Y-12170854D01*
X16769944Y-12170854D02*
X16779468Y-12189902D01*
X16779468Y-12189902D02*
X16779468Y-12247045D01*
X16779468Y-12247045D02*
X16769944Y-12266093D01*
X16769944Y-12266093D02*
X16760420Y-12275616D01*
X16760420Y-12275616D02*
X16741373Y-12285140D01*
X16741373Y-12285140D02*
X16703277Y-12285140D01*
X16703277Y-12285140D02*
X16684230Y-12275616D01*
X16893754Y-12285140D02*
X16874706Y-12275616D01*
X16874706Y-12275616D02*
X16865182Y-12256569D01*
X16865182Y-12256569D02*
X16865182Y-12085140D01*
X17055658Y-12285140D02*
X17055658Y-12180378D01*
X17055658Y-12180378D02*
X17046135Y-12161331D01*
X17046135Y-12161331D02*
X17027087Y-12151807D01*
X17027087Y-12151807D02*
X16988992Y-12151807D01*
X16988992Y-12151807D02*
X16969944Y-12161331D01*
X17055658Y-12275616D02*
X17036611Y-12285140D01*
X17036611Y-12285140D02*
X16988992Y-12285140D01*
X16988992Y-12285140D02*
X16969944Y-12275616D01*
X16969944Y-12275616D02*
X16960420Y-12256569D01*
X16960420Y-12256569D02*
X16960420Y-12237521D01*
X16960420Y-12237521D02*
X16969944Y-12218474D01*
X16969944Y-12218474D02*
X16988992Y-12208950D01*
X16988992Y-12208950D02*
X17036611Y-12208950D01*
X17036611Y-12208950D02*
X17055658Y-12199426D01*
X17122325Y-12151807D02*
X17198515Y-12151807D01*
X17150896Y-12085140D02*
X17150896Y-12256569D01*
X17150896Y-12256569D02*
X17160420Y-12275616D01*
X17160420Y-12275616D02*
X17179468Y-12285140D01*
X17179468Y-12285140D02*
X17198515Y-12285140D01*
X17341373Y-12275616D02*
X17322325Y-12285140D01*
X17322325Y-12285140D02*
X17284230Y-12285140D01*
X17284230Y-12285140D02*
X17265182Y-12275616D01*
X17265182Y-12275616D02*
X17255658Y-12256569D01*
X17255658Y-12256569D02*
X17255658Y-12180378D01*
X17255658Y-12180378D02*
X17265182Y-12161331D01*
X17265182Y-12161331D02*
X17284230Y-12151807D01*
X17284230Y-12151807D02*
X17322325Y-12151807D01*
X17322325Y-12151807D02*
X17341373Y-12161331D01*
X17341373Y-12161331D02*
X17350896Y-12180378D01*
X17350896Y-12180378D02*
X17350896Y-12199426D01*
X17350896Y-12199426D02*
X17255658Y-12218474D01*
X17522325Y-12285140D02*
X17522325Y-12085140D01*
X17522325Y-12275616D02*
X17503277Y-12285140D01*
X17503277Y-12285140D02*
X17465182Y-12285140D01*
X17465182Y-12285140D02*
X17446135Y-12275616D01*
X17446135Y-12275616D02*
X17436611Y-12266093D01*
X17436611Y-12266093D02*
X17427087Y-12247045D01*
X17427087Y-12247045D02*
X17427087Y-12189902D01*
X17427087Y-12189902D02*
X17436611Y-12170854D01*
X17436611Y-12170854D02*
X17446135Y-12161331D01*
X17446135Y-12161331D02*
X17465182Y-12151807D01*
X17465182Y-12151807D02*
X17503277Y-12151807D01*
X17503277Y-12151807D02*
X17522325Y-12161331D01*
X17598516Y-12361331D02*
X17608039Y-12351807D01*
X17608039Y-12351807D02*
X17627087Y-12323235D01*
X17627087Y-12323235D02*
X17636611Y-12304188D01*
X17636611Y-12304188D02*
X17646135Y-12275616D01*
X17646135Y-12275616D02*
X17655658Y-12227997D01*
X17655658Y-12227997D02*
X17655658Y-12189902D01*
X17655658Y-12189902D02*
X17646135Y-12142283D01*
X17646135Y-12142283D02*
X17636611Y-12113712D01*
X17636611Y-12113712D02*
X17627087Y-12094664D01*
X17627087Y-12094664D02*
X17608039Y-12066093D01*
X17608039Y-12066093D02*
X17598516Y-12056569D01*
M02*
